<svg id="Capa_1" enable-background="new 0 0 512 512" height="512" viewBox="0 0 512 512" width="512" xmlns="http://www.w3.org/2000/svg"><g><g><path d="m452.745 256c0 117.913-73.832 200.702-191.745 200.702-17.219 0-25.931-3.811-41.97-7.66-93.791-22.506-168.668-92.348-168.668-193.042 0-80.015 36.156-149.75 101.297-186.31 16.835-9.448 35.08-16.681 54.341-21.303 16.039-3.849 42.633 2.868 59.852 2.868 117.912 0 186.893 86.832 186.893 204.745z" fill="#e3e0e4"/><path d="m406.44 407.5c-38.6 38.32-91.75 62-150.44 62-117.91 0-213.5-95.59-213.5-213.5 0-82.41 46.69-153.91 115.06-189.5-38.94 38.68-63.06 92.28-63.06 151.5 0 117.91 95.59 213.5 213.5 213.5 35.51 0 68.99-8.67 98.44-24z" fill="#d4cfd5"/><path d="m469.5 256c0 61.122-25.687 116.246-66.854 155.167-38.248 36.16-69.284 38.897-126.072 38.897-17.22 0-54.534 17.396-70.574 13.546 93.79-22.51 163.5-106.92 163.5-207.61s-69.71-185.1-163.5-207.61c16.04-3.85 32.78-5.89 50-5.89 117.91 0 213.5 95.59 213.5 213.5z" fill="#3a67c1"/><path d="m406.43 407.51c-51.263 51.759-129.717 73.602-200.42 56.1 27.09-6.5 52.18-18.17 74.15-33.91 9.11 1.19 18.4 1.8 27.84 1.8 35.51 0 68.98-8.67 98.43-23.99z" fill="#30569f"/><path d="m474.106 502.711-8.79-17.58c-.097-.194-.254-.35-.447-.447l-17.58-8.79c-.737-.369-.737-1.42 0-1.789l17.58-8.79c.194-.097.35-.254.447-.447l8.79-17.58c.369-.737 1.42-.737 1.789 0l8.79 17.58c.097.194.254.35.447.447l17.58 8.79c.737.369.737 1.42 0 1.789l-17.58 8.79c-.194.097-.35.254-.447.447l-8.79 17.58c-.369.737-1.421.737-1.789 0z" fill="#f3d332"/><path d="m36.106 95.711-8.79-17.58c-.097-.194-.254-.35-.447-.447l-17.58-8.79c-.737-.369-.737-1.42 0-1.789l17.58-8.79c.194-.097.35-.254.447-.447l8.79-17.58c.369-.737 1.42-.737 1.789 0l8.79 17.58c.097.194.254.35.447.447l17.58 8.79c.737.369.737 1.42 0 1.789l-17.58 8.79c-.194.097-.35.254-.447.447l-8.79 17.58c-.369.737-1.421.737-1.789 0z" fill="#f3d332"/><path d="m204 225c0 4.15-.665 8.144-1.895 11.882-4.988 15.167-19.268 15.618-36.105 15.618-20.987 0-33.936-7.151-33.936-28.138 0-15.621 5.362-28.402 18.836-34.243 4.628-2.007 9.734-3.119 15.1-3.119 20.987 0 38 17.013 38 38z" fill="#d4cfd5"/><path d="m202.1 236.88c-4.98 15.17-19.26 26.12-36.1 26.12-20.99 0-38-17.01-38-38 0-15.63 9.43-29.05 22.9-34.88-1.24 3.73-1.9 7.73-1.9 11.88 0 20.99 17.01 38 38 38 5.37 0 10.47-1.11 15.1-3.12z" fill="#c5bec6"/><path d="m381.5 352.5c0 19.88-16.12 36-36 36-6.67 0-12.91-1.81-18.27-4.97 7.487-10.031 4.866-24.564 10.52-35.849 5.123-10.225 18.694-17.1 22.14-28.181 12.72 5.55 21.61 18.24 21.61 33z" fill="#30569f"/><path d="m359.89 319.5c-7.25 23.31-18.39 44.91-32.66 64.03-10.61-6.27-17.73-17.82-17.73-31.03 0-19.88 16.12-36 36-36 5.12 0 9.98 1.07 14.39 3z" fill="#d4cfd5"/><path d="m378.62 366.62c-5.49 12.86-18.25 21.88-33.12 21.88-6.67 0-12.91-1.81-18.27-4.97 5.27-7.06 10.11-14.46 14.49-22.15 1.42 1.16 2.92 2.22 4.51 3.15 5.36 3.16 11.6 4.97 18.27 4.97 5.01 0 9.79-1.02 14.12-2.88z" fill="#26447e"/><path d="m341.72 361.38c-4.38 7.69-9.22 15.09-14.49 22.15-10.61-6.27-17.73-17.82-17.73-31.03 0-14.87 9.02-27.63 21.88-33.12-1.86 4.33-2.88 9.11-2.88 14.12 0 7.84 2.51 15.1 6.77 21.02 1.84 2.56 4.01 4.87 6.45 6.86z" fill="#c5bec6"/><path d="m261 132c0 .789-.059 1.564-.173 2.321-1.12 7.459-7.646 10.892-15.417 10.892-8.56 0-12.495-4.562-12.495-13.123 0-7.772 2.805-14.297 10.264-15.417.757-.114 1.532-.173 2.321-.173 8.56 0 15.5 6.94 15.5 15.5z" fill="#d4cfd5"/><circle cx="414" cy="203" fill="#30569f" r="14.5"/><path d="m308.5 235c0 1.208-.122 2.388-.356 3.527-1.632 7.974-8.923 11.367-17.379 11.367-9.665 0-14.191-6.548-14.191-16.213 0-8.278 2.673-13.894 10.395-15.714 1.294-.305 2.644-.466 4.031-.466 9.665-.001 17.5 7.834 17.5 17.499z" fill="#d4cfd5"/><path d="m219.5 383c0 1.208-.122 2.388-.356 3.527-1.632 7.974-6.948 10.686-15.405 10.686-9.665 0-15.761-4.548-15.761-14.213 0-8.278 2.269-15.213 9.99-17.034 1.294-.305 2.644-.466 4.031-.466 9.666 0 17.501 7.835 17.501 17.5z" fill="#d4cfd5"/><g fill="#c5bec6"><circle cx="94" cy="298" r="14.5"/><path d="m260.82 134.32c-1.11 7.46-7.55 13.18-15.32 13.18-8.56 0-15.5-6.94-15.5-15.5 0-7.77 5.72-14.21 13.18-15.32-.12.76-.18 1.53-.18 2.32 0 8.56 6.94 15.5 15.5 15.5.79 0 1.56-.06 2.32-.18z"/><path d="m308.03 239.03c-1.82 7.72-8.76 13.47-17.03 13.47-9.66 0-17.5-7.84-17.5-17.5 0-8.27 5.75-15.21 13.47-17.03-.31 1.29-.47 2.64-.47 4.03 0 9.66 7.84 17.5 17.5 17.5 1.39 0 2.74-.16 4.03-.47z"/><path d="m219.03 387.03c-1.82 7.72-8.76 13.47-17.03 13.47-9.66 0-17.5-7.84-17.5-17.5 0-8.27 5.75-15.21 13.47-17.03-.31 1.29-.47 2.64-.47 4.03 0 9.66 7.84 17.5 17.5 17.5 1.39 0 2.74-.16 4.03-.47z"/></g><circle cx="363.5" cy="116.5" fill="#30569f" r="7.117"/><circle cx="419.5" cy="302.5" fill="#30569f" r="7.117"/><circle cx="240.5" cy="302.5" fill="#d4cfd5" r="7.117"/><circle cx="152.5" cy="351.5" fill="#d4cfd5" r="7.117"/><circle cx="163.5" cy="130.5" fill="#d4cfd5" r="7.117"/></g><g><path d="m36.455 230.506c-.473 4.115 2.48 7.834 6.595 8.307.291.033.58.049.865.049 3.759 0 7.002-2.82 7.442-6.645 9.975-86.812 73.061-155.773 154.644-176.095 91.942 22.904 155.999 104.83 155.999 199.878 0 18.377-2.495 36.529-7.259 53.998-2.98-.647-6.07-.998-9.241-.998-23.986 0-43.5 19.514-43.5 43.5 0 12.895 5.646 24.492 14.589 32.465-6.418 8.008-13.451 15.573-21.08 22.599-3.047 2.806-3.242 7.551-.436 10.598 1.479 1.605 3.495 2.419 5.519 2.419 1.816 0 3.638-.656 5.079-1.983 8.669-7.983 16.611-16.557 23.818-25.665 4.959 1.971 10.358 3.067 16.011 3.067 23.986 0 43.5-19.514 43.5-43.5 0-15.413-8.065-28.97-20.19-36.699 5.431-19.329 8.19-39.337 8.19-59.801 0-50.652-16.674-98.303-48.218-137.803-23.935-29.97-55.43-53.245-90.702-67.415 5.912-.51 11.886-.782 17.92-.782 58.838 0 115.005 25.254 154.1 69.287 2.751 3.098 7.49 3.379 10.588.629s3.379-7.49.629-10.588c-41.94-47.237-102.195-74.328-165.317-74.328-17.832 0-35.209 2.124-51.881 6.132-.026.007-.053.013-.079.02-88.337 21.27-156.814 95.615-167.585 189.354zm280.545 121.994c0-15.715 12.785-28.5 28.5-28.5 1.619 0 3.204.143 4.75.403-6.045 17.134-14.342 33.438-24.669 48.453-5.29-5.176-8.581-12.387-8.581-20.356zm57 0c0 15.715-12.785 28.5-28.5 28.5-2.292 0-4.52-.279-6.656-.793 7.263-10.679 13.59-22.006 18.933-33.93 2.278-5.084 4.346-10.231 6.222-15.431 6.114 5.231 10.001 12.995 10.001 21.654z"/><path d="m443.083 138.299c-2.209-3.504-6.84-4.554-10.345-2.345-3.504 2.209-4.554 6.84-2.345 10.344 20.677 32.8 31.607 70.734 31.607 109.702 0 113.589-92.411 206-206 206-6.014 0-11.965-.273-17.852-.778 13.181-5.279 25.845-11.834 37.87-19.625 3.477-2.252 4.469-6.896 2.216-10.373-2.252-3.477-6.896-4.469-10.372-2.216-19.089 12.369-39.905 21.399-61.89 26.876-85.942-21.417-150.883-96.779-155.689-188.98-.215-4.137-3.748-7.321-7.88-7.1-4.136.215-7.315 3.744-7.099 7.88 6.117 117.374 103.059 209.316 220.696 209.316 59.031 0 114.529-22.988 156.271-64.729 41.741-41.742 64.729-97.24 64.729-156.271 0-41.803-11.729-82.503-33.917-117.701z"/><path d="m435.5 27.5h5v5c0 4.142 3.357 7.5 7.5 7.5s7.5-3.358 7.5-7.5v-5h5c4.143 0 7.5-3.358 7.5-7.5s-3.357-7.5-7.5-7.5h-5v-5c0-4.142-3.357-7.5-7.5-7.5s-7.5 3.358-7.5 7.5v5h-5c-4.143 0-7.5 3.358-7.5 7.5s3.357 7.5 7.5 7.5z"/><path d="m55.5 453.5h-5v-5c0-4.142-3.358-7.5-7.5-7.5s-7.5 3.358-7.5 7.5v5h-5c-4.142 0-7.5 3.358-7.5 7.5s3.358 7.5 7.5 7.5h5v5c0 4.142 3.358 7.5 7.5 7.5s7.5-3.358 7.5-7.5v-5h5c4.142 0 7.5-3.358 7.5-7.5s-3.358-7.5-7.5-7.5z"/><path d="m507.854 468.292-17.432-8.716-8.715-17.43c-1.269-2.541-3.866-4.146-6.707-4.146s-5.438 1.605-6.708 4.146l-8.715 17.43-17.432 8.716c-2.54 1.27-4.146 3.867-4.146 6.708s1.605 5.438 4.146 6.708l17.432 8.716 8.715 17.43c1.271 2.541 3.867 4.146 6.708 4.146s5.438-1.605 6.708-4.146l8.715-17.43 17.432-8.716c2.54-1.27 4.146-3.867 4.146-6.708s-1.606-5.438-4.147-6.708zm-26.375 9.833c-1.451.726-2.628 1.902-3.354 3.354l-3.125 6.25-3.125-6.25c-.726-1.452-1.902-2.628-3.354-3.354l-6.25-3.125 6.251-3.125c1.451-.726 2.628-1.902 3.354-3.354l3.125-6.25 3.125 6.25c.726 1.452 1.902 2.628 3.354 3.354l6.251 3.125z"/><path d="m37 105c2.841 0 5.437-1.605 6.708-4.146l8.716-17.43 17.43-8.716c2.541-1.27 4.146-3.867 4.146-6.708s-1.605-5.437-4.146-6.708l-17.43-8.716-8.716-17.43c-1.271-2.541-3.867-4.146-6.708-4.146s-5.438 1.605-6.708 4.146l-8.716 17.43-17.43 8.716c-2.541 1.271-4.146 3.867-4.146 6.708s1.605 5.438 4.146 6.708l17.43 8.716 8.716 17.43c1.27 2.541 3.867 4.146 6.708 4.146zm-6.479-40.125c1.452-.726 2.628-1.902 3.354-3.354l3.125-6.251 3.125 6.25c.726 1.452 1.902 2.628 3.354 3.354l6.251 3.126-6.25 3.125c-1.452.726-2.628 1.902-3.354 3.354l-3.126 6.251-3.125-6.25c-.726-1.452-1.902-2.628-3.354-3.354l-6.251-3.126z"/><path d="m210.805 232.958c.72-4.079-2.002-7.97-6.082-8.69-4.077-.723-7.969 2.002-8.69 6.082-2.573 14.573-15.204 25.15-30.033 25.15-16.818 0-30.5-13.682-30.5-30.5s13.682-30.5 30.5-30.5c8.146 0 15.806 3.173 21.567 8.934 2.93 2.929 7.677 2.928 10.607 0 2.929-2.929 2.928-7.678 0-10.607-8.595-8.594-20.021-13.327-32.174-13.327-25.089 0-45.5 20.411-45.5 45.5s20.411 45.5 45.5 45.5c22.12 0 40.963-15.789 44.805-37.542z"/><path d="m268.5 132c0-12.682-10.317-23-23-23-12.682 0-23 10.318-23 23s10.318 23 23 23c12.683 0 23-10.318 23-23zm-23 8c-4.411 0-8-3.589-8-8s3.589-8 8-8 8 3.589 8 8-3.589 8-8 8z"/><path d="m436 203c0-12.131-9.869-22-22-22s-22 9.869-22 22 9.869 22 22 22 22-9.869 22-22zm-22 7c-3.859 0-7-3.14-7-7s3.141-7 7-7 7 3.14 7 7-3.141 7-7 7z"/><path d="m291 260c13.785 0 25-11.215 25-25s-11.215-25-25-25-25 11.215-25 25 11.215 25 25 25zm0-35c5.514 0 10 4.486 10 10s-4.486 10-10 10-10-4.486-10-10 4.486-10 10-10z"/><path d="m202 408c13.785 0 25-11.215 25-25s-11.215-25-25-25-25 11.215-25 25 11.215 25 25 25zm0-35c5.514 0 10 4.486 10 10s-4.486 10-10 10-10-4.486-10-10 4.486-10 10-10z"/><path d="m72 298c0 12.131 9.869 22 22 22s22-9.869 22-22-9.869-22-22-22-22 9.869-22 22zm29 0c0 3.86-3.14 7-7 7s-7-3.14-7-7 3.14-7 7-7 7 3.14 7 7z"/><circle cx="163.5" cy="130.502" r="7.498"/><circle cx="363.5" cy="116.5" r="7.498"/><circle cx="419.5" cy="302.504" r="7.498"/><circle cx="240.5" cy="302.504" r="7.498"/><circle cx="152.5" cy="351.5" r="7.498"/></g></g></svg>