<?xml version="1.0" encoding="iso-8859-1"?>
<!-- Generator: Adobe Illustrator 19.0.0, SVG Export Plug-In . SVG Version: 6.00 Build 0)  -->
<svg version="1.1" id="Capa_1" xmlns="http://www.w3.org/2000/svg" xmlns:xlink="http://www.w3.org/1999/xlink" x="0px" y="0px"
	 viewBox="0 0 512.001 512.001" style="enable-background:new 0 0 512.001 512.001;" xml:space="preserve">
<circle style="fill:#0098C4;" cx="256.437" cy="252.634" r="248.832"/>
<path style="fill:#004E86;" d="M384.002,500.595H128c-53.681,0-97.198-43.517-97.198-97.198l0,0h450.397l0,0
	C481.199,457.078,437.683,500.595,384.002,500.595z"/>
<polyline style="fill:#191B28;" points="505.259,307.551 208.171,307.551 156.146,307.551 7.609,307.551 7.609,270.631 
	156.146,270.631 208.171,270.631 505.259,270.631 "/>
<polyline style="fill:#00345C;" points="208.177,403.397 208.177,500.595 156.146,500.595 156.146,403.397 "/>
<path style="fill:#FFD522;" d="M387.251,27.704c8.321,9.221,13.43,21.396,13.43,34.794c0,28.727-23.287,52.014-52.014,52.014
	c-13.398,0-25.573-5.109-34.794-13.43c6.703,25.983,30.227,45.206,58.303,45.206c33.292,0,60.28-26.988,60.28-60.28
	C432.458,57.932,413.235,34.408,387.251,27.704z"/>
<rect x="156.146" y="86.3" style="fill:#191B28;" width="52.031" height="317.095"/>
<path d="M372.176,153.891c37.432,0,67.884-30.452,67.884-67.884c0-30.93-20.934-57.933-50.909-65.666
	c-3.254-0.837-6.665,0.553-8.404,3.423s-1.39,6.541,0.859,9.034c7.397,8.198,11.471,18.746,11.471,29.699
	c0,24.488-19.921,44.41-44.41,44.41c-10.955,0-21.503-4.074-29.7-11.471c-2.491-2.249-6.163-2.598-9.034-0.859
	s-4.261,5.153-3.424,8.404C314.244,132.956,341.247,153.891,372.176,153.891z M348.668,122.116
	c32.873,0,59.618-26.745,59.618-59.618c0-5.806-0.85-11.527-2.488-16.999c11.782,9.761,19.056,24.452,19.056,40.509
	c0,29.045-23.631,52.676-52.676,52.676c-16.056,0-30.747-7.273-40.509-19.056C337.141,121.266,342.861,122.116,348.668,122.116z"/>
<path d="M156.146,422.574c-4.199,0-7.604,3.405-7.604,7.604v70.417c0,4.199,3.405,7.604,7.604,7.604s7.604-3.405,7.604-7.604
	v-70.417C163.75,425.977,160.345,422.574,156.146,422.574z"/>
<path d="M208.177,422.574c-4.199,0-7.604,3.405-7.604,7.604v70.417c0,4.199,3.405,7.604,7.604,7.604s7.604-3.405,7.604-7.604
	v-70.417C215.781,425.977,212.377,422.574,208.177,422.574z"/>
<path d="M504.397,278.234c4.2,0,7.604-3.405,7.604-7.604s-3.404-7.604-7.604-7.604h-62.411V216.98
	c8.823-5.833,17.113-12.607,24.734-20.289c29.199-29.436,45.281-68.64,45.281-110.39c0-4.199-3.404-7.604-7.604-7.604
	s-7.604,3.405-7.604,7.604c0,37.711-14.514,73.111-40.871,99.679c-26.392,26.606-61.624,41.258-99.205,41.258
	c-77.712,0-140.937-63.224-140.937-140.937c0-4.199-3.405-7.604-7.604-7.604h-52.031c-4.199,0-7.604,3.405-7.604,7.604
	c0,77.712-63.223,140.937-140.937,140.937c-4.199,0-7.604,3.405-7.604,7.604c0,4.199,3.405,7.604,7.604,7.604
	c25.177,0,48.979-5.998,70.061-16.627v37.208H7.609c-4.199,0-7.604,3.405-7.604,7.604c0,4.199,3.405,7.604,7.604,7.604h140.933
	v21.713H7.609c-4.199,0-7.604,3.405-7.604,7.604s3.405,7.604,7.604,7.604h140.933v80.638H7.605c-4.199,0-7.604,3.405-7.604,7.604
	c0,4.199,3.405,7.604,7.604,7.604h148.541h52.031h145.158c4.2,0,7.604-3.405,7.604-7.604c0-4.199-3.404-7.604-7.604-7.604H215.781
	v-80.638h288.616c4.2,0,7.604-3.405,7.604-7.604s-3.404-7.604-7.604-7.604H215.781v-21.712H504.397z M349.113,263.027h-62.447
	v-37.203c18.945,9.551,40.084,15.36,62.447,16.438V263.027z M426.778,263.027h-62.457v-20.764
	c22.048-1.053,43.232-6.68,62.457-16.428V263.027z M271.459,217.058v45.968h-55.678V153.469
	C228.196,179.413,247.561,201.422,271.459,217.058z M163.75,395.793V242.335c0-4.199-3.405-7.604-7.604-7.604
	s-7.604,3.405-7.604,7.604v20.692H92.874v-45.976c23.895-15.636,43.255-37.642,55.668-63.583v58.448
	c0,4.199,3.405,7.604,7.604,7.604s7.604-3.405,7.604-7.604V93.904h36.823v301.888L163.75,395.793L163.75,395.793z"/>
<path d="M504.397,395.793H383.752c-4.2,0-7.604,3.405-7.604,7.604c0,4.199,3.404,7.604,7.604,7.604h120.645
	c4.2,0,7.604-3.405,7.604-7.604C512.001,399.197,508.596,395.793,504.397,395.793z"/>
<path d="M315.91,442.471h-36.497c-4.2,0-7.604,3.405-7.604,7.604c0,4.199,3.404,7.604,7.604,7.604h36.497
	c4.2,0,7.604-3.405,7.604-7.604C323.514,445.875,320.111,442.471,315.91,442.471z"/>
<path d="M398.029,463.761h-36.497c-4.2,0-7.604,3.405-7.604,7.604c0,4.199,3.404,7.604,7.604,7.604h36.497
	c4.2,0,7.604-3.405,7.604-7.604C405.633,467.166,402.229,463.761,398.029,463.761z"/>
<path d="M81.72,439.429H45.223c-4.199,0-7.604,3.405-7.604,7.604c0,4.199,3.405,7.604,7.604,7.604H81.72
	c4.199,0,7.604-3.405,7.604-7.604C89.324,442.834,85.92,439.429,81.72,439.429z"/>
<path d="M469.503,434.868h-36.497c-4.2,0-7.604,3.405-7.604,7.604s3.404,7.604,7.604,7.604h36.497c4.2,0,7.604-3.405,7.604-7.604
	S473.702,434.868,469.503,434.868z"/>
<path d="M263.025,62.884c5.601,3.687,13.145-1.409,11.637-7.988c-0.754-3.293-3.66-5.762-7.042-5.926
	c-3.316-0.16-6.403,1.916-7.529,5.034C258.924,57.236,260.149,60.99,263.025,62.884z"/>
<path d="M119.736,56.568c6.926,0,10.181-8.909,4.941-13.39c-2.462-2.106-6.07-2.385-8.845-0.737
	c-2.794,1.66-4.238,5.072-3.499,8.237C113.127,54.077,116.238,56.568,119.736,56.568z"/>
<path d="M50.368,133.986c1.244,3.011,4.338,4.897,7.58,4.674c3.174-0.219,5.909-2.501,6.764-5.551
	c1.859-6.633-5.813-12.171-11.546-8.349C50.204,126.735,48.979,130.694,50.368,133.986z"/>
<g>
</g>
<g>
</g>
<g>
</g>
<g>
</g>
<g>
</g>
<g>
</g>
<g>
</g>
<g>
</g>
<g>
</g>
<g>
</g>
<g>
</g>
<g>
</g>
<g>
</g>
<g>
</g>
<g>
</g>
</svg>
