<svg id="Capa_1" enable-background="new 0 0 512 512" height="512" viewBox="0 0 512 512" width="512" xmlns="http://www.w3.org/2000/svg"><g><g><path d="m502 182.437c0 30.194-11.988 59.15-33.338 80.5l-.978.978h-118.18l-.978-.978c-10.67-10.67-19.015-23.247-24.684-36.931-14.031-33.867-10.356-74.502 9.532-105.304l16.689-25.872c12.836-19.873 34.875-31.881 58.531-31.881s45.695 12.008 58.521 31.881l16.699 25.872c11.827 18.307 18.186 39.941 18.186 61.735z" fill="#ffd88a"/></g><g><path d="m323.332 263.913c13.134 26.725 9.963 56.106 9.963 85.884v5.68h150.587v-5.68c0-29.778-3.171-59.159 9.963-85.884z" fill="#9ebccf"/></g><g><path d="m333.299 355.479 22.9 57.143h104.785l22.901-57.143z" fill="#5c90ae"/></g><g><path d="m161.042 405.926h-151.042v-87.883c0-22.578 18.303-40.881 40.881-40.881h69.279c22.578 0 40.881 18.303 40.881 40.881v87.883z" fill="#5c90ae"/></g><g><circle cx="85.521" cy="341.544" fill="#eaf0f0" r="23.933"/></g><g><path d="m493.845 253.913h-4.514c14.728-20.756 22.669-45.504 22.669-71.476 0-23.901-6.842-47.125-19.784-67.158l-16.699-25.872c-14.733-22.829-39.751-36.458-66.923-36.458-27.167 0-52.188 13.628-66.935 36.459l-16.687 25.869c-21.729 33.652-25.703 77.548-10.37 114.556 3.545 8.557 7.986 16.605 13.272 24.079h-4.542c-7.261 0-12.187 7.875-8.975 14.411 9.92 20.187 9.526 42.797 9.108 66.734-.084 4.81-.171 9.783-.171 14.739 0 3.115-.453 6.692.81 9.624l22.812 56.922c1.52 3.793 5.195 6.28 9.282 6.28h43.112c-2.042 38.349-33.88 68.921-72.729 68.921-40.162 0-72.836-32.674-72.836-72.836v-328.858c0-49.291-40.102-89.393-89.393-89.393s-89.393 40.102-89.393 89.393v55.841c0 5.523 4.477 10 10 10s10-4.477 10-10v-55.841c0-38.263 31.129-69.393 69.393-69.393s69.393 31.129 69.393 69.393v328.858c0 51.19 41.646 92.836 92.836 92.836 49.878 0 90.688-39.54 92.748-88.921h41.653c4.087 0 7.762-2.487 9.282-6.28l22.9-57.143c1.154-2.88.715-6.366.715-9.402 0-4.956-.087-9.929-.171-14.739-.417-23.938-.812-46.548 9.108-66.734 3.216-6.537-1.71-14.411-8.971-14.411zm-14.66 20c-6.19 20.199-5.825 41.126-5.47 61.494.058 3.308.117 6.695.147 10.07h-130.547c.03-3.375.089-6.762.147-10.07.355-20.368.721-41.295-5.47-61.494zm-39.98-20h-59.572v-64.986l8.299 3.55c5.005 2.142 10.801-.114 13.044-5.072l8.617-19.047 9.015 19.18c2.31 4.915 8.119 7.086 13.088 4.895l7.508-3.314v64.794zm-106.125-31.735c-12.856-31.031-9.524-67.835 8.697-96.056l16.686-25.867c11.043-17.098 29.784-27.306 50.131-27.306 20.349 0 39.085 10.207 50.119 27.303l16.702 25.876c10.695 16.555 16.585 36.553 16.585 56.309 0 26.831-10.102 52.106-28.505 71.476h-4.29v-80.141c0-3.38-1.708-6.532-4.54-8.378-2.833-1.846-6.406-2.135-9.498-.771l-12.612 5.567-14.085-29.965c-1.66-3.531-5.233-5.815-9.123-5.746-3.901.028-7.43 2.323-9.038 5.878l-13.517 29.877-13.226-5.658c-3.089-1.322-6.637-1.003-9.441.847-2.805 1.851-4.492 4.986-4.492 8.347v80.141h-5.941c-8.788-9.253-15.717-19.917-20.612-31.733zm121.139 180.444h-91.254l-14.885-37.143h121.024z"/><path d="m120.161 267.162h-25.2v-33.198c0-5.523-4.477-10-10-10s-10 4.477-10 10v33.198h-24.08c-28.056 0-50.881 22.825-50.881 50.881v87.883c0 5.523 4.477 10 10 10h27.581v43.095c0 5.523 4.477 10 10 10s10-4.477 10-10v-43.095h55.88v43.095c0 5.523 4.477 10 10 10s10-4.477 10-10v-43.095h27.581c5.523 0 10-4.477 10-10v-87.883c0-28.056-22.825-50.881-50.881-50.881zm30.881 128.764h-131.042v-77.883c0-17.028 13.854-30.881 30.881-30.881h69.279c17.028 0 30.881 13.854 30.881 30.881v77.883z"/><path d="m75.73 194.97c2.066 5.044 8.036 7.491 13.06 5.41 5.033-2.084 7.494-8.027 5.41-13.06-2.085-5.035-8.031-7.487-13.06-5.41-5.028 2.076-7.503 8.036-5.41 13.06z"/><path d="m85.521 307.611c-18.71 0-33.933 15.222-33.933 33.933s15.222 33.933 33.933 33.933 33.933-15.222 33.933-33.933-15.223-33.933-33.933-33.933zm0 47.866c-7.683 0-13.933-6.25-13.933-13.933s6.25-13.933 13.933-13.933 13.933 6.25 13.933 13.933-6.25 13.933-13.933 13.933z"/></g></g></svg>