<svg id="Capa_1" enable-background="new 0 0 512 512" height="512" viewBox="0 0 512 512" width="512" xmlns="http://www.w3.org/2000/svg"><g><g clip-rule="evenodd" fill-rule="evenodd"><path d="m15.251 499.952h481.498l-31.977-100.495h-409.068z" fill="#40579a"/><path d="m464.517 282.719 39.999 45.073-41.614 7.995-48.675-7.995 40-45.073c3.231-3.658 6.944-3.771 10.29 0z" fill="#eef5ff"/><path d="m276.397 100.409c18.059 0 32.828 12.643 32.828 28.094v34.896h-65.684v-34.896c0-15.45 14.769-28.094 32.856-28.094z" fill="#dfe9fb"/><path d="m40.51 299.558h65.03c4.282 0 7.769-3.486 7.769-7.768v-39.291c0-4.281-3.486-7.768-7.769-7.768h-65.03c-4.28 0-7.768 3.486-7.768 7.768v39.291c0 4.281 3.487 7.768 7.768 7.768z" fill="#eef5ff"/><path d="m81.275 299.558h24.265c4.282 0 7.769-3.486 7.769-7.768v-39.291c0-4.281-3.486-7.768-7.769-7.768h-24.265c4.252 0 7.767 3.486 7.767 7.768v39.291c0 4.281-3.515 7.768-7.767 7.768z" fill="#dfe9fb"/><path d="m15.251 499.952h123.288c0-69.737 0-139.503 0-209.24 0-4.28-3.488-7.767-7.769-7.767h-115.519c-4.252 0-7.767 3.486-7.767 7.767v201.473c0 4.281 3.515 7.767 7.767 7.767z" fill="#c4d7fb"/><path d="m114.272 499.952h24.267c0-69.737 0-139.503 0-209.24 0-4.28-3.488-7.767-7.769-7.767h-24.267c4.281 0 7.769 3.486 7.769 7.767z" fill="#a9c6f9"/><path d="m414.227 499.952h82.522c5.103 0 7.767-2.267 7.767-7.767v-164.393h-90.289z" fill="#c4d7fb"/><path d="m472.482 499.952h24.267c5.103 0 7.767-2.267 7.767-7.767v-164.393h-24.294v164.393c0 5.5-2.664 7.767-7.74 7.767z" fill="#a9c6f9"/><path d="m225.086 240.848h102.593c4.252 0 7.769-3.515 7.769-7.768v-66.76c0-4.281-3.517-7.768-7.769-7.768h-102.593c-4.252 0-7.768 3.487-7.768 7.768v66.76c0 4.253 3.516 7.768 7.768 7.768z" fill="#eef5ff"/><path d="m303.412 240.848h24.267c4.252 0 7.769-3.515 7.769-7.768v-66.76c0-4.281-3.517-7.768-7.769-7.768h-24.267c4.253 0 7.769 3.487 7.769 7.768v66.76c0 4.253-3.516 7.768-7.769 7.768z" fill="#dfe9fb"/><path d="m359.712 499.952c0-90.176 0-180.325 0-270.501 0-4.279-3.515-7.767-7.767-7.767h-151.126c-4.252 0-7.767 3.487-7.767 7.767v270.501z" fill="#c4d7fb"/><path d="m359.712 499.952c0-90.176 0-180.325 0-270.501 0-4.279-3.515-7.767-7.767-7.767h-24.267c4.252 0 7.769 3.487 7.769 7.767v270.501z" fill="#a9c6f9"/><path d="m464.517 282.719 39.999 45.073h-24.294l-32.998-37.193 7.003-7.88c3.259-3.658 6.944-3.771 10.29 0z" fill="#dfe9fb"/><path d="m276.397 100.382c18.059 0 32.828 12.671 32.828 28.121v30.049h-24.295v-30.049c0-11.793-8.59-21.941-20.666-26.109 3.742-1.276 7.852-2.012 12.133-2.012z" fill="#c4d7fb"/><path d="m430.441 12.104c37.874 0 68.547 30.673 68.547 68.547 0 37.845-30.673 68.546-68.547 68.546-7.229 0-14.202-1.135-20.722-3.203-4.253-1.332-4.905-3.686-.426-6.35 4.989-2.948 9.553-6.521 13.636-10.602 12.36-12.389 20.014-29.511 20.014-48.391 0-25.117-13.438-47.144-33.621-58.993-5.047-2.948-5.131-4.734.426-6.379 6.576-1.956 13.494-3.175 20.693-3.175z" fill="#ffe07d"/><path d="m430.441 12.104c37.874 0 68.547 30.673 68.547 68.547 0 37.845-30.673 68.546-68.547 68.546-4.139 0-8.191-.369-12.133-1.077 32.062-5.727 56.413-33.763 56.413-67.469 0-33.679-24.266-61.687-56.272-67.47 3.886-.68 7.91-1.077 11.992-1.077z" fill="#ffd064"/><path d="m246.546 250.799h59.702c4.252 0 7.738 3.486 7.738 7.767v16.017c0 4.281-3.486 7.768-7.738 7.768h-59.702c-4.281 0-7.768-3.486-7.768-7.768v-16.017c0-4.281 3.487-7.767 7.768-7.767zm0 188.487h59.702c4.252 0 7.738 3.487 7.738 7.768v16.018c0 4.28-3.486 7.768-7.738 7.768h-59.702c-4.281 0-7.768-3.487-7.768-7.768v-16.018c0-4.281 3.487-7.768 7.768-7.768zm0-62.82h59.702c4.252 0 7.738 3.488 7.738 7.768v16.018c0 4.252-3.486 7.768-7.738 7.768h-59.702c-4.281 0-7.768-3.516-7.768-7.768v-16.018c0-4.28 3.487-7.768 7.768-7.768zm0-62.848h59.702c4.252 0 7.738 3.515 7.738 7.768v16.017c0 4.281-3.486 7.768-7.738 7.768h-59.702c-4.281 0-7.768-3.486-7.768-7.768v-16.017c0-4.253 3.487-7.768 7.768-7.768z" fill="#ffe07d"/><path d="m281.953 250.799h24.295c4.252 0 7.738 3.486 7.738 7.767v16.017c0 4.281-3.486 7.768-7.738 7.768h-24.295c4.28 0 7.767-3.486 7.767-7.768v-16.017c0-4.281-3.487-7.767-7.767-7.767zm0 188.487h24.295c4.252 0 7.738 3.487 7.738 7.768v16.018c0 4.28-3.486 7.768-7.738 7.768h-24.295c4.28 0 7.767-3.487 7.767-7.768v-16.018c0-4.281-3.487-7.768-7.767-7.768zm0-62.82h24.295c4.252 0 7.738 3.488 7.738 7.768v16.018c0 4.252-3.486 7.768-7.738 7.768h-24.295c4.28 0 7.767-3.516 7.767-7.768v-16.018c0-4.28-3.487-7.768-7.767-7.768zm0-62.848h24.295c4.252 0 7.738 3.515 7.738 7.768v16.017c0 4.281-3.486 7.768-7.738 7.768h-24.295c4.28 0 7.767-3.486 7.767-7.768v-16.017c0-4.253-3.487-7.768-7.767-7.768z" fill="#ffd064"/><g fill="#34467b"><path d="m389.96 399.457h24.267v100.495h-24.267z"/><path d="m168.786 399.457h24.267v100.495h-24.267z"/></g></g><path d="m146.051 492.44h39.518v-85.499h-39.518zm305.822-293.349c0-4.139 3.374-7.513 7.512-7.513 4.14 0 7.485 3.374 7.485 7.513v74.98l42.919 48.363c1.361 1.361 2.211 3.26 2.211 5.329v33.989c0 4.14-3.345 7.485-7.484 7.485s-7.512-3.346-7.512-7.485v-26.476h-75.265v157.164h75.265v-96.726c0-4.139 3.373-7.483 7.512-7.483 4.14 0 7.484 3.345 7.484 7.483v104.237c0 4.139-3.345 7.484-7.484 7.484-165.667 0-331.336 0-497.003 0-4.14 0-7.513-3.346-7.513-7.484v-217.034c0-4.139 3.373-7.484 7.513-7.484h17.717v-30.729c0-4.139 3.373-7.483 7.512-7.483h16.526v-30.731c0-4.14 3.347-7.484 7.484-7.484 4.139 0 7.514 3.345 7.514 7.484v30.729h17.519v-70.333c0-4.14 3.373-7.513 7.512-7.513 4.14 0 7.513 3.373 7.513 7.513v70.333h16.499c4.139 0 7.512 3.345 7.512 7.483v30.729h17.719c4.166 0 7.512 3.346 7.512 7.484v33.989c0 4.14-3.346 7.484-7.512 7.484-4.14 0-7.485-3.345-7.485-7.484v-26.478c-38.695 0-77.362 0-116.058 0v202.014h116.058v-141.572c0-4.14 3.346-7.484 7.485-7.484 4.166 0 7.512 3.345 7.512 7.484v41.077h39.518v-170.289c0-4.14 3.373-7.484 7.513-7.484h16.754v-55.62c0-4.166 3.373-7.512 7.512-7.512h18.683v-22.537c0-10.007 4.733-19.05 12.302-25.542 5.558-4.763 12.672-8.136 20.554-9.468v-70.928c0-4.14 3.373-7.484 7.512-7.484 4.14 0 7.513 3.345 7.513 7.484v70.928c7.881 1.332 14.996 4.705 20.523 9.468 7.598 6.492 12.275 15.535 12.275 25.542v22.537h18.739c4.139 0 7.512 3.346 7.512 7.512v55.62h16.753c4.14 0 7.513 3.345 7.513 7.484v33.989c0 4.139-3.373 7.483-7.513 7.483-4.139 0-7.512-3.345-7.512-7.483v-26.477c-50.545 0-101.09 0-151.636 0v263.272h151.633v-202.834c0-4.139 3.373-7.483 7.512-7.483 4.14 0 7.513 3.345 7.513 7.483v102.339h39.519v-63.841c-.085-2.184.736-4.281 2.324-5.783l42.806-48.25v-74.98zm-411.618 53.125v23.217h65.569v-23.217c-21.856 0-43.714 0-65.569 0zm416.154 231.265c-4.167 0-7.512-3.373-7.512-7.513 0-4.139 3.345-7.512 7.512-7.512h5.952c4.14 0 7.513 3.373 7.513 7.512 0 4.14-3.373 7.513-7.513 7.513zm0-31.069c-4.167 0-7.512-3.373-7.512-7.513 0-4.139 3.345-7.483 7.512-7.483h5.952c4.14 0 7.513 3.345 7.513 7.483 0 4.14-3.373 7.513-7.513 7.513zm0-31.041c-4.167 0-7.512-3.347-7.512-7.513 0-4.139 3.345-7.484 7.512-7.484h5.952c4.14 0 7.513 3.346 7.513 7.484 0 4.166-3.373 7.513-7.513 7.513zm0-31.071c-4.167 0-7.512-3.345-7.512-7.483 0-4.167 3.345-7.513 7.512-7.513h5.952c4.14 0 7.513 3.346 7.513 7.513 0 4.139-3.373 7.483-7.513 7.483zm0-31.07c-4.167 0-7.512-3.345-7.512-7.483 0-4.14 3.345-7.513 7.512-7.513h5.952c4.14 0 7.513 3.373 7.513 7.513 0 4.139-3.373 7.483-7.513 7.483zm-399.485-37.929c-4.139 0-7.485-3.346-7.485-7.484 0-4.167 3.347-7.512 7.485-7.512h32.203c4.14 0 7.513 3.345 7.513 7.512 0 4.139-3.373 7.484-7.513 7.484zm0 155.264c-4.139 0-7.485-3.345-7.485-7.483 0-4.139 3.347-7.513 7.485-7.513h32.203c4.14 0 7.513 3.374 7.513 7.513s-3.373 7.483-7.513 7.483zm0-31.07c-4.139 0-7.485-3.346-7.485-7.484 0-4.14 3.347-7.513 7.485-7.513h32.203c4.14 0 7.513 3.373 7.513 7.513 0 4.139-3.373 7.484-7.513 7.484zm0-31.014c-4.139 0-7.485-3.373-7.485-7.512 0-4.14 3.347-7.513 7.485-7.513h32.203c4.14 0 7.513 3.373 7.513 7.513 0 4.139-3.373 7.512-7.513 7.512zm0-31.069c-4.139 0-7.485-3.373-7.485-7.513 0-4.139 3.347-7.483 7.485-7.483h32.203c4.14 0 7.513 3.345 7.513 7.483 0 4.14-3.373 7.513-7.513 7.513zm0-31.069c-4.139 0-7.485-3.374-7.485-7.513s3.347-7.484 7.485-7.484h32.203c4.14 0 7.513 3.346 7.513 7.484s-3.373 7.513-7.513 7.513zm181.854 79.43h75.236c4.139 0 7.484 3.347 7.484 7.485v31.551c0 4.139-3.346 7.513-7.484 7.513h-75.236c-4.14 0-7.513-3.374-7.513-7.513v-31.551c.001-4.138 3.374-7.485 7.513-7.485zm67.725 14.998h-60.213v16.556h60.213zm-67.725-77.817h75.236c4.139 0 7.484 3.345 7.484 7.483v31.553c0 4.139-3.346 7.512-7.484 7.512h-75.236c-4.14 0-7.513-3.373-7.513-7.512v-31.553c.001-4.138 3.374-7.483 7.513-7.483zm67.725 14.996h-60.213v16.527h60.213zm-67.725-77.844h75.236c4.139 0 7.484 3.373 7.484 7.512v31.552c0 4.14-3.346 7.484-7.484 7.484h-75.236c-4.14 0-7.513-3.345-7.513-7.484v-31.552c.001-4.139 3.374-7.512 7.513-7.512zm67.725 14.997h-60.213v16.556h60.213zm-67.725-77.817h75.236c4.139 0 7.484 3.373 7.484 7.513v31.551c0 4.139-3.346 7.484-7.484 7.484h-75.236c-4.14 0-7.513-3.346-7.513-7.484v-31.551c.001-4.14 3.374-7.513 7.513-7.513zm67.725 14.996h-60.213v16.555h60.213zm176.44-208.871c-2.126-3.544-.964-8.136 2.579-10.262 3.544-2.126 8.137-.964 10.263 2.579 3.43 5.782 6.123 12.076 7.966 18.738 1.786 6.492 2.75 13.267 2.75 20.185 0 20.978-8.533 39.999-22.282 53.776-13.749 13.749-32.771 22.254-53.777 22.254-5.386 0-10.715-.567-15.875-1.673-5.244-1.134-10.348-2.807-15.194-4.988-3.771-1.674-5.471-6.096-3.771-9.866.766-1.758 2.154-3.061 3.771-3.77 10.801-4.849 19.929-12.757 26.336-22.623 6.151-9.497 9.724-20.892 9.724-33.11 0-12.275-3.572-23.644-9.724-33.168-6.407-9.865-15.535-17.746-26.336-22.594-3.771-1.7-5.471-6.096-3.771-9.865.766-1.758 2.154-3.061 3.771-3.799 4.847-2.154 9.95-3.855 15.194-4.961 5.16-1.105 10.489-1.701 15.875-1.701 6.918 0 13.692.964 20.185 2.751 6.662 1.813 12.955 4.535 18.738 7.993 3.543 2.098 4.705 6.69 2.58 10.234-2.127 3.543-6.719 4.705-10.263 2.579-4.649-2.777-9.694-4.932-14.997-6.406-5.102-1.39-10.544-2.155-16.243-2.155-3.345 0-6.576.283-9.751.766 6.888 5.302 12.812 11.736 17.548 19.022 7.71 11.935 12.189 26.108 12.189 41.304 0 15.166-4.479 29.341-12.189 41.275-4.735 7.285-10.66 13.721-17.548 18.993 3.175.51 6.406.766 9.751.766 16.867 0 32.12-6.833 43.175-17.859 11.056-11.057 17.889-26.336 17.889-43.175 0-5.699-.767-11.141-2.155-16.244-1.476-5.329-3.63-10.346-6.408-14.996zm-188.233 64.918c-4.65-3.969-11.112-6.435-18.313-6.435-7.2 0-13.692 2.466-18.342 6.435-4.337 3.713-7.001 8.731-7.001 14.174v22.537h50.658v-22.537c0-5.442-2.665-10.489-7.002-14.174zm33.225 99.843v-48.135h-103.104v48.135zm159.94 106.108-28.49-32.119-28.518 32.119zm-120.65 172.16h39.519v-85.499h-39.519z"/></g></svg>