<svg id="Capa_1" enable-background="new 0 0 512 512" height="512" viewBox="0 0 512 512" width="512" xmlns="http://www.w3.org/2000/svg"><g><g><path d="m7.5 425.705h497v32.325h-497z" fill="#c7865b"/></g><g><path d="m478.236 425.705h26.264v32.325h-26.264z" fill="#b36d3c"/></g><g><path d="m504.5 425.705-132.736-223.632c-3.914-6.594-13.459-6.594-17.373 0l-132.737 223.632z" fill="#abd641"/></g><g><path d="m400.088 413.33-85.544-144.124-92.889 156.498h181.823c-.001-4.282-1.128-8.562-3.39-12.374z" fill="#9ec63d"/></g><g><path d="m317.187 264.753 37.203-62.679c3.914-6.594 13.456-6.599 17.37-.005 9.281 15.636 24.391 41.093 37.206 62.685l-17.452-6.603-28.438 10.76-28.438-10.76z" fill="#b2e5fb"/></g><g><circle cx="256" cy="177.205" fill="#f7e365" r="64.65"/></g><g><path d="m227.76 119.037c-21.553 10.484-36.411 32.588-36.411 58.167 0 35.705 28.945 64.65 64.65 64.65 13.996 0 26.942-4.462 37.524-12.021z" fill="#f3d332"/></g><g><path d="m379.24 425.705-177.183-298.516c-3.914-6.594-13.459-6.594-17.373 0l-177.184 298.516z" fill="#c9eb74"/></g><g><path d="m184.683 127.189-5.456 9.191c24.144 40.678 171.728 289.324 171.728 289.324h28.285l-177.183-298.515c-3.914-6.594-13.46-6.594-17.374 0z" fill="#b7e546"/></g><g><path d="m133.057 214.168 51.626-86.978c3.914-6.594 13.459-6.595 17.373-.001 11.787 19.858 33.46 56.374 51.626 86.979l-22.937-8.679-37.376 14.142-37.376-14.142z" fill="#d3effd"/></g><g><path d="m179.228 136.381c6.713 11.31 22.971 38.702 42.945 72.352l8.574-3.244 22.937 8.679c-18.166-30.606-39.84-67.121-51.626-86.979-3.914-6.594-13.459-6.593-17.373.001z" fill="#b2e5fb"/></g><g><path d="m140.26 323.678v-10.102c0-4.143-3.357-7.5-7.5-7.5s-7.5 3.357-7.5 7.5v10.102c0 4.143 3.357 7.5 7.5 7.5s7.5-3.357 7.5-7.5z"/><path d="m183.269 292.792c4.143 0 7.5-3.357 7.5-7.5v-10.102c0-4.143-3.357-7.5-7.5-7.5s-7.5 3.357-7.5 7.5v10.102c0 4.143 3.357 7.5 7.5 7.5z"/><path d="m244.307 313.576v-10.102c0-4.143-3.357-7.5-7.5-7.5s-7.5 3.357-7.5 7.5v10.102c0 4.143 3.357 7.5 7.5 7.5s7.5-3.357 7.5-7.5z"/><path d="m354.996 292.945c-4.143 0-7.5 3.357-7.5 7.5v10.102c0 4.143 3.357 7.5 7.5 7.5s7.5-3.357 7.5-7.5v-10.102c0-4.143-3.357-7.5-7.5-7.5z"/><path d="m387.902 340.851v10.102c0 4.143 3.357 7.5 7.5 7.5s7.5-3.357 7.5-7.5v-10.102c0-4.143-3.357-7.5-7.5-7.5s-7.5 3.357-7.5 7.5z"/><path d="m425.278 379.238v10.102c0 4.143 3.357 7.5 7.5 7.5s7.5-3.357 7.5-7.5v-10.102c0-4.143-3.357-7.5-7.5-7.5s-7.5 3.357-7.5 7.5z"/><path d="m280.673 366.105v-10.102c0-4.143-3.357-7.5-7.5-7.5s-7.5 3.357-7.5 7.5v10.102c0 4.143 3.357 7.5 7.5 7.5s7.5-3.358 7.5-7.5z"/><path d="m173.748 369.136c0 4.143 3.357 7.5 7.5 7.5s7.5-3.357 7.5-7.5v-10.103c0-4.143-3.357-7.5-7.5-7.5s-7.5 3.357-7.5 7.5z"/><path d="m96.395 383.706c4.143 0 7.5-3.357 7.5-7.5v-10.102c0-4.143-3.357-7.5-7.5-7.5s-7.5 3.357-7.5 7.5v10.102c0 4.143 3.357 7.5 7.5 7.5z"/><path d="m420.113 140.279c-6.971-5.35-16.671-6.602-25.041-2.407-3.703 1.856-5.2 6.362-3.345 10.065 1.856 3.704 6.365 5.198 10.065 3.345 4.272-2.14 9.486-.408 11.627 3.861 1.272 2.537 3.867 4.139 6.705 4.139s5.433-1.602 6.705-4.139c2.14-4.271 7.355-6.002 11.625-3.861 3.703 1.853 8.21.359 10.066-3.344 1.855-3.703.358-8.21-3.344-10.066-5.65-2.832-12.064-3.292-18.063-1.303-2.563.852-4.92 2.109-7 3.71z"/><path d="m333.156 110.033c4.268-2.141 9.485-.408 11.627 3.861 1.271 2.537 3.866 4.139 6.704 4.139s5.433-1.602 6.705-4.139c2.141-4.271 7.355-6.003 11.625-3.861 3.703 1.853 8.209.358 10.066-3.344 1.855-3.703.358-8.21-3.344-10.066-5.651-2.831-12.064-3.292-18.063-1.303-2.564.853-4.922 2.109-7.001 3.711-6.972-5.352-16.67-6.602-25.042-2.408-3.702 1.856-5.199 6.363-3.344 10.066s6.363 5.198 10.067 3.344z"/><path d="m381.643 62.387c4.272-2.14 9.486-.408 11.627 3.861 1.271 2.537 3.867 4.14 6.705 4.14s5.434-1.603 6.705-4.14c2.14-4.27 7.357-6.002 11.627-3.861 3.699 1.856 8.209.359 10.065-3.345 1.855-3.703.358-8.209-3.345-10.065-8.374-4.198-18.081-2.94-25.053 2.417-6.973-5.359-16.68-6.614-25.053-2.417-3.703 1.856-5.2 6.362-3.345 10.065 1.858 3.704 6.366 5.198 10.067 3.345z"/><path d="m511.998 425.667c-.016-1.326-.378-2.651-1.049-3.788l-62.42-105.17c-2.113-3.562-6.713-4.735-10.277-2.621-3.562 2.113-4.735 6.715-2.621 10.277l55.696 93.842h-107.817l-74.339-125.249 13.129-22.12 12.339-4.669 25.784 9.756c.855.323 1.755.485 2.654.485s1.799-.162 2.654-.485l25.784-9.756 12.333 4.667 13.913 23.44c2.114 3.562 6.717 4.737 10.277 2.621 3.562-2.114 4.735-6.715 2.621-10.277l-52.447-88.365c-3.2-5.401-8.859-8.627-15.137-8.627s-11.938 3.226-15.135 8.622l-47.491 80.015-19.748-33.272c28.009-10.233 47.448-37.281 47.448-67.788 0-39.784-32.366-72.15-72.15-72.15-17.69 0-34.574 6.482-47.673 18.02-3.234-5.219-8.798-8.329-14.958-8.329-6.271 0-11.93 3.219-15.139 8.615l-88.22 148.63c-2.114 3.562-.94 8.163 2.621 10.277 3.562 2.114 8.163.94 10.277-2.621l35.251-59.389 17.834-6.748 34.722 13.138c1.711.647 3.598.647 5.309 0l34.722-13.138 17.831 6.747 117.491 197.952h-155.197c-4.143 0-7.5 3.357-7.5 7.5s3.357 7.5 7.5 7.5h286.13v17.322h-482v-17.322h160.87c4.143 0 7.5-3.357 7.5-7.5s-3.357-7.5-7.5-7.5h-155.197l64.376-108.462c2.114-3.562.94-8.163-2.621-10.277-3.562-2.115-8.163-.941-10.277 2.621l-71.1 119.79c-.679 1.147-1.036 2.486-1.051 3.825v32.325c0 4.143 3.357 7.5 7.5 7.5h497c4.143 0 7.5-3.357 7.5-7.5v-32.325c0-.014-.002-.027-.002-.039zm-151.156-219.766c.656-1.107 1.681-1.273 2.233-1.273s1.576.166 2.235 1.278l26.567 44.761c-1.019-.049-2.046.102-3.016.469l-25.784 9.756-25.784-9.756c-.972-.367-2-.518-3.021-.468zm-47.692-28.697c0 25.135-16.65 47.309-40.27 54.61l-56.721-95.566c10.636-10.341 24.876-16.194 39.841-16.194 31.513 0 57.15 25.638 57.15 57.15zm-79.75 21.271c-1.711-.646-3.598-.646-5.309 0l-34.722 13.138-34.722-13.138c-1.711-.646-3.598-.646-5.309 0l-2.903 1.099 40.689-68.552c.66-1.111 1.689-1.277 2.243-1.277.555 0 1.584.166 2.241 1.271l4.82 8.12c.021.034.04.069.061.103l35.81 60.333z"/></g></g></svg>