<?xml version="1.0" encoding="iso-8859-1"?>
<!-- Generator: Adobe Illustrator 19.0.0, SVG Export Plug-In . SVG Version: 6.00 Build 0)  -->
<svg version="1.1" id="Capa_1" xmlns="http://www.w3.org/2000/svg" xmlns:xlink="http://www.w3.org/1999/xlink" x="0px" y="0px"
	 viewBox="0 0 512 512" style="enable-background:new 0 0 512 512;" xml:space="preserve">
<path style="fill:#F9D53D;" d="M165.612,289.801c-6.017-12.839-9.379-27.171-9.379-42.288c0-55.1,44.667-99.767,99.767-99.767
	s99.767,44.667,99.767,99.767c0,15.118-3.362,29.45-9.38,42.29L165.612,289.801z"/>
<path style="fill:#EAC321;" d="M355.765,247.517c0,15.111-3.363,29.443-9.382,42.287h-40.012c3.164-9.711,4.87-20.081,4.87-30.85
	c0-55.102-44.673-99.765-99.765-99.765c-0.649,0-1.297,0.01-1.946,0.02c13.873-7.326,29.692-11.468,46.469-11.468
	C311.102,147.742,355.765,192.414,355.765,247.517z"/>
<path d="M256,109.916c4.134,0,7.485-3.351,7.485-7.485V71.224c0-4.134-3.351-7.485-7.485-7.485c-4.135,0-7.485,3.351-7.485,7.485
	v31.206C248.515,106.564,251.865,109.916,256,109.916z"/>
<path d="M148.117,150.217c1.462,1.462,3.377,2.192,5.294,2.192c1.915,0,3.831-0.731,5.293-2.192c2.923-2.923,2.923-7.663,0-10.586
	l-22.065-22.066c-2.923-2.923-7.662-2.924-10.587,0c-2.923,2.923-2.923,7.663,0,10.586L148.117,150.217z"/>
<path d="M80.5,254.999h31.206c4.135,0,7.485-3.351,7.485-7.485s-3.351-7.485-7.485-7.485H80.5c-4.134,0-7.485,3.351-7.485,7.485
	S76.366,254.999,80.5,254.999z"/>
<path d="M400.294,254.999H431.5c4.134,0,7.485-3.351,7.485-7.485s-3.351-7.485-7.485-7.485h-31.206
	c-4.134,0-7.485,3.351-7.485,7.485S396.16,254.999,400.294,254.999z"/>
<path d="M358.59,147.534c1.915,0,3.832-0.731,5.293-2.193l22.065-22.066c2.923-2.923,2.923-7.663,0-10.586
	c-2.924-2.923-7.663-2.923-10.587,0l-22.065,22.066c-2.923,2.923-2.923,7.663,0,10.586
	C354.758,146.803,356.674,147.534,358.59,147.534z"/>
<path d="M504.515,282.315H357.482c3.831-11.142,5.77-22.803,5.77-34.802c0-59.139-48.113-107.253-107.252-107.253
	c-34.505,0-67.118,16.767-87.24,44.85c-2.408,3.361-1.635,8.036,1.725,10.444c3.36,2.407,8.036,1.635,10.444-1.725
	c17.318-24.17,45.381-38.599,75.07-38.599c50.884,0,92.282,41.398,92.282,92.282c0,12.087-2.279,23.772-6.784,34.802H170.502
	c-4.504-11.029-6.783-22.714-6.783-34.802c0-5.311,0.454-10.635,1.35-15.824c0.704-4.074-2.029-7.946-6.103-8.65
	c-4.068-0.703-7.945,2.03-8.649,6.103c-1.041,6.028-1.568,12.209-1.568,18.371c0,11.999,1.939,23.66,5.77,34.802H7.485
	c-4.135,0-7.485,3.351-7.485,7.485c0,4.134,3.351,7.485,7.485,7.485h158.12c0.003,0,0.005,0,0.007,0l180.775,0.002
	c0.011,0,0.022-0.002,0.034-0.002h158.094c4.135,0,7.485-3.351,7.485-7.485C512,285.667,508.649,282.315,504.515,282.315z"/>
<path d="M476.07,332.641H156.233c-4.134,0-7.485,3.351-7.485,7.485s3.351,7.485,7.485,7.485H476.07c4.134,0,7.485-3.351,7.485-7.485
	S480.205,332.641,476.07,332.641z"/>
<path d="M111.706,332.641H35.93c-4.134,0-7.485,3.351-7.485,7.485s3.351,7.485,7.485,7.485h75.776c4.135,0,7.485-3.351,7.485-7.485
	S115.84,332.641,111.706,332.641z"/>
<path d="M57.388,390.451c0,4.134,3.351,7.485,7.485,7.485h382.253c4.134,0,7.485-3.351,7.485-7.485c0-4.134-3.351-7.485-7.485-7.485
	H64.873C60.739,382.965,57.388,386.317,57.388,390.451z"/>
<path d="M474.074,433.29H37.926c-4.134,0-7.485,3.351-7.485,7.485c0,4.134,3.351,7.485,7.485,7.485h436.148
	c4.134,0,7.485-3.351,7.485-7.485C481.56,436.642,478.208,433.29,474.074,433.29z"/>
<g>
</g>
<g>
</g>
<g>
</g>
<g>
</g>
<g>
</g>
<g>
</g>
<g>
</g>
<g>
</g>
<g>
</g>
<g>
</g>
<g>
</g>
<g>
</g>
<g>
</g>
<g>
</g>
<g>
</g>
</svg>
