<?xml version="1.0" encoding="iso-8859-1"?>
<!-- Generator: Adobe Illustrator 19.0.0, SVG Export Plug-In . SVG Version: 6.00 Build 0)  -->
<svg version="1.1" id="Capa_1" xmlns="http://www.w3.org/2000/svg" xmlns:xlink="http://www.w3.org/1999/xlink" x="0px" y="0px"
	 viewBox="0 0 512.001 512.001" style="enable-background:new 0 0 512.001 512.001;" xml:space="preserve">
<path style="fill:#F96726;" d="M414.164,295.795c0,4.096-0.152,8.151-0.456,12.166h-315.4c-0.314-4.015-0.466-8.07-0.466-12.166
	c0-87.354,70.808-158.161,158.161-158.161C343.347,137.634,414.164,208.441,414.164,295.795z"/>
<path style="fill:#004E86;" d="M26.872,322.264c0-4.815,0.22-9.583,0.661-14.302h456.925c0.455,4.72,0.675,9.488,0.675,14.302
	c0,102.693-102.581,185.935-229.131,185.935C129.467,508.197,26.872,424.957,26.872,322.264z"/>
<path style="fill:#F96726;" d="M97.842,320.127c0-4.096,0.152-8.151,0.456-12.166h315.4c0.314,4.015,0.466,8.07,0.466,12.166
	c0,87.354-70.807,158.161-158.161,158.161C168.66,478.289,97.842,407.481,97.842,320.127z"/>
<path style="fill:#FF9D00;" d="M410.22,307.961H101.786c16.019-70.382,78.979-122.909,154.217-122.909
	C331.231,185.052,394.201,237.579,410.22,307.961z"/>
<path d="M418.016,100.908c1.424,1.195,3.159,1.779,4.884,1.779c2.171,0,4.325-0.925,5.829-2.716l65.171-77.667
	c2.7-3.217,2.28-8.013-0.937-10.712c-3.217-2.7-8.013-2.279-10.712,0.938l-65.171,77.667
	C414.379,93.413,414.799,98.209,418.016,100.908z"/>
<path d="M504.396,300.357h-82.698c0.041-1.515,0.069-3.034,0.069-4.562c0-7.204-0.464-14.303-1.361-21.268l85.307-15.043
	c4.135-0.729,6.897-4.673,6.167-8.808c-0.73-4.136-4.676-6.895-8.808-6.167l-85.308,15.043c-3.151-14.072-8.094-27.473-14.58-39.952
	l105.011-60.628c3.637-2.1,4.883-6.75,2.783-10.387c-2.099-3.638-6.752-4.883-10.387-2.783l-105.026,60.637
	c-7.914-12.317-17.412-23.523-28.205-33.329l42.474-50.619c2.7-3.217,2.28-8.013-0.937-10.712c-3.218-2.7-8.012-2.279-10.712,0.937
	l-42.539,50.696c-10.978-8.283-23.014-15.234-35.867-20.612l46.873-128.786c1.437-3.946-0.599-8.31-4.544-9.746
	c-3.948-1.438-8.311,0.598-9.746,4.544l-46.867,128.767c-13.323-4.177-27.367-6.708-41.89-7.367L263.602,11.41
	c0-4.199-3.404-7.604-7.604-7.604c-4.2,0-7.604,3.405-7.604,7.604l0.001,118.801c-14.523,0.659-28.567,3.191-41.89,7.368
	L159.637,8.809c-1.437-3.946-5.798-5.983-9.746-4.544c-3.946,1.437-5.981,5.799-4.544,9.746l46.876,128.788
	c-13.576,5.681-26.239,13.117-37.707,22.025L28.238,14.332c-2.7-3.217-7.496-3.637-10.712-0.938
	c-3.217,2.7-3.637,7.495-0.937,10.712L142.943,174.69c-10.089,9.425-19.011,20.084-26.504,31.748l-105.032-60.64
	c-3.638-2.101-8.287-0.854-10.387,2.783s-0.854,8.287,2.783,10.387l105.016,60.63c-6.487,12.479-11.429,25.88-14.58,39.951
	L8.926,244.508c-4.132-0.731-8.079,2.032-8.808,6.168c-0.729,4.136,2.033,8.079,6.168,8.808l85.313,15.043
	c-0.896,6.965-1.361,14.063-1.361,21.268c0,1.521,0.027,3.043,0.068,4.562H7.609c-4.199,0-7.604,3.405-7.604,7.604
	c0,4.199,3.405,7.604,7.604,7.604h496.788c4.2,0,7.604-3.405,7.604-7.604C512.001,303.762,508.597,300.357,504.396,300.357z
	 M105.446,295.795c0-83.017,67.54-150.557,150.557-150.557c18.037,0,35.343,3.192,51.385,9.034c0.036,0.014,0.07,0.031,0.106,0.045
	c0.008,0.003,0.026,0.003,0.035,0.005c57.718,21.087,99.03,76.546,99.03,141.472c0,1.531-0.042,3.049-0.087,4.562H105.531
	C105.486,298.837,105.446,297.316,105.446,295.795z"/>
<path d="M432.413,327.497H223.15c-4.199,0-7.604,3.405-7.604,7.604s3.405,7.604,7.604,7.604h209.262c4.2,0,7.604-3.405,7.604-7.604
	S436.613,327.497,432.413,327.497z"/>
<path d="M200.336,335.101c0-4.199-3.405-7.604-7.604-7.604H79.593c-4.199,0-7.604,3.405-7.604,7.604s3.405,7.604,7.604,7.604h113.14
	C196.932,342.705,200.336,339.3,200.336,335.101z"/>
<path d="M418.219,355.885H355.45c-4.2,0-7.604,3.405-7.604,7.604c0,4.199,3.404,7.604,7.604,7.604h62.769
	c4.2,0,7.604-3.405,7.604-7.604C425.822,359.29,422.419,355.885,418.219,355.885z"/>
<path d="M332.636,363.489c0-4.199-3.404-7.604-7.604-7.604H93.787c-4.199,0-7.604,3.405-7.604,7.604
	c0,4.199,3.405,7.604,7.604,7.604h231.246C329.233,371.093,332.636,367.688,332.636,363.489z"/>
<path d="M377.664,393.399H134.34c-4.199,0-7.604,3.405-7.604,7.604s3.405,7.604,7.604,7.604h243.325c4.2,0,7.604-3.405,7.604-7.604
	S381.865,393.399,377.664,393.399z"/>
<path d="M331.537,445.105H180.468c-4.199,0-7.604,3.405-7.604,7.604s3.405,7.604,7.604,7.604h151.069c4.2,0,7.604-3.405,7.604-7.604
	S335.738,445.105,331.537,445.105z"/>
<g>
</g>
<g>
</g>
<g>
</g>
<g>
</g>
<g>
</g>
<g>
</g>
<g>
</g>
<g>
</g>
<g>
</g>
<g>
</g>
<g>
</g>
<g>
</g>
<g>
</g>
<g>
</g>
<g>
</g>
</svg>
