<?xml version="1.0" encoding="iso-8859-1"?>
<!-- Generator: Adobe Illustrator 19.0.0, SVG Export Plug-In . SVG Version: 6.00 Build 0)  -->
<svg version="1.1" id="Capa_1" xmlns="http://www.w3.org/2000/svg" xmlns:xlink="http://www.w3.org/1999/xlink" x="0px" y="0px"
	 viewBox="0 0 512 512" style="enable-background:new 0 0 512 512;" xml:space="preserve">
<path style="fill:#F9D53D;" d="M418.069,252.689c22.402-8.202,38.391-29.712,38.391-54.957c0-32.312-26.194-58.506-58.506-58.506
	c-28.273,0-51.862,20.054-57.318,46.715l25.177,66.277L418.069,252.689z"/>
<path style="fill:#EAC321;" d="M456.455,197.73c0,25.25-15.987,46.759-38.386,54.963l-24.16-0.22
	c19.888-9.334,33.654-29.542,33.654-52.962c0-28.562-20.468-52.352-47.53-57.484c5.642-1.821,11.665-2.801,17.917-2.801
	C430.264,139.226,456.455,165.417,456.455,197.73z"/>
<path style="fill:#A6E6FD;" d="M376.492,242.419c-3.668,0-7.283,0.226-10.835,0.656c-13.714-67.633-73.499-118.543-145.179-118.543
	c-81.815,0-148.139,66.324-148.139,148.139c0,2.969,0.098,5.914,0.27,8.841c-36.353,2.385-65.106,32.608-65.106,69.565
	c0,38.513,31.221,69.735,69.734,69.735c0.819,0,297.382,0,299.255,0c49.261,0,89.196-39.934,89.196-89.196
	C465.689,282.353,425.754,242.419,376.492,242.419z"/>
<path style="fill:#8CD9ED;" d="M465.689,331.616c0,47.51-37.145,86.346-83.975,89.037c15.857-16.087,25.631-38.186,25.631-62.556
	c0-49.27-39.936-89.197-89.197-89.197c-2.203,0-4.384,0.079-6.544,0.236c-2.458,0.178-4.67-1.495-5.232-3.895
	c-15.333-65.47-74.09-114.229-144.238-114.229c-10.484,0-20.709,1.09-30.573,3.161c24.77-18.618,55.553-29.642,88.917-29.642
	c71.68,0,131.464,50.911,145.18,118.549c3.551-0.43,7.163-0.66,10.834-0.66C425.752,242.419,465.689,282.355,465.689,331.616z"/>
<path d="M433.343,253.443c18.736-11.952,30.621-32.912,30.621-55.711c0-36.398-29.612-66.009-66.009-66.009
	c-26.224,0-49.586,15.652-60.102,38.761c-5.569-6.403-11.672-12.373-18.267-17.826c-27.79-22.975-62.988-35.629-99.107-35.629
	c-49.865,0-97.076,24.171-126.292,64.658c-2.425,3.359-1.667,8.05,1.694,10.475c3.359,2.426,8.05,1.668,10.475-1.694
	c26.403-36.588,69.065-58.432,114.123-58.432c66.64,0,124.604,47.327,137.826,112.53c0.777,3.834,4.365,6.431,8.255,5.957
	c3.301-0.399,6.645-0.602,9.934-0.602c45.046,0,81.694,36.647,81.694,81.693s-36.648,81.693-81.694,81.693h-35.457
	c-4.144,0-7.503,3.358-7.503,7.503c0,4.144,3.359,7.503,7.503,7.503h35.457c53.321,0,96.7-43.379,96.7-96.699
	C473.192,299.526,457.477,271.043,433.343,253.443z M376.492,234.916c-1.646,0-3.301,0.043-4.958,0.128
	c-4.508-18.11-12.292-35.253-22.833-50.568c5.918-22.044,26.155-37.747,49.253-37.747c28.124,0,51.003,22.88,51.003,51.003
	c0,20.278-12.161,38.68-30.563,46.741C405.71,238.35,391.494,234.916,376.492,234.916z"/>
<path d="M297.267,413.308H77.237c-34.314,0-62.231-27.917-62.231-62.232c0-17.248,8.275-35.193,21.238-46.535
	C46.488,295.578,59.529,290.07,73.099,289c0.013-0.001,0.025-0.003,0.037-0.004c1.357-0.089,2.721-0.15,4.1-0.15
	c15.309,0,30.022,5.608,41.429,15.793c3.092,2.76,7.835,2.49,10.594-0.6c2.76-3.091,2.491-7.834-0.6-10.594
	c-13.509-12.062-30.754-18.938-48.809-19.546c-0.004-0.409-0.009-0.819-0.009-1.227c0-15.307,2.441-30.354,7.258-44.72
	c1.317-3.93-0.801-8.182-4.73-9.499c-3.933-1.317-8.182,0.8-9.499,4.729c-5.332,15.908-8.035,32.559-8.035,49.49
	c0,0.722,0.005,1.446,0.016,2.174c-21.811,3.531-43.347,18.59-54.47,37.887C3.687,324.347,0,337.657,0,351.077
	c0,42.589,34.648,77.238,77.237,77.238h220.03c4.145,0,7.503-3.359,7.503-7.503C304.771,416.667,301.411,413.308,297.267,413.308z"
	/>
<path d="M397.953,123.702c4.145,0,7.503-3.358,7.503-7.503v-25.01c0-4.145-3.358-7.503-7.503-7.503s-7.503,3.358-7.503,7.503v25.01
	C390.45,120.344,393.809,123.702,397.953,123.702z"/>
<path d="M334.994,145.386c1.466,1.465,3.386,2.197,5.306,2.197c1.92,0,3.841-0.732,5.306-2.197c2.93-2.931,2.93-7.681,0-10.611
	l-17.685-17.685c-2.931-2.929-7.681-2.929-10.611,0c-2.93,2.931-2.93,7.681,0,10.611L334.994,145.386z"/>
<path d="M460.913,250.08c-2.931-2.929-7.681-2.929-10.611,0c-2.93,2.931-2.93,7.681,0,10.611l17.685,17.685
	c1.466,1.465,3.386,2.197,5.306,2.197s3.841-0.732,5.306-2.197c2.93-2.931,2.93-7.681,0-10.611L460.913,250.08z"/>
<path d="M504.497,190.229h-25.01c-4.145,0-7.503,3.358-7.503,7.503s3.358,7.503,7.503,7.503h25.01c4.145,0,7.503-3.358,7.503-7.503
	C512,193.589,508.642,190.229,504.497,190.229z"/>
<path d="M455.607,147.583c1.92,0,3.841-0.732,5.306-2.197l17.685-17.685c2.93-2.931,2.93-7.681,0-10.611
	c-2.931-2.929-7.681-2.929-10.611,0l-17.685,17.685c-2.93,2.931-2.93,7.681,0,10.611
	C451.766,146.851,453.687,147.583,455.607,147.583z"/>
<g>
</g>
<g>
</g>
<g>
</g>
<g>
</g>
<g>
</g>
<g>
</g>
<g>
</g>
<g>
</g>
<g>
</g>
<g>
</g>
<g>
</g>
<g>
</g>
<g>
</g>
<g>
</g>
<g>
</g>
</svg>
