<?xml version="1.0" encoding="iso-8859-1"?>
<!-- Generator: Adobe Illustrator 19.0.0, SVG Export Plug-In . SVG Version: 6.00 Build 0)  -->
<svg version="1.1" id="Capa_1" xmlns="http://www.w3.org/2000/svg" xmlns:xlink="http://www.w3.org/1999/xlink" x="0px" y="0px"
	 viewBox="0 0 511.999 511.999" style="enable-background:new 0 0 511.999 511.999;" xml:space="preserve">
<path style="fill:#A6E6FD;" d="M119.944,404.172c0-0.012,0.001-0.023,0.001-0.035c0-21.332-17.293-38.625-38.625-38.625
	s-38.625,17.293-38.625,38.625c0,0.012,0.001,0.023,0.001,0.035c-19.467,0.727-35.168,16.865-35.168,36.502l0,0
	c0,20.095,16.442,36.537,36.537,36.537h74.511c20.095,0,36.537-16.442,36.537-36.537l0,0
	C155.113,421.037,139.411,404.899,119.944,404.172z"/>
<path style="fill:#8DD0E2;" d="M155.108,440.67c0,20.104-16.441,36.545-36.535,36.545H44.069c-10.047,0-19.191-4.115-25.815-10.73
	c-6.092-6.102-10.067-14.353-10.649-23.466c6.223,4.888,14.042,7.819,22.523,7.819h74.515c20.094,0,36.535-16.441,36.535-36.535
	c0-0.793-0.03-1.576-0.08-2.349c1.315,1.044,2.569,2.168,3.734,3.372C151.183,421.911,155.108,430.853,155.108,440.67z"/>
<circle style="fill:#F9D53D;" cx="255.44" cy="212.07" r="100.33"/>
<path style="fill:#EAC321;" d="M355.777,212.077c0,55.404-44.926,100.33-100.33,100.33c-34.357,0-64.678-17.264-82.755-43.591
	c14.152,7.638,30.342,11.964,47.535,11.964c55.414,0,100.33-44.916,100.33-100.33c0-21.078-6.494-40.62-17.595-56.759
	C334.409,140.624,355.777,173.856,355.777,212.077z"/>
<path style="fill:#A6E6FD;" d="M450.412,238.203c0-0.018,0.001-0.036,0.001-0.054c0-32.791-26.582-59.373-59.373-59.373
	s-59.373,26.582-59.373,59.373c0,0.018,0.001,0.036,0.001,0.054c-29.924,1.118-54.06,25.925-54.06,56.11l0,0
	c0,30.89,25.274,56.164,56.164,56.164h114.536c30.89,0,56.163-25.274,56.163-56.164l0,0
	C504.472,264.128,480.336,239.321,450.412,238.203z"/>
<path style="fill:#8DD0E2;" d="M504.476,294.31c0,30.894-25.273,56.167-56.167,56.167H333.776c-15.447,0-29.489-6.313-39.666-16.501
	c-6.203-6.193-10.97-13.821-13.74-22.332c9.103,6.383,20.164,10.137,32.068,10.137H426.98c30.884,0,56.157-25.273,56.157-56.167
	c0-6.042-0.964-11.874-2.75-17.334c2.981,2.098,5.761,4.466,8.28,7.076C498.443,265.474,504.476,279.225,504.476,294.31z"/>
<path d="M255.445,73.697c4.158,0,7.528-3.37,7.528-7.528V34.787c0-4.157-3.37-7.528-7.528-7.528c-4.157,0-7.528,3.37-7.528,7.528
	V66.17C247.917,70.327,251.287,73.697,255.445,73.697z"/>
<path d="M255.445,350.45c-4.157,0-7.528,3.37-7.528,7.528v31.383c0,4.157,3.37,7.528,7.528,7.528c4.158,0,7.528-3.37,7.528-7.528
	v-31.383C262.973,353.821,259.603,350.45,255.445,350.45z"/>
<path d="M146.952,114.227c1.47,1.47,3.396,2.205,5.323,2.205c1.926,0,3.853-0.735,5.323-2.205c2.94-2.94,2.94-7.706,0-10.646
	L135.407,81.39c-2.939-2.939-7.706-2.939-10.646,0c-2.94,2.94-2.94,7.706,0,10.646L146.952,114.227z"/>
<path d="M78.158,219.602h31.383c4.157,0,7.528-3.37,7.528-7.528c0-4.157-3.37-7.528-7.528-7.528H78.158
	c-4.157,0-7.528,3.37-7.528,7.528C70.63,216.231,74,219.602,78.158,219.602z"/>
<path d="M130.084,344.962c1.926,0,3.853-0.735,5.323-2.205l22.191-22.191c2.94-2.94,2.94-7.706,0-10.646
	c-2.939-2.939-7.706-2.939-10.646,0l-22.191,22.191c-2.94,2.94-2.94,7.706,0,10.646
	C126.231,344.227,128.157,344.962,130.084,344.962z"/>
<path d="M358.614,116.432c1.926,0,3.853-0.735,5.323-2.205l22.191-22.191c2.939-2.939,2.939-7.706,0-10.646
	c-2.94-2.94-7.705-2.94-10.647,0l-22.191,22.191c-2.94,2.94-2.94,7.706,0,10.646C354.761,115.697,356.687,116.432,358.614,116.432z"
	/>
<path d="M126.985,397.415c-3.265-22.273-22.499-39.431-45.665-39.431s-42.4,17.158-45.665,39.431
	C15.193,401.329,0,419.182,0,440.674c0,24.298,19.767,44.065,44.065,44.065h74.511c24.298,0,44.065-19.767,44.065-44.065
	C162.64,419.182,147.447,401.329,126.985,397.415z M118.576,469.683H44.065c-15.996,0-29.009-13.013-29.009-29.009
	c0-15.404,12.526-28.404,27.921-28.98c4.046-0.151,7.247-3.474,7.247-7.522c0-0.036,0-0.074-0.001-0.112
	c0.043-17.111,13.976-31.02,31.098-31.02c17.121,0,31.055,13.909,31.097,31.02c0,0.038-0.001,0.076-0.001,0.112
	c0,4.048,3.201,7.371,7.247,7.522c15.396,0.575,27.921,13.575,27.921,28.98C147.585,456.67,134.572,469.683,118.576,469.683z"/>
<path d="M494.077,250.127c-9.897-10.241-22.656-16.781-36.482-18.813c-3.434-33.69-31.972-60.066-66.554-60.066
	c-11.869,0-23.026,3.108-32.701,8.552c-13.753-43.751-54.663-75.585-102.895-75.585c-32.341,0-62.697,14.33-83.283,39.315
	c-2.644,3.209-2.185,7.953,1.023,10.597c3.209,2.644,7.954,2.186,10.597-1.023c17.716-21.502,43.836-33.833,71.663-33.833
	c43.313,0,79.775,29.833,89.957,70.025c-11.505,10.755-19.232,25.503-20.915,42.019c-13.826,2.032-26.586,8.572-36.483,18.813
	c-11.557,11.96-17.923,27.652-17.923,44.186c0,3.155,0.239,6.254,0.684,9.287c-4.986,0.834-10.101,1.279-15.32,1.279
	c-51.172,0-92.804-41.632-92.804-92.804c0-7.635,0.928-15.224,2.759-22.555c1.007-4.034-1.447-8.12-5.48-9.127
	c-4.036-1.007-8.121,1.447-9.128,5.48c-2.128,8.523-3.207,17.339-3.207,26.202c0,59.474,48.386,107.859,107.86,107.859
	c6.587,0,13.034-0.605,19.298-1.742c9.468,23.319,32.352,39.812,59.029,39.812h33.306c4.158,0,7.528-3.37,7.528-7.528
	c0-4.158-3.37-7.528-7.528-7.528h-33.306c-26.818,0-48.635-21.818-48.635-48.636c0-25.827,21-47.623,46.813-48.588
	c4.045-0.151,7.246-3.474,7.246-7.522c0-0.034,0-0.076-0.001-0.117c0.034-28.559,23.279-51.783,51.845-51.783
	s51.811,23.223,51.845,51.782c-0.001,0.042-0.001,0.083-0.001,0.118c0,4.048,3.201,7.371,7.246,7.522
	c25.813,0.964,46.813,22.761,46.813,48.588c0,26.818-21.818,48.636-48.636,48.636h-35.729c-4.158,0-7.528,3.37-7.528,7.528
	c0,4.157,3.37,7.528,7.528,7.528h35.729c35.12,0,63.692-28.572,63.692-63.691C512,277.779,505.635,262.087,494.077,250.127z"/>
<g>
</g>
<g>
</g>
<g>
</g>
<g>
</g>
<g>
</g>
<g>
</g>
<g>
</g>
<g>
</g>
<g>
</g>
<g>
</g>
<g>
</g>
<g>
</g>
<g>
</g>
<g>
</g>
<g>
</g>
</svg>
