<?xml version="1.0" encoding="iso-8859-1"?>
<!-- Generator: Adobe Illustrator 19.0.0, SVG Export Plug-In . SVG Version: 6.00 Build 0)  -->
<svg version="1.1" id="Capa_1" xmlns="http://www.w3.org/2000/svg" xmlns:xlink="http://www.w3.org/1999/xlink" x="0px" y="0px"
	 viewBox="0 0 432 432" style="enable-background:new 0 0 432 432;" xml:space="preserve">
<g>
	<g>
		<path d="M380.288,11.456c0-0.512-0.512-1.024-1.024-1.024l-7.168-1.024l-3.072-6.656c0-0.512-0.512-0.512-1.024-0.512
			c-0.512,0-1.024,0.512-1.024,0.512l-3.584,6.656l-7.168,1.024c-0.512,0-1.024,0.512-1.024,1.024c0,0.512,0,1.024,0.512,1.536
			l4.096,5.12l-1.536,7.168c0,0.512,0,1.024,0.512,1.024c0.512,0.512,1.024,0.512,1.536,0l6.656-3.584l6.656,3.584h0.512
			c0.512,0,0.512,0,0.512,0c0.512-0.512,0.512-0.512,0.512-1.024l-1.024-7.168l5.632-5.12
			C380.288,12.48,380.288,11.968,380.288,11.456z"/>
	</g>
</g>
<g>
	<g>
		<path d="M132.48,63.68l-6.656-3.584l-1.024-7.168c0-0.512-0.512-1.024-1.024-1.024s-1.024,0-1.536,0.512l-5.12,5.632l-7.168-1.024
			c-0.512,0-1.024,0-1.024,0.512c-0.512,0.512-0.512,1.024,0,1.536l3.584,5.632l-3.584,6.656c0,0.512,0,1.024,0,1.536
			c0.512,0.512,1.024,0.512,1.024,0.512l7.168-1.536l5.12,5.12c0,0,0.512,0.512,1.024,0.512h0.512c0.512,0,1.024-0.512,1.024-1.024
			l1.024-7.168l6.656-3.584c0.512,0,0.512-0.512,0.512-1.024C132.992,64.192,132.48,63.68,132.48,63.68z"/>
	</g>
</g>
<g>
	<g>
		<path d="M102.272,317.12l-6.656-3.072l-1.024-8.192c0-0.512-0.512-1.024-1.024-1.024s-1.024,0-1.536,0.512l-5.12,5.632
			l-7.168-1.024c-0.512,0-1.024,0-1.024,0.512c-0.512,0.512-0.512,1.024,0,1.536l3.584,6.656l-3.584,6.656c0,0.512,0,1.024,0,1.536
			c0.512,0.512,1.024,0.512,1.024,0.512l7.168-1.536l5.12,5.12c0.512-0.512,1.024,0,1.536,0c1.024,0,1.024-0.512,1.024-1.024
			l1.024-7.168l6.656-3.584c0.512,0,0.512-0.512,0.512-1.024C102.784,317.632,102.272,317.12,102.272,317.12z"/>
	</g>
</g>
<g>
	<g>
		<path d="M431.488,284.352l-7.168-4.096l-0.512-7.68c0-0.512-0.512-1.024-0.512-1.024c-0.512,0-1.024,0-1.536,0l-5.632,4.608
			l-7.168-1.536c-0.512,0-1.024,0-1.536,0.512c-0.512,0.512-0.512,1.024,0,1.536l2.56,6.656l-4.096,6.144
			c-0.512,0.512-0.512,1.024,0,1.536c0,0.512,0.512,0.512,1.024,0.512l7.68-0.512l4.608,5.632c0,0.512,0.512,0.512,1.024,0.512
			c0,0,0,0,0.512,0c0.512,0,1.024-0.512,1.024-1.024l2.048-7.168l7.168-2.56c0.512,0,1.024-0.512,1.024-1.024
			C432,284.864,432,284.352,431.488,284.352z"/>
	</g>
</g>
<g>
	<g>
		<g>
			<path d="M25.472,242.88l-0.381,0.136C25.098,243.133,25.223,243.128,25.472,242.88z"/>
			<path d="M25.472,242.368c0-0.512,0-1.024-0.512-1.024l-6.144-4.096l-0.512-7.68c0-0.512-0.512-1.024-0.512-1.024
				c-0.512,0-1.024,0-1.536,0l-5.632,4.608l-7.168-2.048c-0.512,0-1.024,0-1.536,0.512c-0.512,0.512-0.512,1.024,0,1.536l2.56,6.656
				l-4.096,6.144c-0.512,0.512-0.512,1.024,0,1.536C0.384,248,0.896,248,1.408,248l7.68-0.512l4.608,5.632
				c0,0.512,0.512,0.512,1.024,0.512c0,0,0,0,0.512,0s1.024-0.512,1.024-1.024l2.048-7.168l6.787-2.424
				C25.083,242.892,25.209,242.631,25.472,242.368z"/>
		</g>
	</g>
</g>
<g>
	<g>
		<path d="M118.144,394.944c-0.512,0-1.024-0.512-1.536-0.512l-7.168-1.536l-3.072-6.656c0-0.512-0.512-0.512-1.024-0.512
			s-1.024,0.512-1.024,0.512l-3.584,6.656l-7.168,1.024c-0.512,0-1.024,0.512-1.024,1.024c0,0.512,0,1.024,0.512,1.536l5.12,5.12
			l-2.048,7.168c0,0.512,0,1.024,0.512,1.024c0.512,0.512,1.024,0.512,1.536,0l6.656-3.584l6.656,3.584H112c0.512,0,0.512,0,0.512,0
			c0.512-0.512,0.512-0.512,0.512-1.024L112,401.6l5.632-5.12C118.144,395.968,118.144,395.456,118.144,394.944z"/>
	</g>
</g>
<g>
	<g>
		<path d="M263.552,2.752c-3.072,0-5.12,2.048-5.12,5.12v143.872c0,3.072,2.048,5.12,5.12,5.12c3.072,0,5.12-2.048,5.12-5.12V7.872
			C268.672,4.8,266.624,2.752,263.552,2.752z"/>
	</g>
</g>
<g>
	<g>
		<path d="M263.552,228.544c-3.072,0-5.12,2.048-5.12,5.12v95.744c0,3.072,2.048,5.12,5.12,5.12c3.072,0,5.12-2.048,5.12-5.12
			v-95.744C268.672,230.592,266.624,228.544,263.552,228.544z"/>
	</g>
</g>
<g>
	<g>
		<path d="M250.752,132.8l-21.504-59.904c-1.024-2.56-4.096-4.096-6.656-3.072c-2.048,1.024-3.584,3.584-2.56,6.656l21.504,59.904
			c0.512,2.048,2.56,3.584,4.608,3.584c0.512,0,1.024,0,1.536-0.512C250.24,138.432,251.776,135.36,250.752,132.8z"/>
	</g>
</g>
<g>
	<g>
		<path d="M222.592,55.488l-7.68-18.944c-1.024-2.56-4.096-4.096-6.656-3.072s-4.096,4.096-3.072,6.656l7.68,19.456
			c1.024,2.048,2.56,3.072,4.608,3.072c0.512,0,1.024,0,2.048-0.512C222.08,61.12,223.616,58.048,222.592,55.488z"/>
	</g>
</g>
<g>
	<g>
		<path d="M337.28,378.56l-59.392-167.424c-1.024-2.56-4.096-4.096-6.656-3.072c-2.56,1.024-4.096,4.096-3.072,6.656l59.904,167.424
			c0.512,2.048,2.56,3.584,4.608,3.584c0.512,0,1.024,0,1.536-0.512C336.768,384.192,338.304,381.12,337.28,378.56z"/>
	</g>
</g>
<g>
	<g>
		<path d="M256.384,167.104l-92.16-112.128c-2.048-2.048-5.12-2.56-7.168-0.512c-2.048,2.048-2.56,5.12-0.512,7.168l92.16,111.616
			c1.024,1.024,2.56,2.048,4.096,2.048c1.024,0,2.048-0.512,3.072-1.024C257.92,172.224,258.432,169.152,256.384,167.104z"/>
	</g>
</g>
<g>
	<g>
		<path d="M430.464,383.68L298.368,222.912c-2.048-2.048-5.12-2.56-7.168-0.512c-2.048,2.048-2.56,5.12-0.512,7.168l132.096,160.768
			c1.024,1.024,2.56,2.048,4.096,2.048c1.024,0,2.048-0.512,3.072-1.024C432,388.8,432.512,385.728,430.464,383.68z"/>
	</g>
</g>
<g>
	<g>
		<path d="M219.008,150.208L75.648,65.216c-2.56-1.536-5.632-0.512-7.168,1.536c-1.024,2.56-0.512,5.632,2.048,7.168l142.848,85.504
			c1.024,0.512,1.536,0.512,2.56,0.512c1.536,0,3.584-1.024,4.608-2.56C222.08,154.816,221.056,151.744,219.008,150.208z"/>
	</g>
</g>
<g>
	<g>
		<path d="M389.504,253.632l-114.688-68.096c-2.56-1.536-5.632-0.512-7.168,1.536c-1.536,3.072-0.512,6.144,1.536,7.168
			l114.688,68.608c1.024,0.512,1.536,0.512,2.56,0.512c1.536,0,3.584-1.024,4.608-2.56
			C392.576,258.24,391.552,255.168,389.504,253.632z"/>
	</g>
</g>
<g>
	<g>
		<path d="M217.472,169.152L11.648,128.704c-2.56-0.512-5.632,1.024-6.144,4.096c-0.512,2.56,1.024,5.632,4.096,6.144
			l205.824,40.448c0.512,0,0.512,0,1.024,0c2.56,0,4.608-1.536,5.12-4.096C222.08,172.736,220.544,169.664,217.472,169.152z"/>
	</g>
</g>
<g>
	<g>
		<path d="M414.592,209.088l-99.328-19.456c-3.072-0.512-5.632,1.536-6.144,4.096c-0.512,2.56,1.024,5.632,4.096,6.144
			l99.328,19.456c0.512,0,0.512,0,1.024,0c2.56,0,4.608-1.536,5.12-4.096C419.2,212.672,417.664,209.6,414.592,209.088z"/>
	</g>
</g>
<g>
	<g>
		<path d="M369.024,167.616c-0.512-2.56-3.072-4.608-5.632-4.096l-69.632,10.24c-2.56,0.512-4.608,3.072-4.096,5.632
			c0.512,2.56,2.56,4.608,5.12,4.608h0.512l69.632-10.24C367.488,172.736,369.536,170.176,369.024,167.616z"/>
	</g>
</g>
<g>
	<g>
		<path d="M242.56,186.048c-0.512-2.56-3.072-4.608-5.632-4.096l-72.192,10.752c-2.56,0.512-4.608,3.072-4.096,5.632
			c0.512,2.56,2.56,4.608,5.12,4.608h0.512l72.192-11.264C241.024,191.168,243.072,188.608,242.56,186.048z"/>
	</g>
</g>
<g>
	<g>
		<path d="M394.624,163.52c-0.512-2.56-3.072-4.608-5.632-4.096l-6.144,1.024c-2.56,0.512-4.608,3.072-4.096,5.632
			c0.512,2.56,2.56,4.608,5.12,4.608c0-0.512,0.512-0.512,0.512-0.512l6.144-1.024C393.088,168.64,395.136,166.08,394.624,163.52z"
			/>
	</g>
</g>
<g>
	<g>
		<path d="M147.84,200.384c-0.512-2.56-3.072-4.608-5.632-4.096l-9.728,1.024c-2.56,0.512-4.608,3.072-4.096,5.632
			c0.512,2.56,2.56,4.608,5.12,4.608h0.512l9.728-1.536C146.304,205.504,148.352,202.944,147.84,200.384z"/>
	</g>
</g>
<g>
	<g>
		<path d="M411.008,103.616c-1.536-2.56-4.608-3.584-7.168-2.048l-95.744,51.712c-2.56,1.536-3.072,4.608-2.048,7.168
			c1.024,1.536,2.56,2.56,4.608,2.56c1.024,0,1.536,0,2.56-0.512l95.744-51.712C411.52,109.248,412.544,106.176,411.008,103.616z"/>
	</g>
</g>
<g>
	<g>
		<path d="M225.664,204.992c-1.536-2.56-4.608-3.584-7.168-2.048l-50.176,26.624c-2.56,1.536-3.584,4.608-2.048,7.168
			c1.024,1.536,2.56,2.56,4.608,2.56c1.024,0,1.536,0,2.56-0.512l50.176-26.624C226.176,210.624,227.2,207.552,225.664,204.992z"/>
	</g>
</g>
<g>
	<g>
		<path d="M78.72,280.256c-1.536-2.56-4.608-3.584-7.168-2.048l-50.176,26.624c-2.56,1.536-3.584,4.608-2.048,7.168
			c1.024,1.536,2.56,2.56,4.608,2.56c1.024,0,1.536,0,2.56-0.512l50.176-26.624C79.232,285.376,80.256,282.304,78.72,280.256z"/>
	</g>
</g>
<g>
	<g>
		<path d="M360.832,74.944c-2.048-2.048-5.12-1.536-7.168,0.512l-83.456,92.16c-2.048,2.048-1.536,5.12,0.512,7.168
			c1.024,1.024,2.048,1.536,3.584,1.536c1.536,0,2.56-0.512,3.584-1.536l83.456-92.672C363.392,80.064,362.88,76.992,360.832,74.944
			z"/>
	</g>
</g>
<g>
	<g>
		<path d="M258.944,188.096c-2.048-2.048-5.12-1.536-7.168,0.512l-56.832,62.464c-2.048,2.048-1.536,5.12,0.512,7.168
			c1.024,1.024,2.048,1.536,3.584,1.536s2.56-0.512,3.584-1.536l56.832-62.976C260.992,193.216,260.992,189.632,258.944,188.096z"/>
	</g>
</g>
<g>
	<g>
		<path d="M131.968,325.824c-2.048-2.048-5.12-2.048-7.168,0l-34.816,38.4c-2.048,2.048-1.536,5.12,0.512,7.168
			c1.024,1.024,2.048,1.536,3.584,1.536c1.536,0,2.56-0.512,3.584-1.536l34.816-38.4
			C134.528,330.944,134.016,327.872,131.968,325.824z"/>
	</g>
</g>
<g>
	<g>
		<path d="M383.872,49.344c-2.048-2.048-5.12-1.536-7.168,0.512l-9.216,9.728c-2.048,2.048-1.536,5.12,0.512,7.168
			c1.024,1.024,2.048,1.536,3.584,1.536s2.56-0.512,3.584-1.536l9.216-10.24C386.432,54.464,385.92,51.392,383.872,49.344z"/>
	</g>
</g>
<g>
	<g>
		<path d="M327.04,28.352c-2.56-1.024-5.632,0-6.656,2.56L286.08,114.88c-1.024,2.56,0,5.632,2.56,6.656
			c0.512,0.512,1.536,0.512,2.048,0.512c2.048,0,4.096-1.024,4.608-3.072L329.6,35.008C330.624,32.448,329.6,29.376,327.04,28.352z"
			/>
	</g>
</g>
<g>
	<g>
		<path d="M253.824,213.696c-2.56-1.536-5.632,0-6.656,2.56l-30.208,73.728c-1.024,2.56,0,5.632,2.56,6.656
			c0.512,0.512,1.536,0.512,2.048,0.512c2.048,0,4.096-1.024,4.608-3.072l30.208-73.728
			C257.408,217.792,256.384,214.72,253.824,213.696z"/>
	</g>
</g>
<g>
	<g>
		<path d="M183.168,385.728c-2.56-1.024-5.632,0-6.656,2.56l-13.824,34.304c-1.024,2.56,0,5.632,2.56,6.656
			c0.512,0.512,1.536,0.512,2.048,0.512c2.048,0,4.096-1.024,4.608-3.072l13.824-33.792
			C187.264,389.824,185.728,386.752,183.168,385.728z"/>
	</g>
</g>
<g>
	<g>
		<path d="M282.496,410.816l-33.28-33.28l16.896-16.896c2.048-2.048,2.048-5.12,0-7.168L222.08,309.44l-73.216-73.216
			l-35.328-35.328l10.752-10.752c1.536-1.536,2.048-3.072,1.536-5.12c-0.512-2.048-2.048-3.072-4.096-3.584l-91.136-18.944
			c-1.536-0.512-3.584,0-4.608,1.536c-1.024,1.024-1.536,3.072-1.536,4.608l21.504,89.088c0.512,2.048,2.048,3.072,3.584,3.584
			c0.512,0,1.024,0,1.536,0c1.536,0,2.56-0.512,3.584-1.536l10.752-10.752L217.984,401.6c1.024,1.024,2.56,1.536,3.584,1.536
			c1.024,0,2.56-0.512,3.584-1.536l16.896-16.896l33.28,33.28c1.024,1.024,2.56,1.536,3.584,1.536c1.024,0,2.56-0.512,3.584-1.536
			C284.544,415.936,284.544,412.864,282.496,410.816z M72.576,242.368l31.232-31.232l0.512,63.488L72.576,242.368z M102.784,197.312
			l-41.472,41.472l-7.68,7.68l-17.408-72.192l74.24,15.36L102.784,197.312z M114.56,284.864l-0.512-69.12l26.112,26.112l1.024,69.12
			L114.56,284.864z M151.424,321.216l-0.512-69.12l26.112,26.112l0.512,69.12L151.424,321.216z M187.776,358.08l-0.512-69.12
			l26.112,26.112l0.512,69.12L187.776,358.08z M224.64,387.776l-0.512-62.464l31.232,31.232L224.64,387.776z"/>
	</g>
</g>
<g>
</g>
<g>
</g>
<g>
</g>
<g>
</g>
<g>
</g>
<g>
</g>
<g>
</g>
<g>
</g>
<g>
</g>
<g>
</g>
<g>
</g>
<g>
</g>
<g>
</g>
<g>
</g>
<g>
</g>
</svg>
