<svg id="Layer_1_1_" enable-background="new 0 0 64 64" height="512" viewBox="0 0 64 64" width="512" xmlns="http://www.w3.org/2000/svg"><path d="m53 31h-3v-8c0-1.657-1.343-3-3-3h-1v-8c0-2.761-2.239-5-5-5h-18c-2.761 0-5 2.239-5 5v8h-1c-1.657 0-3 1.343-3 3v8h-3c-1.657 0-3 1.343-3 3v23h48v-23c0-1.657-1.343-3-3-3z" fill="#59aae2"/><path d="m36 19.999c0-3.02 1.839-5.735 4.642-6.856l.358-.143v-1c0-.552-.448-1-1-1h-8-8c-.552 0-1 .448-1 1v1l.357.143c2.804 1.121 4.643 3.837 4.643 6.857v3h8z" fill="#cfcfcf"/><path d="m28 29h8v6h-8z" fill="#cfcfcf"/><path d="m38.205 49.573-.709-.827c-.948-1.107-1.358-2.577-1.118-4.014l.622-3.732h-10l.622 3.732c.24 1.438-.17 2.908-1.118 4.014l-.709.827c-1.985 2.315-1.41 5.858 1.205 7.427h10c2.615-1.569 3.19-5.112 1.205-7.427z" fill="#cfcfcf"/><path d="m61 57h-24-10-24v4h58z" fill="#a3a3a3"/><path d="m45.394 41c1.439 0 2.606-1.167 2.606-2.606 0-.871.435-1.685 1.16-2.168l1.84-1.226h-15-8-15l1.84 1.227c.725.483 1.16 1.296 1.16 2.167 0 1.439 1.167 2.606 2.606 2.606h8.394 10z" fill="#cfcfcf"/><path d="m41 29c1.439 0 2.606-1.167 2.606-2.606 0-.871.435-1.685 1.16-2.168l1.84-1.226h-10.606-8-10.606l1.84 1.227c.725.483 1.16 1.297 1.16 2.168 0 1.438 1.167 2.605 2.606 2.605h5 8z" fill="#cfcfcf"/><path d="m32 3-3 3 3 5 3-5z" fill="#cfcfcf"/><path d="m48 36.394c0 1.439-1.167 2.606-2.606 2.606h-8.394-10-8.394c-1.439 0-2.606-1.167-2.606-2.606 0-.505-.16-.981-.424-1.394h-2.576l1.84 1.227c.725.483 1.16 1.296 1.16 2.167 0 1.439 1.167 2.606 2.606 2.606h8.394 10 8.394c1.439 0 2.606-1.167 2.606-2.606 0-.871.435-1.685 1.16-2.168l1.84-1.226h-2.576c-.264.413-.424.89-.424 1.394z" fill="#a3a3a3"/><path d="m43.606 24.394c0 1.439-1.167 2.606-2.606 2.606h-5-8-5c-1.439 0-2.606-1.167-2.606-2.606 0-.505-.16-.981-.424-1.394h-2.576l1.84 1.227c.725.483 1.16 1.297 1.16 2.168 0 1.438 1.167 2.605 2.606 2.605h5 8 5c1.439 0 2.606-1.167 2.606-2.606 0-.871.435-1.685 1.16-2.168l1.84-1.226h-2.576c-.264.413-.424.89-.424 1.394z" fill="#a3a3a3"/><path d="m20.394 26.394c0 1.439 1.167 2.606 2.606 2.606h3c-1.439 0-2.606-1.167-2.606-2.606 0-.871-.435-1.685-1.16-2.168l-1.84-1.226h-3l1.84 1.227c.725.483 1.16 1.296 1.16 2.167z" fill="#a3a3a3"/><path d="m28 29h3v6h-3z" fill="#a3a3a3"/><path d="m28 20v3h3v-3c0-3.02-1.839-5.736-4.643-6.857l-.357-.143v-1c0-.552.448-1 1-1h-3c-.552 0-1 .448-1 1v1l.357.143c2.804 1.121 4.643 3.837 4.643 6.857z" fill="#a3a3a3"/><path d="m19 38.394c0-.871-.435-1.685-1.16-2.168l-1.84-1.226h-3l1.84 1.227c.725.483 1.16 1.296 1.16 2.167 0 1.439 1.167 2.606 2.606 2.606h3c-1.439 0-2.606-1.167-2.606-2.606z" fill="#a3a3a3"/><path d="m28.795 49.573.709-.827c.948-1.107 1.358-2.577 1.118-4.014l-.622-3.732h-3l.622 3.732c.24 1.438-.17 2.908-1.118 4.014l-.709.827c-1.985 2.315-1.41 5.858 1.205 7.427h3c-2.615-1.569-3.19-5.112-1.205-7.427z" fill="#a3a3a3"/><path d="m61 56h-21.567c.442-.681.748-1.451.882-2.273.279-1.726-.212-3.478-1.351-4.804l-.708-.827c-.758-.885-1.083-2.051-.892-3.2l.483-2.896h7.548c1.988 0 3.605-1.617 3.605-3.605 0-.538.268-1.037.715-1.336l1.84-1.227c.366-.244.53-.7.402-1.122s-.517-.71-.957-.71h-14v-4h4c1.988 0 3.605-1.617 3.605-3.605 0-.538.268-1.037.715-1.336l1.84-1.227c.366-.244.53-.7.402-1.122s-.516-.71-.957-.71h-9.605v-2.001c0-2.625 1.575-4.952 4.013-5.928l.357-.143c.381-.151.63-.519.63-.928v-1c0-1.103-.897-2-2-2h-6.234l2.091-3.485c.236-.394.174-.897-.15-1.222l-3-3c-.391-.391-1.023-.391-1.414 0l-3 3c-.324.324-.387.828-.15 1.222l2.091 3.485h-6.234c-1.103 0-2 .897-2 2v1c0 .409.249.777.63.929l.356.143c2.439.974 4.014 3.301 4.014 5.928v2h-9.605c-.44 0-.829.288-.957.71s.036.878.402 1.122l1.84 1.227c.447.299.715.798.715 1.336 0 1.988 1.617 3.605 3.605 3.605h4v4h-14c-.44 0-.829.288-.957.71s.036.878.402 1.122l1.84 1.227c.447.298.715.797.715 1.336 0 1.988 1.617 3.605 3.605 3.605h7.548l.483 2.896c.191 1.149-.134 2.315-.891 3.2l-.709.826c-1.139 1.327-1.63 3.079-1.351 4.805.134.823.44 1.593.882 2.273h-21.567c-.553 0-1 .447-1 1v4c0 .553.447 1 1 1h58c.553 0 1-.447 1-1v-4c0-.553-.447-1-1-1zm-29-51.586 1.741 1.741-1.741 2.902-1.741-2.901zm-8 7.914v-.328h16v.328c-3.047 1.342-5 4.321-5 7.671v2.001h-6v-2c0-3.351-1.952-6.33-5-7.672zm-2.605 14.067c0-.896-.329-1.742-.909-2.395h23.029c-.58.651-.909 1.499-.909 2.395-.001.885-.72 1.605-1.606 1.605h-18c-.886 0-1.605-.72-1.605-1.605zm7.605 3.605h6v4h-6zm-12 8.395c0-.896-.329-1.742-.909-2.395h31.818c-.58.651-.909 1.499-.909 2.395 0 .885-.72 1.605-1.605 1.605h-26.79c-.885 0-1.605-.72-1.605-1.605zm8.66 15.011c-.186-1.144.141-2.303.894-3.183l.71-.827c1.144-1.334 1.634-3.095 1.345-4.829l-.429-2.567h7.639l-.428 2.567c-.289 1.734.201 3.495 1.346 4.829l.709.828c.753.879 1.079 2.038.894 3.182-.171 1.057-.762 1.988-1.634 2.594h-9.412c-.872-.605-1.463-1.537-1.634-2.594zm34.34 6.594h-56v-2h23 10 23z"/><path d="m13 23v5c0 1.103-.897 2-2 2-2.206 0-4 1.794-4 4v14h2v-14c0-1.103.897-2 2-2 2.206 0 4-1.794 4-4v-5c0-1.103.897-2 2-2h6v-2h-6c-2.206 0-4 1.794-4 4z"/><path d="m7 50h2v3h-2z"/><path d="m12 40h2v8h-2z"/><path d="m12 50h2v3h-2z"/><path d="m47 19h-6v2h6c1.103 0 2 .897 2 2v5c0 2.206 1.794 4 4 4 1.103 0 2 .897 2 2v14h2v-14c0-2.206-1.794-4-4-4-1.103 0-2-.897-2-2v-5c0-2.206-1.794-4-4-4z"/><path d="m55 50h2v3h-2z"/><path d="m50 40h2v8h-2z"/><path d="m50 50h2v3h-2z"/><path d="m41 6h-2v2h2c2.206 0 4 1.794 4 4h2c0-3.309-2.691-6-6-6z"/><path d="m45 14h2v2h-2z"/><path d="m23 8h2v-2h-2c-3.309 0-6 2.691-6 6h2c0-2.206 1.794-4 4-4z"/><path d="m17 14h2v2h-2z"/><g fill="#fff"><path d="m47 31.5c-.276 0-.5-.224-.5-.5v-5c0-.276.224-.5.5-.5s.5.224.5.5v5c0 .276-.224.5-.5.5z"/><path d="m45 49.5c-.276 0-.5-.224-.5-.5v-4c0-.276.224-.5.5-.5s.5.224.5.5v4c0 .276-.224.5-.5.5z"/><path d="m45 52.5c-.276 0-.5-.224-.5-.5v-1c0-.276.224-.5.5-.5s.5.224.5.5v1c0 .276-.224.5-.5.5z"/><path d="m19 49.5c-.276 0-.5-.224-.5-.5v-4c0-.276.224-.5.5-.5s.5.224.5.5v4c0 .276-.224.5-.5.5z"/><path d="m19 52.5c-.276 0-.5-.224-.5-.5v-1c0-.276.224-.5.5-.5s.5.224.5.5v1c0 .276-.224.5-.5.5z"/><path d="m17 31.5c-.276 0-.5-.224-.5-.5v-5c0-.276.224-.5.5-.5s.5.224.5.5v5c0 .276-.224.5-.5.5z"/><path d="m43 17.5c-.276 0-.5-.224-.5-.5v-1c0-.276.224-.5.5-.5s.5.224.5.5v1c0 .276-.224.5-.5.5z"/><path d="m21 17.5c-.276 0-.5-.224-.5-.5v-1c0-.276.224-.5.5-.5s.5.224.5.5v1c0 .276-.224.5-.5.5z"/></g></svg>