<svg height="512pt" viewBox="0 -16 512 512" width="512pt" xmlns="http://www.w3.org/2000/svg"><path d="m232.019531 215.113281c0 29.851563-24.199219 54.054688-54.050781 54.054688h-69.246094c-55.90625 0-101.222656 45.316406-101.222656 101.21875 0 55.902343 45.316406 101.222656 101.222656 101.222656h267.53125c70.828125 0 128.246094-57.417969 128.246094-128.25v-77.269531c0-80.765625-65.472656-146.238282-146.238281-146.238282h-30.980469c-52.609375 0-95.261719 42.648438-95.261719 95.261719zm0 0" fill="#cbd359"/><path d="m504.5 266.09375v38.179688c0-80.761719-65.46875-146.242188-146.238281-146.242188h-30.980469c-52.609375 0-95.261719 42.652344-95.261719 95.269531 0 29.851563-24.199219 54.050781-54.050781 54.050781h-69.25c-49.367188 0-90.488281 35.359376-99.410156 82.132813-1.1875-6.183594-1.808594-12.5625-1.808594-19.09375 0-55.90625 45.320312-101.226563 101.21875-101.226563h69.25c29.851562 0 54.050781-24.203124 54.050781-54.050781 0-52.609375 42.652344-95.261719 95.261719-95.261719h30.980469c80.769531 0 146.238281 65.472657 146.238281 146.242188zm0 0" fill="#bec11e"/><path d="m489.15625 161.335938h-28.210938c-3.316406-1.199219-6.890624-1.851563-10.621093-1.851563-17.261719 0-31.253907 13.992187-31.253907 31.253906v93.726563h62.511719v-88.234375c11.441407-.816407 20.46875-10.351563 20.46875-22 0-7.121094-5.773437-12.894531-12.894531-12.894531zm0 0" fill="#50e199"/><path d="m393.570312 147.011719c.417969 2.355469 1.039063 4.628906 1.847657 6.792969.273437.734374.574219 1.460937.886719 2.171874 7.039062 15.792969 24.144531 25.394532 41.933593 22.242188 20.953125-3.714844 34.921875-23.71875 31.210938-44.664062-.308594-1.742188-.730469-3.433594-1.257813-5.082032-.25-.789062-.535156-1.5625-.828125-2.324218-1.078125-2.757813-2.46875-5.34375-4.105469-7.722657-8.300781-12.042969-23.136718-18.804687-38.472656-16.085937-20.539062 3.640625-34.375 22.933594-31.410156 43.433594.054688.40625.121094.816406.195312 1.238281zm0 0" fill="#fecaa8"/><path d="m393.570312 147.011719c.417969 2.355469 1.039063 4.628906 1.847657 6.792969.273437.734374.574219 1.460937.886719 2.171874 8.328124.324219 16.339843-.179687 23.890624-1.519531 26.597657-4.714843 41.648438-18.585937 47.996094-25.984375-.25-.789062-.535156-1.5625-.828125-2.324218-1.078125-2.757813-2.46875-5.347657-4.105469-7.722657-8.300781-12.046875-23.136718-18.804687-38.472656-16.085937-20.539062 3.640625-34.375 22.933594-31.410156 43.429687.054688.410157.121094.820313.195312 1.242188zm0 0" fill="#ffb38c"/><path d="m393.371094 145.769531c50.832031 3.46875 69.886718-27.339843 69.886718-27.339843-8.300781-12.046876-23.136718-18.808594-38.476562-16.089844-20.539062 3.644531-34.375 22.933594-31.410156 43.429687zm0 0" fill="#336686"/><path d="m418.351562 273.109375-39.558593-10.816406c-15.078125 0-27.347657 12.269531-27.347657 27.347656v40.753906c0 7.679688 6.226563 13.902344 13.902344 13.902344 7.679688 0 13.90625-6.222656 13.90625-13.902344v-40.292969l90.144532 23.21875c7.101562 0 12.859374-5.753906 12.859374-12.855468v-27.355469zm0 0" fill="#2081f6"/><path d="m482.246094 332.0625c0 17.445312-14.144532 31.585938-31.589844 31.585938s-31.585938-14.140626-31.585938-31.585938 14.140626-31.589844 31.585938-31.589844 31.589844 14.144532 31.589844 31.589844zm0 0" fill="#f4bb91"/><path d="m482.242188 332.0625c0 17.445312-14.140626 31.585938-31.589844 31.585938-3.546875 0-6.957032-.582032-10.136719-1.660157 12.46875-4.226562 21.449219-16.027343 21.449219-29.925781s-8.976563-25.699219-21.449219-29.929688c3.179687-1.074218 6.589844-1.660156 10.136719-1.660156 17.449218 0 31.589844 14.140625 31.589844 31.589844zm0 0" fill="#eea97b"/><path d="m372.972656 363.648438h-42.28125c-7.980468 0-11.664062-9.917969-5.617187-15.125 10.945312-9.425782 24.90625-14.609376 39.347656-14.609376h8.550781c4.335938 0 7.847656 3.515626 7.847656 7.851563v14.035156c.003907 4.335938-3.511718 7.847657-7.847656 7.847657zm0 0" fill="#336686"/><path d="m452.773438 195.042969c-4.855469-4.171875-12.167969-3.621094-16.339844 1.230469l-29.292969 34.066406-40.484375 5.996094c-6.203125.917968-10.519531 6.652343-9.683594 12.871093.011719.078125.023438.152344.03125.230469.851563 6.339844 6.71875 10.761719 13.046875 9.824219l44.757813-6.628907c2.753906-.410156 5.269531-1.796874 7.085937-3.910156l32.109375-37.339844c4.171875-4.851562 3.621094-12.167968-1.230468-16.339843zm0 0" fill="#50e199"/><path d="m358.191406 266.011719-12.117187 3.679687c-3.015625.914063-6.289063-.023437-8.363281-2.394531l-6.585938-7.535156c-3.832031-4.382813-1.863281-11.257813 3.707031-12.945313l16.054688-4.875c6.648437-2.015625 13.671875 1.738282 15.6875 8.386719 2.015625 6.644531-1.734375 13.667969-8.382813 15.683594zm0 0" fill="#fecaa8"/><path d="m22.84375 161.335938h28.210938c3.316406-1.199219 6.890624-1.851563 10.621093-1.851563 17.261719 0 31.253907 13.992187 31.253907 29.59375v93.726563l-62.511719 1.660156v-88.234375c-11.441407-.816407-20.46875-10.351563-20.46875-22 0-7.121094 5.773437-12.894531 12.894531-12.894531zm0 0" fill="#336686"/><path d="m118.429688 147c-.339844 1.910156-.8125 3.757812-1.410157 5.542969-5.957031 17.8125-24.210937 29.046875-43.257812 25.671875-19.863281-3.519532-33.453125-21.679688-31.644531-41.410156.097656-1.078126.238281-2.167969.429687-3.253907 3.71875-20.957031 23.722656-34.929687 44.671875-31.210937 20.945312 3.714844 34.929688 23.710937 31.210938 44.660156zm0 0" fill="#fecaa8"/><path d="m118.429688 147c-.339844 1.910156-.8125 3.757812-1.410157 5.542969-1.34375-.007813-2.695312-.140625-4.03125-.414063l-64.796875-13.058594c-2.152344-.441406-4.199218-1.210937-6.074218-2.265624.101562-1.078126.242187-2.167969.429687-3.253907 3.71875-20.957031 23.722656-34.929687 44.671875-31.210937 20.949219 3.714844 34.929688 23.710937 31.210938 44.660156zm0 0" fill="#ffb38c"/><path d="m59.847656 193.46875c4.855469-4.171875 12.167969-3.621094 16.339844 1.230469l29.292969 34.066406 40.484375 5.996094c6.207031.917969 10.523437 6.652343 9.683594 12.871093-.011719.074219-.019532.152344-.03125.230469-.851563 6.339844-6.71875 10.757813-13.046876 9.824219l-44.757812-6.628906c-2.753906-.410156-5.269531-1.796875-7.085938-3.910156l-32.109374-37.339844c-4.171876-4.851563-3.621094-12.167969 1.230468-16.339844zm0 0" fill="#336686"/><path d="m93.648438 273.109375 39.558593-10.816406c15.078125 0 27.347657 12.269531 27.347657 27.347656v40.753906c0 7.679688-6.226563 13.902344-13.902344 13.902344-7.679688 0-13.90625-6.222656-13.90625-13.902344v-40.292969l-90.144532 33.175782c-7.101562 0-12.859374-5.753906-12.859374-12.855469v-37.308594h63.90625zm0 0" fill="#4c78a0"/><path d="m99.539062 332.0625c0 17.445312-14.140624 31.585938-31.585937 31.585938s-31.589844-14.140626-31.589844-31.585938 14.144531-31.589844 31.589844-31.589844 31.585937 14.144532 31.585937 31.589844zm0 0" fill="#f4bb91"/><path d="m36.367188 332.0625c0 17.445312 14.140624 31.585938 31.589843 31.585938 3.546875 0 6.957031-.582032 10.136719-1.660157-12.46875-4.226562-21.449219-16.027343-21.449219-29.925781s8.976563-25.699219 21.449219-29.929688c-3.179688-1.074218-6.589844-1.660156-10.136719-1.660156-17.449219 0-31.589843 14.140625-31.589843 31.589844zm0 0" fill="#eea97b"/><path d="m139.027344 363.648438h42.28125c7.980468 0 11.664062-9.917969 5.617187-15.125-10.945312-9.425782-24.90625-14.609376-39.347656-14.609376h-8.550781c-4.335938 0-7.847656 3.515626-7.847656 7.851563v14.035156c-.003907 4.335938 3.511718 7.847657 7.847656 7.847657zm0 0" fill="#d0f4ef"/><path d="m156.507812 264.4375 12.117188 3.679688c3.015625.914062 6.289062-.023438 8.363281-2.398438l6.585938-7.535156c3.828125-4.382813 1.859375-11.253906-3.710938-12.945313l-16.054687-4.871093c-6.644532-2.019532-13.667969 1.734374-15.6875 8.382812-2.015625 6.648438 1.738281 13.671875 8.386718 15.6875zm0 0" fill="#fecaa8"/><path d="m50.15625 129.304688c-7.175781-1.445313-10.980469-9.484376-7.386719-15.867188 9.441407-16.777344 28.917969-26.355469 48.808594-22.34375s34.132813 20.386719 36.335937 39.511719c.835938 7.277343-5.78125 13.214843-12.960937 11.765625zm0 0" fill="#ffbd47"/><path d="m296.714844 312.914062c0 9.878907-3.570313 18.929688-9.484375 25.933594-7.375 8.746094-18.417969 14.304688-30.757813 14.304688-12.34375 0-23.378906-5.558594-30.753906-14.304688-5.917969-7-9.484375-16.054687-9.484375-25.933594 0-16.628906 22.519531-50.519531 33.859375-66.542968 3.121094-4.40625 9.640625-4.40625 12.753906 0 11.347656 16.023437 33.867188 49.914062 33.867188 66.542968zm0 0" fill="#ff9921"/><path d="m296.714844 312.914062c0 9.878907-3.570313 18.929688-9.484375 25.933594-7.375 8.746094-18.417969 14.304688-30.757813 14.304688-3.632812 0-7.160156-.480469-10.503906-1.386719 8.023438-2.164063 15.050781-6.742187 20.253906-12.917969 5.917969-7 9.484375-16.050781 9.484375-25.933594 0-14.785156-17.8125-43.234374-29.738281-60.617187 1.476562-2.164063 2.871094-4.148437 4.125-5.921875 3.121094-4.40625 9.640625-4.40625 12.75 0 11.351562 16.019531 33.871094 49.910156 33.871094 66.539062zm0 0" fill="#f47a00"/><path d="m287.230469 338.847656c-7.375 8.746094-18.417969 14.304688-30.757813 14.304688-3.632812 0-7.160156-.480469-10.503906-1.386719-8.023438-2.164063-15.046875-6.742187-20.25-12.917969 7.515625-14.425781 17.8125-29.667968 24.375-38.933594 3.121094-4.398437 9.640625-4.398437 12.75 0 3.445312 4.859376 7.917969 11.375 12.480469 18.542969 4.132812 6.503907 8.328125 13.539063 11.90625 20.390625zm0 0" fill="#2081f6"/><path d="m287.230469 338.847656c-7.375 8.746094-18.417969 14.304688-30.757813 14.304688-3.632812 0-7.160156-.480469-10.503906-1.386719 8.023438-2.164063 15.050781-6.742187 20.253906-12.917969 4.789063-5.664062 8.039063-12.675781 9.101563-20.390625 4.132812 6.503907 8.328125 13.539063 11.90625 20.390625zm0 0" fill="#1e6be7"/><path d="m301.277344 352.445312c0 8.847657-7.175782 16.023438-16.027344 16.023438-8.847656 0-16.023438-7.175781-16.023438-16.023438 0-8.851562 7.175782-16.027343 16.023438-16.027343 8.851562 0 16.027344 7.175781 16.027344 16.027343zm0 0" fill="#f4bb91"/><path d="m301.273438 352.445312c0 8.847657-7.171876 16.023438-16.023438 16.023438-1.800781 0-3.53125-.296875-5.144531-.84375 6.328125-2.144531 10.878906-8.128906 10.878906-15.179688 0-7.054687-4.550781-13.039062-10.878906-15.183593 1.613281-.546875 3.34375-.84375 5.144531-.84375 8.851562 0 16.023438 7.175781 16.023438 16.027343zm0 0" fill="#eea97b"/><path d="m272.5 352.445312c0 8.847657-7.175781 16.023438-16.027344 16.023438-8.847656 0-16.023437-7.175781-16.023437-16.023438 0-8.851562 7.175781-16.027343 16.023437-16.027343 8.851563 0 16.027344 7.175781 16.027344 16.027343zm0 0" fill="#f4bb91"/><path d="m272.496094 352.445312c0 8.847657-7.171875 16.023438-16.023438 16.023438-1.800781 0-3.53125-.296875-5.144531-.84375 6.328125-2.144531 10.882813-8.128906 10.882813-15.179688 0-7.054687-4.554688-13.039062-10.882813-15.183593 1.613281-.546875 3.34375-.84375 5.144531-.84375 8.851563 0 16.023438 7.175781 16.023438 16.027343zm0 0" fill="#eea97b"/><path d="m243.613281 352.445312c0 8.847657-7.175781 16.023438-16.023437 16.023438-8.851563 0-16.027344-7.175781-16.027344-16.023438 0-8.851562 7.175781-16.027343 16.027344-16.027343 8.847656 0 16.023437 7.175781 16.023437 16.027343zm0 0" fill="#f4bb91"/><path d="m243.609375 352.445312c0 8.847657-7.171875 16.023438-16.023437 16.023438-1.800782 0-3.527344-.296875-5.144532-.84375 6.328125-2.144531 10.882813-8.128906 10.882813-15.179688 0-7.054687-4.554688-13.039062-10.882813-15.183593 1.613282-.546875 3.34375-.84375 5.144532-.84375 8.851562 0 16.023437 7.175781 16.023437 16.027343zm0 0" fill="#eea97b"/><path d="m462.003906 428.367188c-22.851562 23.046874-53.304687 35.742187-85.75 35.742187h-81.601562c-4.144532 0-7.5 3.359375-7.5 7.5s3.355468 7.5 7.5 7.5h81.601562c36.476563 0 70.710938-14.269531 96.398438-40.183594 2.917968-2.941406 2.898437-7.691406-.042969-10.605469-2.941406-2.917968-7.691406-2.898437-10.605469.046876zm0 0"/><path d="m260.472656 464.109375h-151.75c-51.679687 0-93.722656-42.042969-93.722656-93.722656 0-16.597657 4.246094-32.4375 12.34375-46.515625.625.707031 1.296875 1.375 2.015625 1.996094-.324219 2.019531-.496094 4.085937-.496094 6.195312 0 21.550781 17.535157 39.085938 39.089844 39.085938s39.085937-17.535157 39.085937-39.085938c0-8.15625-2.511718-15.734375-6.800781-22.007812l25.007813-9.203126v29.542969c0 1.328125.121094 2.644531.363281 3.933594-1.226563 2.207031-1.933594 4.738281-1.933594 7.4375v14.035156c0 8.464844 6.886719 15.351563 15.351563 15.351563h42.28125c6.804687 0 12.730468-4.125 15.097656-10.503906 2.367188-6.378907.566406-13.367188-4.589844-17.808594-6.992187-6.023438-15.09375-10.5-23.761718-13.25v-39.949219c0-4.582031-.898438-8.960937-2.515626-12.972656h12.429688c33.9375 0 61.550781-27.613281 61.550781-61.554688 0-47.25 38.414063-86.609375 85.628907-87.734375 4.140624-.097656 7.417968-3.535156 7.320312-7.675781-.101562-4.140625-3.574219-7.414063-7.679688-7.320313-26.921874.644532-52.132812 11.613282-70.984374 30.894532-18.882813 19.3125-29.285157 44.824218-29.285157 71.839844 0 20.957031-13.925781 38.722656-33.007812 44.535156 1.640625-3.386719 2.007812-7.285156.941406-11.011719-1.457031-5.085937-5.347656-9.039063-10.410156-10.574219l-16.054688-4.871094c-2.839843-.863281-5.71875-1.042968-8.484375-.671874-2.828125-2.742188-6.480468-4.59375-10.441406-5.179688l-37.71875-5.582031-8.914062-10.371094v-22.308594c0-2.347656-.246094-4.671875-.726563-6.964843 2.476563-1.144532 4.871094-2.507813 7.152344-4.105469 10.078125-7.042969 16.8125-17.589844 18.957031-29.691407.03125-.160156.046875-.324218.074219-.484374 1.320312-.714844 2.570312-1.578126 3.695312-2.613282 4.347657-3.992187 6.453125-9.632812 5.78125-15.472656-2.640625-22.949219-19.640625-41.4375-42.304687-46.007812-22.65625-4.566407-45.496094 5.890624-56.828125 26.019531-2.878907 5.121093-3.121094 11.140625-.664063 16.507812.207032.453125.441406.894531.683594 1.324219-.4375 1.53125-.804688 3.082031-1.085938 4.652344-1.320312 7.457031-.746093 14.816406 1.355469 21.59375h-13.675781c-11.246094 0-20.394531 9.148437-20.394531 20.394531 0 13.011719 8.5625 24.257813 20.46875 28.125v67.648437c-.429688.949219-.675781 1.996094-.675781 3.105469v31.417969c-14.546876 19.046875-22.242188 41.769531-22.242188 65.855469 0 59.949219 48.773438 108.722656 108.722656 108.722656h151.75c4.144532 0 7.5-3.359375 7.5-7.5s-3.355468-7.5-7.5-7.5zm-192.519531-107.960937c-13.28125 0-24.089844-10.804688-24.089844-24.085938s10.808594-24.089844 24.089844-24.089844 24.085937 10.808594 24.085937 24.089844-10.804687 24.085938-24.085937 24.085938zm114.390625-.71875c-.265625.722656-.785156.722656-1.035156.722656h-42.28125c-.191406 0-.351563-.160156-.351563-.351563v-14.035156c0-.195313.160157-.351563.351563-.351563h8.550781c12.636719 0 24.875 4.542969 34.453125 12.789063.1875.164063.582031.503906.3125 1.226563zm-34.769531-29.015626h-7.328125v-36.3125c0-2.453124-1.195313-4.75-3.207032-6.152343-2.011718-1.402344-4.585937-1.734375-6.882812-.886719l-42.097656 15.492188c-5.878906-3.539063-12.757813-5.582032-20.105469-5.582032-12.449219 0-23.546875 5.855469-30.710937 14.949219v-27.3125h56.40625c.667968 0 40.484374-10.796875 40.484374-10.796875 10.515626.488281 18.921876 9.195312 18.921876 19.828125v37.007813c-1.816407-.148438-3.644532-.234376-5.480469-.234376zm-40.949219-64.628906c-.40625-.050781-.816406-.082031-1.238281-.070312-1.652344.050781-3.304688.152344-4.957031.277344v-2.964844l10.5625 1.5625zm71.0625-9.371094c.09375.03125.269531.082032.347656.351563.078125.273437-.042968.410156-.109375.484375l-6.582031 7.535156c-.132812.152344-.347656.210938-.539062.15625l-12.121094-3.679687c-2.675782-.8125-4.195313-3.652344-3.382813-6.332031.664063-2.1875 2.683594-3.605469 4.859375-3.605469.488282 0 .984375.074219 1.472656.21875zm-79.421875-86.699218c-6.792969 4.746094-15.035156 6.5625-23.191406 5.117187-16.179688-2.867187-27.214844-17.867187-25.417969-33.976562l60.589844 12.21875c-1.976563 6.734375-6.144532 12.558593-11.980469 16.640625zm-48.960937-48.597656c8.132812-14.449219 24.519531-21.953126 40.792968-18.671876 16.265625 3.28125 28.46875 16.550782 30.367188 33.019532.15625 1.390625-.578125 2.296875-1.03125 2.714844-.390625.355468-1.457032 1.152343-2.996094.839843l-64.796875-13.066406c-1.539063-.308594-2.214844-1.457031-2.4375-1.9375-.257813-.558594-.585937-1.679687.101563-2.898437zm-31.855469 57.117187c0-2.976563 2.417969-5.398437 5.394531-5.398437h21.585938c6.746093 8.527343 16.503906 14.722656 28.023437 16.765624 2.71875.480469 5.4375.71875 8.136719.71875 1.53125 0 3.058594-.082031 4.574218-.234374.160157.992187.269532 1.992187.269532 2.992187v4.867187l-3.558594-4.132812c-2.699219-3.144531-7.4375-3.5-10.574219-.800781-3.140625 2.703125-3.5 7.4375-.796875 10.578125l29.292969 34.066406c1.175781 1.367188 2.804687 2.265625 4.585937 2.53125l38.683594 5.726562c-.878906 1.429688-1.609375 2.980469-2.121094 4.660157-.320312 1.058593-.523437 2.125-.667968 3.191406l-41.363282-6.125c-.972656-.144531-1.859374-.632813-2.5-1.378906l-32.109374-37.34375c-2.699219-3.140625-7.4375-3.496094-10.574219-.796875-3.140625 2.703125-3.5 7.4375-.796875 10.578125l32.105468 37.339843c.125.144532.265626.277344.394532.414063v13.15625h-47.515625v-62.238281c7.121093-1.046875 13.695312-4.335938 18.882812-9.519532 2.929688-2.929687 2.929688-7.679687 0-10.609374-2.929687-2.925782-7.679687-2.925782-10.605469 0-3.542968 3.542968-8.25 5.492187-13.253906 5.492187h-2.144531c-7.5-.621094-13.347656-6.953125-13.347656-14.5zm0 0"/><path d="m496.464844 198.71875c7.898437-5.34375 13.085937-14.371094 13.085937-24.484375 0-11.25-9.148437-20.398437-20.394531-20.398437h-13.675781c2.101562-6.777344 2.675781-14.136719 1.355469-21.59375-4.433594-24.992188-28.367188-41.722657-53.363282-37.289063-12.105468 2.148437-22.652344 8.878906-29.695312 18.960937-.511719.734376-.996094 1.484376-1.464844 2.242188-10.820312-2.449219-21.9375-3.726562-33.117188-3.792969-4.144531-.019531-7.523437 3.3125-7.546874 7.457031-.023438 4.140626 3.3125 7.519532 7.457031 7.542969 9.257812.054688 18.460937 1.039063 27.453125 2.898438-1.304688 5.855469-1.453125 11.96875-.371094 18.054687 2.144531 12.105469 8.878906 22.652344 18.957031 29.695313 2.351563 1.644531 4.820313 3.042969 7.375 4.207031-.625 2.777344-.949219 5.625-.949219 8.523438v22.945312l-8.292968 9.644531-37.71875 5.585938c-3.882813.574219-7.453125 2.351562-10.257813 5.007812-2.203125-.082031-4.421875.179688-6.589843.839844l-16.058594 4.871094c-5.0625 1.535156-8.953125 5.488281-10.410156 10.574219-1.457032 5.085937-.25 10.5 3.234374 14.484374l6.585938 7.535157c2.988281 3.421875 7.285156 5.304687 11.695312 5.304687.8125 0 1.625-.070312 2.4375-.199218-1.449218 3.828124-2.25 7.972656-2.25 12.304687v39.949219c-8.671874 2.746094-16.769531 7.226562-23.765624 13.246094-5.15625 4.441406-6.957032 11.433593-4.589844 17.8125 2.371094 6.378906 8.296875 10.5 15.101562 10.5h42.28125c8.464844 0 15.347656-6.886719 15.347656-15.351563v-14.03125c0-2.703125-.707031-5.238281-1.933593-7.445313.238281-1.289062.367187-2.601562.367187-3.925781v-30.617187l32.929688 8.480468c-5.082032 6.597657-8.117188 14.851563-8.117188 23.804688 0 21.550781 17.535156 39.085938 39.089844 39.085938s39.085938-17.535157 39.085938-39.085938c0-6.722656-1.707032-13.054688-4.707032-18.585938 2.996094-3.601562 4.722656-8.1875 4.722656-13.015624v-27.351563c0-1.109375-.246093-2.15625-.679687-3.101563v-50.164062c5.210937 14.78125 7.921875 30.457031 7.921875 46.246094v77.273437c0 20.695313-5.332031 41.121094-15.417969 59.066407-2.03125 3.609374-.75 8.183593 2.863281 10.210937 1.160157.652344 2.421876.964844 3.667969.964844 2.621094 0 5.167969-1.378907 6.542969-3.828125 11.347656-20.183594 17.34375-43.152344 17.34375-66.414063v-77.273437c0-23.367188-5.363281-46.507813-15.535156-67.371094zm-70.371094-88.996094c1.824219-.324218 3.636719-.476562 5.429688-.476562 8.453124 0 16.363281 3.476562 22.085937 9.269531-6.515625 7.046875-22.785156 20.21875-53.085937 20.007813.3125-5.703126 2.199218-11.222657 5.550781-16.019532 4.746093-6.792968 11.855469-11.332031 20.019531-12.78125zm-22.660156 43.777344c29.960937-.582031 48.441406-12.753906 57.949218-21.613281.269532.96875.503907 1.960937.679688 2.972656 2.988281 16.847656-8.289062 32.984375-25.136719 35.972656-8.160156 1.449219-16.398437-.371093-23.191406-5.117187-4.515625-3.15625-8.023437-7.355469-10.300781-12.214844zm4.804687 84.261719c1.785157-.265625 3.414063-1.164063 4.589844-2.53125l29.292969-34.066407c2.699218-3.140624 2.34375-7.875-.796875-10.578124-3.140625-2.699219-7.875-2.34375-10.578125.796874l-4.175782 4.859376v-5.503907c0-1.574219.152344-3.121093.449219-4.636719 1.457031.140626 2.921875.21875 4.390625.21875 2.699219 0 5.421875-.238281 8.136719-.71875 11.519531-2.042968 21.277344-8.238281 28.023437-16.765624h21.585938c2.976562 0 5.398438 2.421874 5.398438 5.398437 0 7.546875-5.851563 13.878906-13.347657 14.5h-2.144531c-5.007812 0-9.714844-1.953125-13.253906-5.492187-2.929688-2.929688-7.675782-2.925782-10.605469 0-2.929687 2.929687-2.929687 7.679687 0 10.605468 5.183594 5.183594 11.757813 8.472656 18.878906 9.519532v62.242187h-47.511719v-10.921875c.347657-.34375.691407-.699219 1.011719-1.074219l32.109375-37.339843c2.703125-3.144532 2.34375-7.878907-.796875-10.578126-3.136719-2.699218-7.875-2.34375-10.574219.796876l-32.109374 37.339843c-.640626.746094-1.527344 1.234375-2.5 1.378907l-39.332032 5.824218c-.144531-.960937-.332031-1.925781-.625-2.886718-.539062-1.773438-1.316406-3.425782-2.28125-4.945313zm3.332031 25.71875-6.609374-1.808594 6.609374-.976563zm-68.214843-1.121094-6.585938-7.535156c-.066406-.074219-.183593-.210938-.109375-.480469.078125-.273438.253906-.324219.347656-.351562l16.058594-4.875c.484375-.148438.984375-.21875 1.480469-.21875.820313 0 1.636719.203124 2.386719.601562 1.195312.636719 2.070312 1.707031 2.464844 3.003906.8125 2.679688-.707032 5.519532-3.386719 6.332032l-12.117188 3.675781c-.191406.058593-.40625 0-.539062-.152344zm29.96875 93.441406c0 .191407-.160157.351563-.351563.351563h-42.28125c-.25 0-.769531 0-1.035156-.722656-.269531-.722657.125-1.0625.3125-1.222657 9.578125-8.25 21.816406-12.792969 34.453125-12.792969h8.550781c.191406 0 .351563.160157.351563.351563zm7.800781-72.964843c-2.246094-.578126-4.632812-.085938-6.46875 1.335937-1.832031 1.421875-2.902344 3.609375-2.902344 5.929687v36.3125h-7.328125c-1.835937 0-3.664062.085938-5.480469.234376v-37.007813c0-10.632813 8.40625-19.339844 18.917969-19.828125 0 0 39.820313 10.796875 40.488281 10.796875h56.40625v19.851563c0 .273437-.027343.542968-.066406.808593-6.636718-5.191406-14.976562-8.296875-24.035156-8.296875-5.816406 0-11.335938 1.285156-16.300781 3.574219zm69.53125 73.3125c-13.28125 0-24.085938-10.804688-24.085938-24.085938s10.804688-24.089844 24.085938-24.089844 24.089844 10.808594 24.089844 24.089844-10.808594 24.085938-24.089844 24.085938zm0 0"/><path d="m464.992188 333.554688c-3.292969-2.515626-8-1.878907-10.511719 1.414062-.917969 1.203125-2.3125 1.894531-3.824219 1.894531-2.648438 0-4.800781-2.152343-4.800781-4.800781s2.152343-4.804688 4.800781-4.804688c4.144531 0 7.5-3.355468 7.5-7.5 0-4.140624-3.355469-7.5-7.5-7.5-10.917969 0-19.800781 8.882813-19.800781 19.804688 0 10.917969 8.882812 19.800781 19.800781 19.800781 6.230469 0 11.972656-2.839843 15.75-7.796875 2.515625-3.292968 1.878906-8-1.414062-10.511718zm0 0"/><path d="m67.953125 312.257812c-4.144531 0-7.5 3.359376-7.5 7.5 0 4.144532 3.355469 7.5 7.5 7.5 2.648437 0 4.804687 2.15625 4.804687 4.804688s-2.15625 4.800781-4.804687 4.800781c-1.511719 0-2.90625-.691406-3.824219-1.894531-2.515625-3.292969-7.21875-3.929688-10.515625-1.414062-3.292969 2.511718-3.925781 7.21875-1.410156 10.511718 3.78125 4.957032 9.519531 7.796875 15.75 7.796875 10.917969 0 19.804687-8.882812 19.804687-19.800781 0-10.921875-8.886718-19.804688-19.804687-19.804688zm0 0"/><path d="m308.773438 352.445312c0-7.644531-3.664063-14.441406-9.324219-18.742187 3.125-6.4375 4.761719-13.496094 4.761719-20.792969 0-17.445312-19.167969-48.167968-35.242188-70.875-2.867188-4.046875-7.539062-6.464844-12.496094-6.464844-4.960937 0-9.632812 2.417969-12.5 6.464844-16.074218 22.707032-35.242187 53.433594-35.242187 70.875 0 7.273438 1.625 14.3125 4.734375 20.734375-5.707032 4.296875-9.402344 11.121094-9.402344 18.796875 0 12.972656 10.554688 23.523438 23.527344 23.523438 5.433594 0 10.441406-1.855469 14.429687-4.964844 4.054688 3.164062 9.109375 4.964844 14.453125 4.964844 5.417969 0 10.40625-1.84375 14.386719-4.929688 4.0625 3.140625 9.113281 4.929688 14.394531 4.929688 12.96875.003906 23.519532-10.550782 23.519532-23.519532zm-23.523438 8.523438c-2.285156 0-4.453125-.925781-6.035156-2.507812.511718-1.921876.785156-3.9375.785156-6.015626 0-2.078124-.273438-4.097656-.785156-6.019531 1.582031-1.582031 3.75-2.507812 6.035156-2.507812 4.699219 0 8.523438 3.824219 8.523438 8.527343 0 4.699219-3.824219 8.523438-8.523438 8.523438zm-43.230469-27.085938c-1.136719-.882812-2.355469-1.664062-3.640625-2.332031 6.085938-10.304687 12.808594-20.207031 17.832032-27.300781.042968-.058594.097656-.136719.261718-.136719.160156 0 .210938.074219.253906.132813 5.03125 7.109375 11.746094 17 17.820313 27.269531-1.296875.664063-2.535156 1.441406-3.6875 2.332031-3.980469-3.085937-8.972656-4.929687-14.386719-4.929687-5.34375 0-10.394531 1.804687-14.453125 4.964843zm14.195313-83.175781c.042968-.0625.097656-.136719.257812-.136719.15625 0 .210938.074219.253906.136719 20.035157 28.292969 32.484376 52.128907 32.484376 62.207031 0 3.734376-.640626 7.371094-1.847657 10.8125-6.308593-10.652343-13.21875-20.835937-18.394531-28.144531-2.863281-4.046875-7.53125-6.464843-12.488281-6.46875 0 0-.003907 0-.007813 0-4.957031 0-9.625 2.417969-12.5 6.464844-5.167968 7.296875-12.074218 17.476563-18.394531 28.152344-1.207031-3.441407-1.847656-7.082031-1.847656-10.816407 0-10.074218 12.449219-33.910156 32.484375-62.207031zm-28.625 110.261719c-4.703125 0-8.527344-3.824219-8.527344-8.523438 0-4.703124 3.824219-8.527343 8.527344-8.527343 4.699218 0 8.523437 3.824219 8.523437 8.527343 0 4.699219-3.824219 8.523438-8.523437 8.523438zm28.882812 0c-2.34375 0-4.535156-.960938-6.117187-2.59375.492187-1.894531.757812-3.882812.757812-5.929688 0-2.050781-.261719-4.035156-.757812-5.933593 1.582031-1.632813 3.773437-2.59375 6.117187-2.59375 4.703125 0 8.527344 3.824219 8.527344 8.527343 0 4.699219-3.824219 8.523438-8.527344 8.523438zm0 0"/><path d="m364.96875 413.050781h.03125c4.128906 0 7.480469-3.335937 7.5-7.464843.019531-4.140626-3.324219-7.515626-7.46875-7.535157h-.105469c-4.148437-.066406-7.515625 3.324219-7.535156 7.464844-.019531 4.144531 3.324219 7.515625 7.46875 7.535156zm0 0"/><path d="m187.105469 433.910156c-.023438 0-.046875 0-.070313 0-4.109375 0-7.460937 3.316406-7.5 7.433594-.035156 4.144531 3.292969 7.53125 7.433594 7.566406h.109375.070313c4.109374 0 7.460937-3.3125 7.496093-7.429687.039063-4.144531-3.289062-7.53125-7.429687-7.566407zm0 0"/><path d="m385.9375 424.914062h.035156c4.125 0 7.480469-3.335937 7.5-7.464843.015625-4.144531-3.324218-7.515625-7.46875-7.535157h-.109375c-.011719 0-.023437 0-.035156 0-4.125 0-7.476563 3.335938-7.496094 7.464844-.019531 4.144532 3.324219 7.515625 7.464844 7.535156zm0 0"/><path d="m114.195312 409.914062c-4.09375-.03125-7.527343 3.289063-7.5625 7.429688-.039062 4.144531 3.289063 7.53125 7.433594 7.566406l.109375.003906h.066407c4.109374 0 7.460937-3.316406 7.5-7.433593.035156-4.144531-3.292969-7.53125-7.433594-7.566407zm0 0"/><path d="m199.441406 138.894531h.074219c4.105469 0 7.457031-3.308593 7.5-7.425781l.023437-2.488281c.039063-4.144531-3.285156-7.535157-7.429687-7.574219-.023437 0-.046875 0-.074219 0-4.105468 0-7.457031 3.308594-7.496094 7.425781l-.023437 2.488281c-.039063 4.144532 3.285156 7.535157 7.425781 7.574219zm0 0"/><path d="m199.398438 148.554688c-.023438 0-.046876 0-.074219 0-4.105469 0-7.457031 3.3125-7.496094 7.429687l-.023437 2.488281c-.039063 4.144532 3.289062 7.53125 7.429687 7.570313h.074219c4.105468 0 7.457031-3.308594 7.496094-7.425781l.023437-2.492188c.039063-4.140625-3.289063-7.527344-7.429687-7.570312zm0 0"/><path d="m214.167969 151.34375h.074219c4.109374 0 7.457031-3.3125 7.5-7.429688.039062-4.140624-3.289063-7.53125-7.429688-7.570312l-2.488281-.023438c-.023438 0-.050781 0-.074219 0-4.105469 0-7.457031 3.308594-7.496094 7.425782-.039062 4.140625 3.285156 7.53125 7.425782 7.574218zm0 0"/><path d="m184.527344 151.109375 2.488281.023437h.078125c4.105469 0 7.457031-3.308593 7.496094-7.425781.039062-4.140625-3.285156-7.535156-7.425782-7.574219l-2.488281-.023437c-.027343 0-.050781 0-.078125 0-4.105468 0-7.457031 3.308594-7.496094 7.425781-.039062 4.140625 3.285157 7.53125 7.425782 7.574219zm0 0"/><path d="m233.042969 92.597656c-.039063 4.144532 3.28125 7.535156 7.425781 7.574219h.074219c4.109375 0 7.457031-3.308594 7.5-7.425781l.023437-2.488282c.039063-4.144531-3.285156-7.535156-7.425781-7.574218-.027344 0-.050781 0-.078125 0-4.105469 0-7.457031 3.308594-7.496094 7.425781zm0 0"/><path d="m240.257812 127.324219h.078126c4.105468 0 7.453124-3.3125 7.496093-7.425781l.023438-2.492188c.039062-4.140625-3.285157-7.53125-7.425781-7.570312-.027344 0-.050782 0-.074219 0-4.109375 0-7.457031 3.308593-7.5 7.425781l-.023438 2.488281c-.039062 4.140625 3.285157 7.53125 7.425781 7.574219zm0 0"/><path d="m245.277344 105.023438c-.039063 4.140624 3.289062 7.53125 7.429687 7.570312l2.488281.027344h.074219c4.109375 0 7.457031-3.3125 7.5-7.429688.039063-4.140625-3.289062-7.53125-7.429687-7.570312l-2.488282-.027344c-.027343 0-.050781 0-.074218 0-4.105469.003906-7.457032 3.3125-7.5 7.429688zm0 0"/><path d="m228.046875 112.410156h.074219c4.105468 0 7.457031-3.3125 7.496094-7.425781.042968-4.144531-3.28125-7.535156-7.425782-7.574219l-2.488281-.023437c-4.101563-.070313-7.53125 3.285156-7.574219 7.425781-.039062 4.140625 3.285156 7.53125 7.429688 7.574219zm0 0"/><path d="m348.148438 56.464844h.074218c4.105469 0 7.457032-3.308594 7.5-7.425782l.023438-2.488281c.039062-4.144531-3.285156-7.535156-7.429688-7.574219-4.160156-.074218-7.53125 3.285157-7.570312 7.425782l-.023438 2.488281c-.039062 4.144531 3.285156 7.53125 7.425782 7.574219zm0 0"/><path d="m348.109375 66.125c-4.113281-.042969-7.53125 3.285156-7.574219 7.425781l-.023437 2.488281c-.039063 4.144532 3.285156 7.535157 7.425781 7.574219h.078125c4.105469 0 7.457031-3.308593 7.496094-7.425781l.023437-2.488281c.039063-4.144531-3.28125-7.53125-7.425781-7.574219zm0 0"/><path d="m352.960938 61.316406c-.042969 4.140625 3.28125 7.53125 7.425781 7.570313l2.488281.023437h.074219c4.109375 0 7.457031-3.308594 7.5-7.425781.039062-4.140625-3.285157-7.53125-7.429688-7.570313l-2.488281-.027343c-4.136719-.042969-7.53125 3.285156-7.570312 7.429687zm0 0"/><path d="m333.234375 68.675781 2.488281.027344h.078125c4.105469 0 7.457031-3.3125 7.496094-7.425781.039063-4.144532-3.285156-7.535156-7.425781-7.574219l-2.488282-.023437c-4.167968-.074219-7.53125 3.28125-7.574218 7.425781-.039063 4.140625 3.285156 7.53125 7.425781 7.570312zm0 0"/><path d="m285.269531 201.992188h.078125c4.105469 0 7.457032-3.308594 7.496094-7.425782l.023438-2.488281c.039062-4.140625-3.28125-7.535156-7.425782-7.574219-.027344 0-.050781 0-.074218 0-4.109376 0-7.457032 3.3125-7.5 7.425782l-.023438 2.488281c-.039062 4.144531 3.285156 7.535156 7.425781 7.574219zm0 0"/><path d="m285.0625 229.140625h.074219c4.105469 0 7.457031-3.308594 7.496093-7.425781l.023438-2.488282c.042969-4.140624-3.28125-7.53125-7.425781-7.574218-4.179688-.046875-7.53125 3.285156-7.574219 7.425781l-.023438 2.492187c-.039062 4.140626 3.285157 7.53125 7.429688 7.570313zm0 0"/><path d="m299.996094 214.441406h.074218c4.109376 0 7.457032-3.3125 7.5-7.429687.039063-4.140625-3.285156-7.53125-7.425781-7.570313l-2.492187-.023437c-.023438 0-.046875 0-.074219 0-4.105469 0-7.457031 3.308593-7.496094 7.425781-.042969 4.140625 3.28125 7.53125 7.425781 7.570312zm0 0"/><path d="m270.503906 199.207031c-.023437 0-.050781 0-.074218 0-4.105469 0-7.457032 3.308594-7.496094 7.425781-.042969 4.140626 3.28125 7.53125 7.425781 7.570313l2.488281.027344h.074219c4.109375 0 7.457031-3.3125 7.5-7.429688.039063-4.140625-3.285156-7.53125-7.429687-7.570312zm0 0"/><path d="m227.609375 17.488281h.074219c4.105468 0 7.457031-3.3125 7.496094-7.429687l.023437-2.488282c.039063-4.140624-3.285156-7.5312495-7.429687-7.570312-4.171876-.0507812-7.53125 3.289062-7.570313 7.429688l-.023437 2.488281c-.035157 4.144531 3.289062 7.53125 7.429687 7.570312zm0 0"/><path d="m227.566406 27.152344c-.023437 0-.046875 0-.074218 0-4.105469 0-7.457032 3.308594-7.496094 7.425781l-.023438 2.488281c-.042968 4.140625 3.28125 7.53125 7.425782 7.570313h.074218c4.105469 0 7.457032-3.308594 7.5-7.425781l.023438-2.488282c.039062-4.140625-3.285156-7.53125-7.429688-7.570312zm0 0"/><path d="m232.417969 22.339844c-.039063 4.140625 3.285156 7.53125 7.429687 7.570312l2.488282.027344h.074218c4.105469 0 7.457032-3.3125 7.496094-7.429688.042969-4.140624-3.28125-7.53125-7.425781-7.570312l-2.488281-.023438c-.023438 0-.050782 0-.074219 0-4.109375 0-7.457031 3.308594-7.5 7.425782zm0 0"/><path d="m212.695312 29.703125 2.488282.023437h.074218c4.109376 0 7.457032-3.3125 7.5-7.425781.039063-4.144531-3.285156-7.535156-7.429687-7.574219l-2.488281-.023437c-4.113282-.042969-7.53125 3.285156-7.570313 7.425781-.039062 4.140625 3.285157 7.53125 7.425781 7.574219zm0 0"/></svg>