<svg id="Capa_1" enable-background="new 0 0 501 501" height="512" viewBox="0 0 501 501" width="512" xmlns="http://www.w3.org/2000/svg"><path d="m6.014 240.001c8.242-127.852 114.551-229.001 244.485-229.001 134.468 0 243.351 107.501 244.982 241.959.118 9.698-.328 19.269-1.307 28.681-9.464 91.009-86.739 159.86-178.238 159.86h-213.103c-52.023-44.927-97.16-196.21-96.819-201.499z" fill="#024c67"/><path d="m364.5 105c0 8.284-6.716 15-15 15h-110c-8.284 0-15-6.716-15-15s6.716-15 15-15h110c8.284 0 15 6.716 15 15zm101.852 35h-56.852c-8.284 0-15 6.716-15 15s6.716 15 15 15h70.481c-3.881-10.351-8.442-20.369-13.629-30zm-251.852-85c0-8.284-6.716-15-15-15h-64.725c-15.683 8.42-30.343 18.498-43.746 30h108.471c8.284 0 15-6.716 15-15zm45 5h40c8.284 0 15-6.716 15-15 0-8.284-6.716-15-15-15h-40c-8.284 0-15 6.716-15 15 0 8.284 6.716 15 15 15zm-110 70h-109.159c-5.764 9.592-10.889 19.612-15.318 30h124.477c8.284 0 15-6.716 15-15s-6.716-15-15-15zm130 70h-80c-8.284 0-15 6.716-15 15 0 8.284 6.716 15 15 15h80c8.284 0 15-6.716 15-15 0-8.284-6.716-15-15-15z" fill="#025f80"/><path d="m324.5 150c0 5.523-4.477 10-10 10s-10-4.477-10-10 4.477-10 10-10 10 4.477 10 10z" fill="#017296"/><path d="m174.5 70c0 5.523-4.477 10-10 10s-10-4.477-10-10 4.477-10 10-10 10 4.477 10 10z" fill="#3691bb"/><path d="m494.339 280c-4.633 47.657-22.921 91.315-50.9 127.012-9.493 12.112-28.939 5.415-28.939-9.974v-107.038c0-5.523 4.477-10 10-10zm-283.838 150h-56.001c-5.523 0-10 4.477-10 10v28.066c0 5.514 3.28 10.494 8.336 12.694 10.445 4.545 21.269 8.383 32.41 11.454 17.753 4.893 35.255-8.642 35.255-27.057v-25.157c0-5.523-4.477-10-10-10zm143.333-369.978c-5.315.344-9.334 4.995-9.334 10.321v109.657h-56.001c-5.523 0-10 4.477-10 10l-.374 305.436c.269-.031 76.375-37.81 76.375-81.057v-74.379c5.523 0 10-4.477 10-10v-260c0-5.743-4.841-10.356-10.666-9.978zm-109.334 122.654v-172.676c0-5.523-4.477-10-10-10s-10 4.477-10 10v172.676c-5.978 3.458-10 9.921-10 17.324s4.022 13.866 10 17.324v232.676c0 5.523 4.477 10 10 10s10-4.477 10-10v-232.676c5.978-3.458 10-9.921 10-17.324s-4.022-13.866-10-17.324z" fill="#3691bb"/><path d="m190.187 113.235c1.505-1.104 3.549.27 3.123 2.088-4.859 20.701-24.009 35.894-46.472 34.601-22.607-1.302-40.959-19.654-42.261-42.261-1.293-22.463 13.9-41.614 34.601-46.472 1.817-.426 3.192 1.618 2.088 3.123-4.666 6.358-7.237 14.35-6.694 22.958 1.1 17.421 15.236 31.557 32.657 32.657 8.608.543 16.6-2.028 22.958-6.694zm-155.687 76.765c-5.523 0-10 4.477-10 10s4.477 10 10 10 10-4.477 10-10-4.477-10-10-10zm280-140c-5.523 0-10 4.477-10 10s4.477 10 10 10 10-4.477 10-10-4.477-10-10-10z" fill="#fdf061"/><path d="m444.5 210v195.649c-25.211 32.635-58.474 58.734-96.813 75.318-1.059.458-3.572 1.512-3.765 1.592-13.156 5.431-26.888 9.749-41.079 12.837-19.7 4.287-38.343-10.659-38.343-30.82v-44.576h80v-270c0-5.523 4.477-10 10-10h20c38.66 0 70 31.34 70 70z" fill="#01cffa"/><path d="m374.5 140c38.66 0 70 31.34 70 70v195.649c-19.131 24.764-42.897 45.764-70 61.7z" fill="#62dafa"/><path d="m154.5 200v281.477c-87.596-37.343-149-124.239-149-225.477 0-5.375.173-10.71.514-16h68.486v-40c0-5.523 4.477-10 10-10h60c5.523 0 10 4.477 10 10z" fill="#fc544d"/><path d="m154.5 466.159v15.318c-87.596-37.343-149-124.239-149-225.477 0-5.375.173-10.71.514-16h30c-.341 5.29-.514 10.625-.514 16 0 89.232 47.704 167.322 119 210.159z" fill="#f52c2c"/><path d="m124.5 355v10c0 2.761-2.239 5-5 5h-85.917c-3.423-6.5-6.562-13.171-9.402-20h95.319c2.761 0 5 2.239 5 5zm-5-45h-108.029c1.525 6.777 3.33 13.448 5.403 20h102.626c2.761 0 5-2.239 5-5v-10c0-2.761-2.239-5-5-5zm0 80h-74.141c4.528 6.917 9.396 13.592 14.581 20h59.56c2.761 0 5-2.239 5-5v-10c0-2.761-2.239-5-5-5zm0-120h-113.606c.38 6.743 1.032 13.414 1.947 20h111.659c2.761 0 5-2.239 5-5v-10c0-2.761-2.239-5-5-5z" fill="#c92222"/><path d="m304.5 290v205.029c-17.374 3.908-35.446 5.971-54 5.971-22.867 0-45.002-3.133-66-8.993v-232.007c0-5.523 4.477-10 10-10h30c5.523 0 10 4.477 10 10v20h60c5.523 0 10 4.477 10 10z" fill="#ecb700"/><path d="m224.5 250c5.523 0 10 4.477 10 10v20h60c5.523 0 10 4.477 10 10v205.029c-6.571 1.478-13.241 2.692-20 3.63-6.586.914-13.257 1.567-20 1.947-4.633.261-9.301.393-14 .393-12.23 0-24.251-.896-36-2.627v-238.372c0-5.523 4.477-10 10-10z" fill="#f1ca50"/><path d="m224.5 465v20c0 2.761-2.239 5-5 5h-10c-2.761 0-5-2.239-5-5v-20c0-2.761 2.239-5 5-5h10c2.761 0 5 2.239 5 5zm-5-155h-10c-2.761 0-5 2.239-5 5v20c0 2.761 2.239 5 5 5h10c2.761 0 5-2.239 5-5v-20c0-2.761-2.239-5-5-5zm30 50h-10c-2.761 0-5 2.239-5 5v20c0 2.761 2.239 5 5 5h10c2.761 0 5-2.239 5-5v-20c0-2.761-2.239-5-5-5zm0 50h-10c-2.761 0-5 2.239-5 5v20c0 2.761 2.239 5 5 5h10c2.761 0 5-2.239 5-5v-20c0-2.761-2.239-5-5-5z" fill="#017296"/><path d="m254.5 315v20c0 2.761-2.239 5-5 5h-10c-2.761 0-5-2.239-5-5v-20c0-2.761 2.239-5 5-5h10c2.761 0 5 2.239 5 5zm-35 45h-10c-2.761 0-5 2.239-5 5v20c0 2.761 2.239 5 5 5h10c2.761 0 5-2.239 5-5v-20c0-2.761-2.239-5-5-5zm0 50h-10c-2.761 0-5 2.239-5 5v20c0 2.761 2.239 5 5 5h10c2.761 0 5-2.239 5-5v-20c0-2.761-2.239-5-5-5zm30 50h-10c-2.761 0-5 2.239-5 5v20c0 2.761 2.239 5 5 5h10c2.761 0 5-2.239 5-5v-20c0-2.761-2.239-5-5-5zm30-150h-10c-2.761 0-5 2.239-5 5v169.924c0 2.96 2.558 5.273 5.503 4.975l10-1.012c2.553-.258 4.497-2.408 4.497-4.975v-168.912c0-2.761-2.239-5-5-5z" fill="#fff5f5"/><path d="m424.5 355v10c0 2.761-2.239 5-5 5h-75v-20h75c2.761 0 5 2.239 5 5zm-5-45h-75v20h75c2.761 0 5-2.239 5-5v-10c0-2.761-2.239-5-5-5zm0-80h-75v20h75c2.761 0 5-2.239 5-5v-10c0-2.761-2.239-5-5-5zm0-40h-75v20h75c2.761 0 5-2.239 5-5v-10c0-2.761-2.239-5-5-5z" fill="#fff5f5"/><path d="m114.5 395v10c0 2.761-2.239 5-5 5h-10c-2.761 0-5-2.239-5-5v-10c0-2.761 2.239-5 5-5h10c2.761 0 5 2.239 5 5zm5-85h-10c-2.761 0-5 2.239-5 5v10c0 2.761 2.239 5 5 5h10c2.761 0 5-2.239 5-5v-10c0-2.761-2.239-5-5-5zm-40 0h-10c-2.761 0-5 2.239-5 5v10c0 2.761 2.239 5 5 5h10c2.761 0 5-2.239 5-5v-10c0-2.761-2.239-5-5-5zm-10 40h-20c-2.761 0-5 2.239-5 5v10c0 2.761 2.239 5 5 5h20c2.761 0 5-2.239 5-5v-10c0-2.761-2.239-5-5-5zm5-65v-10c0-2.761-2.239-5-5-5h-40c-2.761 0-5 2.239-5 5v10c0 2.761 2.239 5 5 5h40c2.761 0 5-2.239 5-5zm345 125h-75v-20h75c2.761 0 5 2.239 5 5v10c0 2.761-2.239 5-5 5zm5-125v-10c0-2.761-2.239-5-5-5h-75v20h75c2.761 0 5-2.239 5-5zm-2.686 145h-75v20h53.335c7.978-6.163 15.565-12.807 22.718-19.889-.34-.072-.692-.111-1.053-.111z" fill="#fdf061"/><path d="m344.5 390h30v20h-30zm0-100h30v-20h-30zm30 140h-30v20h30z" fill="#fdbf43"/><path d="m344.5 310h30v20h-30zm0 60h30v-20h-30zm0-180v20h30v-20zm0 60h30v-20h-30z" fill="#fff2b4"/></svg>