<?xml version="1.0"?>
<svg xmlns="http://www.w3.org/2000/svg" xmlns:xlink="http://www.w3.org/1999/xlink" xmlns:svgjs="http://svgjs.com/svgjs" version="1.1" width="512" height="512" x="0" y="0" viewBox="0 0 512 512" style="enable-background:new 0 0 512 512" xml:space="preserve" class=""><g><g xmlns="http://www.w3.org/2000/svg"><g><path d="m43.866 169.126h424.268v303.049h-424.268z" fill="#d0e2e7" data-original="#d0e2e7" style="" class=""/></g><g><path d="m43.866 169.126v58.589c13.227 0 25.457-4.337 35.356-11.656 9.898 7.319 22.128 11.656 35.356 11.656s25.457-4.337 35.356-11.656c9.898 7.319 22.128 11.656 35.356 11.656 13.227 0 25.457-4.337 35.356-11.656 9.898 7.319 22.128 11.656 35.356 11.656 13.227 0 25.457-4.337 35.356-11.656 9.898 7.319 22.128 11.656 35.356 11.656 13.227 0 25.457-4.337 35.356-11.656 9.898 7.319 22.128 11.656 35.356 11.656 13.227 0 25.457-4.337 35.356-11.656 9.898 7.319 22.129 11.656 35.356 11.656v-58.589z" fill="#b4d0d5" data-original="#b4d0d5" style="" class=""/></g><g><g><g><path d="m220.644 148.923v19.193c0 19.526 15.829 35.356 35.356 35.356s35.356-15.829 35.356-35.356v-19.193z" fill="#f6e781" data-original="#f6e781" style=""/></g><g><path d="m280.244 7.5h-48.488l-11.112 141.423h70.712z" fill="#f9efaf" data-original="#f9efaf" style="" class=""/></g><g><path d="m149.933 148.923v19.193c0 19.526-15.829 35.356-35.356 35.356s-35.356-15.829-35.356-35.356v-19.193z" fill="#f6e781" data-original="#f6e781" style=""/></g><g><path d="m220.644 148.923v19.193c0 19.526-15.829 35.356-35.356 35.356s-35.356-15.829-35.356-35.356v-19.193z" fill="#2b4d66" data-original="#2b4d66" style="" class=""/></g><g><path d="m130.74 7.5h-38.101c-7.611 0-14.576 4.277-18.019 11.065l-66.11 130.358h70.711z" fill="#365e7d" data-original="#365e7d" style="" class=""/></g><g><path d="m181.248 7.5h50.508l-11.112 141.423h-70.711z" fill="#365e7d" data-original="#365e7d" style="" class=""/></g><g><path d="m130.74 7.5h50.508l-31.315 141.423h-70.711z" fill="#f9efaf" data-original="#f9efaf" style="" class=""/></g><g><path d="m362.067 148.923v19.193c0 19.526 15.829 35.356 35.356 35.356 19.526 0 35.356-15.829 35.356-35.356v-19.193z" fill="#f6e781" data-original="#f6e781" style=""/></g><g><path d="m291.356 148.923v19.193c0 19.526 15.829 35.356 35.356 35.356s35.356-15.829 35.356-35.356v-19.193z" fill="#2b4d66" data-original="#2b4d66" style="" class=""/></g><g><path d="m432.778 148.923v19.193c0 19.526 15.829 35.356 35.356 35.356 19.526 0 35.356-15.829 35.356-35.356v-19.193z" fill="#2b4d66" data-original="#2b4d66" style="" class=""/></g><g><path d="m79.222 148.923v19.193c0 19.526-15.829 35.356-35.356 35.356s-35.356-15.83-35.356-35.356v-19.193z" fill="#2b4d66" data-original="#2b4d66" style="" class=""/></g><g><path d="m381.26 7.5h38.101c7.611 0 14.576 4.277 18.019 11.065l66.11 130.357h-70.711z" fill="#365e7d" data-original="#365e7d" style="" class=""/></g><g><path d="m330.752 7.5h-50.508l11.112 141.423h70.711z" fill="#365e7d" data-original="#365e7d" style="" class=""/></g><g><path d="m381.26 7.5h-50.508l31.315 141.423h70.711z" fill="#f9efaf" data-original="#f9efaf" style="" class=""/></g></g></g><g><path d="m76.191 260.041h121.219v212.134h-121.219z" fill="#ffef00" data-original="#90d8f9" style="" class=""/></g><g><path d="m229.736 260.041h206.073v141.423h-206.073z" fill="#ffef00" data-original="#90d8f9" style="" class=""/></g><g><path d="m411.565 260.041h24.244v141.423h-24.244z" fill="#ffe303" data-original="#75cef9" style="" class=""/></g><g><path d="m229.736 401.463h206.073v32.325h-206.073z" fill="#ff00ef" data-original="#c6865c" style="" class=""/></g><g><path d="m411.565 401.463h24.244v32.325h-24.244z" fill="#ff00ef" data-original="#c17d4f" style="" class=""/></g><g><path d="m17.602 504.5h476.797c5.579 0 10.102-4.523 10.102-10.102v-12.122c0-5.579-4.523-10.102-10.102-10.102h-476.797c-5.579 0-10.102 4.523-10.102 10.102v12.122c0 5.579 4.523 10.102 10.102 10.102z" fill="#365e7d" data-original="#365e7d" style="" class=""/></g><g><path d="m494.398 472.175h-30.305c5.579 0 10.102 4.523 10.102 10.102v12.122c0 5.579-4.523 10.102-10.102 10.102h30.305c5.579 0 10.102-4.523 10.102-10.102v-12.122c0-5.58-4.523-10.102-10.102-10.102z" fill="#2b4d66" data-original="#2b4d66" style="" class=""/></g><g><g><path d="m346.41 299.437-12.122 14.142h-19.193c-16.737 0-30.305 13.568-30.305 30.305v18.183h95.965v-48.488z" fill="#ff00ef" data-original="#c6865c" style="" class=""/></g></g><g><path d="m36.37 210.302v154.198c0 4.143 3.358 7.5 7.5 7.5s7.5-3.357 7.5-7.5v-154.2c11.525-2.045 21.472-8.702 27.852-18 7.73 11.265 20.692 18.671 35.355 18.671 14.664 0 27.626-7.406 35.356-18.671 7.73 11.265 20.692 18.671 35.355 18.671 14.664 0 27.626-7.406 35.356-18.671 7.73 11.265 20.692 18.671 35.355 18.671s27.626-7.406 35.355-18.671c7.73 11.265 20.692 18.671 35.356 18.671 14.663 0 27.626-7.406 35.355-18.671 7.73 11.265 20.692 18.671 35.356 18.671 14.663 0 27.626-7.406 35.355-18.671 6.38 9.297 16.327 15.955 27.852 18v28.2c0 4.143 3.358 7.5 7.5 7.5s7.5-3.357 7.5-7.5v-28.198c20.067-3.557 35.36-21.113 35.36-42.186v-19.193h-.013c0-1.161-.256-2.324-.798-3.393l-66.11-130.357c-4.744-9.358-14.212-15.173-24.706-15.173h-88.68c-.021 0-.042 0-.063 0h-149.24c-.017 0-.035 0-.052 0h-88.687c-10.494 0-19.962 5.815-24.708 15.173l-66.11 130.357c-.542 1.069-.798 2.232-.798 3.393h-.013v19.193c0 21.073 15.293 38.629 35.36 42.186zm7.496-14.33c-15.359 0-27.855-12.496-27.855-27.855v-11.693h55.711v11.693c0 15.359-12.496 27.855-27.856 27.855zm128.04-180.972-27.994 126.423h-53.976l46.054-126.423zm51.737 0-9.933 126.423h-54.435l27.994-126.423zm49.667 0 9.933 126.423h-54.486l9.933-126.423zm51.421 0 27.994 126.423h-54.435l-9.933-126.423zm51.279 0 46.054 126.423h-53.976l-27.994-126.423zm-261.433 180.972c-15.359 0-27.855-12.496-27.855-27.855v-11.693h55.711v11.693c0 15.359-12.496 27.855-27.856 27.855zm70.712 0c-15.359 0-27.855-12.496-27.855-27.855v-11.693h55.711v11.693c0 15.359-12.497 27.855-27.856 27.855zm70.711 0c-15.359 0-27.855-12.496-27.855-27.855v-11.693h55.711v11.693c-.001 15.359-12.497 27.855-27.856 27.855zm70.711 0c-15.36 0-27.856-12.496-27.856-27.855v-11.693h55.711v11.693c.001 15.359-12.495 27.855-27.855 27.855zm70.712 0c-15.36 0-27.856-12.496-27.856-27.855v-11.693h55.711v11.693c0 15.359-12.496 27.855-27.855 27.855zm70.711 0c-15.36 0-27.856-12.496-27.856-27.855v-11.693h55.711v11.693c.001 15.359-12.495 27.855-27.855 27.855zm-37.443-174.014 60.586 119.465h-53.249l-46.054-126.423h27.387c4.812 0 9.154 2.666 11.33 6.958zm-349.382 0c2.176-4.292 6.518-6.958 11.33-6.958h27.387l-46.054 126.423h-53.249z" fill="#000000" data-original="#000000" style="" class=""/><path d="m229.736 252.541c-4.142 0-7.5 3.357-7.5 7.5v173.748c0 4.143 3.358 7.5 7.5 7.5h206.073c4.142 0 7.5-3.357 7.5-7.5v-173.748c0-4.143-3.358-7.5-7.5-7.5zm7.5 15h191.073v126.423h-191.073zm191.073 158.748h-191.073v-17.325h191.073z" fill="#000000" data-original="#000000" style="" class=""/><path d="m165.085 334.364c-4.142 0-7.5 3.357-7.5 7.5v40.406c0 4.143 3.358 7.5 7.5 7.5s7.5-3.357 7.5-7.5v-40.406c0-4.142-3.357-7.5-7.5-7.5z" fill="#000000" data-original="#000000" style="" class=""/><path d="m494.4 464.67h-18.77v-191.17c0-4.143-3.358-7.5-7.5-7.5s-7.5 3.357-7.5 7.5v191.17h-255.719v-204.629c0-4.143-3.358-7.5-7.5-7.5h-121.22c-4.142 0-7.5 3.357-7.5 7.5v204.629h-17.321v-65.17c0-4.143-3.358-7.5-7.5-7.5s-7.5 3.357-7.5 7.5v65.17h-18.77c-9.705 0-17.6 7.9-17.6 17.61v12.12c0 9.704 7.896 17.6 17.6 17.6h388.59c4.142 0 7.5-3.357 7.5-7.5s-3.358-7.5-7.5-7.5h-388.59c-1.434 0-2.6-1.166-2.6-2.6v-12.12c0-1.439 1.167-2.61 2.6-2.61h476.8c1.434 0 2.6 1.171 2.6 2.61v12.12c0 1.434-1.167 2.6-2.6 2.6h-53.21c-4.142 0-7.5 3.357-7.5 7.5s3.358 7.5 7.5 7.5h53.21c9.705 0 17.6-7.896 17.6-17.6v-12.12c0-9.71-7.896-17.61-17.6-17.61zm-410.709-197.129h106.22v197.129h-106.22z" fill="#000000" data-original="#000000" style="" class=""/><path d="m383.61 306.645-34.345-14.144c-2.992-1.231-6.442-.405-8.55 2.055l-9.877 11.523h-15.743c-20.846 0-37.805 16.959-37.805 37.805v18.184c0 4.143 3.358 7.5 7.5 7.5h95.965c4.142 0 7.5-3.357 7.5-7.5v-48.488c0-3.04-1.834-5.779-4.645-6.935zm-10.355 47.922h-80.965v-10.684c0-12.574 10.23-22.805 22.805-22.805h19.193c2.189 0 4.27-.957 5.694-2.619l8.59-10.021 24.683 10.163z" fill="#000000" data-original="#000000" style="" class=""/></g></g></g></svg>
