<?xml version="1.0"?>
<svg xmlns="http://www.w3.org/2000/svg" xmlns:xlink="http://www.w3.org/1999/xlink" xmlns:svgjs="http://svgjs.com/svgjs" version="1.1" width="512" height="512" x="0" y="0" viewBox="0 0 512 512" style="enable-background:new 0 0 512 512" xml:space="preserve" class=""><g><g xmlns="http://www.w3.org/2000/svg"><g><path d="m489.085 411.043-284.553-3.617v-246.469l195.021-2.383c5.523 0 10 4.477 10 10l-.043 48.298c0 14.53 7.64 30.346 12.517 43.489 11.083 29.865 33.83 54.721 64.022 68.088 11.217 4.966 18.451 16.079 18.451 28.346l-5.415 44.247c0 5.523-4.477 10.001-10 10.001z" fill="#93937e" data-original="#e9edf1" style="" class=""/><path d="m221.53 160.957v245.086h-17l-4.126-130.97 4.126-114.116z" fill="#ebebdc" data-original="#dce6eb" style="" class=""/><path d="m414.532 210h-210v-51.766l16.998-8.234h183.002c5.523 0 10 4.477 10 10z" fill="#545353" data-original="#b57f5f" style="" class=""/><path d="m494.5 417h-289.968v-60h299.968v50c0 5.523-4.477 10-10 10z" fill="#545353" data-original="#b57f5f" style="" class=""/><path d="m221.53 150v60h-17l-20.807-31.681 20.807-28.319z" fill="#000000" data-original="#9f6e50" style="" class=""/><path d="m221.53 357v60h-17l-8.551-30 8.551-30z" fill="#000000" data-original="#9f6e50" style="" class=""/><path d="m193.596 425.979h-164.096l11.585-160.851-11.585-124.107h175.032v255.979z" fill="#efc317" data-original="#f7f9fa" style="" class=""/><path d="m49.5 391v-249.98h-20v255.98 28.98h20 155.03v-28.98h-149.03c-3.314 0-6-2.686-6-6z" fill="#93937e" data-original="#e9edf1" style="" class=""/><path d="m198.702 145.298-164.202.722c-5.523 0-10-4.477-10-10l-5.984-16.02 112.441-5.34 84.559 5.34v15l-5.239 4.511c0 5.522-6.052 5.787-11.575 5.787z" fill="#545353" data-original="#b57f5f" style="" class=""/><path d="m215.52 135v5c0 5.52-4.48 10-10 10h-177c-5.53 0-10-4.48-10-10v-20l6.565-2.957 7.435 2.957v5c0 5.52 4.47 10 10 10z" fill="#000000" data-original="#9f6e50" style="" class=""/><path d="m28.149 420.5 5.371-3.5h171.996c5.523 0 10 4.477 10 10v5l-21.92 15h-175.08l5.207-17.447c0-5.523-1.097-9.053 4.426-9.053z" fill="#545353" data-original="#b57f5f" style="" class=""/><path d="m215.52 432v15l-93.414 8.085-103.586-8.085v-20c0-5.52 4.47-10 10-10h5v11c0 2.209 1.791 4 4 4z" fill="#000000" data-original="#9f6e50" style="" class=""/><path d="m157 90h-84.5l6.372-38.319c0-5.523 4.477-10 10-10l3.628-6.681h65c5.523 0 10 4.477 10 10v25z" fill="#545353" data-original="#b57f5f" style="" class=""/><path d="m167.5 70v20l-50.48 5.085-44.52-5.085v-45c0-5.523 4.477-10 10-10h10v29c0 3.314 2.686 6 6 6z" fill="#000000" data-original="#9f6e50" style="" class=""/><path d="m219.03 116.702h-200.514c-2.761 0-5-2.239-5-5l-2.388-14.117c0-2.761 2.239-5 5-5l4.372-2.585h201c2.761 0 5 2.239 5 5v11l-2.47 5.702c0 2.762-2.239 5-5 5z" fill="#545353" data-original="#b57f5f" style="" class=""/><path d="m226.5 106v9c0 2.76-2.24 5-5 5h-209c-2.76 0-5-2.24-5-5v-20c0-2.76 2.24-5 5-5h8v11c0 2.76 2.24 5 5 5z" fill="#000000" data-original="#9f6e50" style="" class=""/><path d="m15.447 450.085 5.053-3.085h201c2.761 0 5 2.239 5 5v11l-5.98 7.17c0 2.761-2.239 5-5 5h-201.329c-2.761 0-5-2.239-5-5l1.255-15.085c.001-2.761 2.239-5 5.001-5z" fill="#545353" data-original="#b57f5f" style="" class=""/><path d="m226.5 463v9c0 2.76-2.24 5-5 5h-209c-2.76 0-5-2.24-5-5v-20c0-2.76 2.24-5 5-5h8v11c0 2.76 2.24 5 5 5z" fill="#000000" data-original="#9f6e50" style="" class=""/></g><g><path d="m489.085 321.591c-7.832-3.467-15.264-7.827-22.089-12.957-3.31-2.488-8.013-1.822-10.501 1.49-2.488 3.311-1.822 8.013 1.49 10.501 7.735 5.813 16.156 10.753 25.029 14.681 6.191 2.741 10.773 7.967 12.811 14.193h-73.792v-70.889c2.898 5.417 6.184 10.665 9.888 15.693 1.47 1.996 3.742 3.052 6.044 3.052 1.545 0 3.104-.476 4.443-1.462 3.334-2.457 4.046-7.152 1.589-10.486-14.369-19.504-21.964-42.614-21.964-66.832 0-2.295 0-56.336 0-58.575 0-9.649-7.851-17.5-17.5-17.5h-181.717c.289-.091.185-14.345.2-15.101 6.179-.752 10.984-6.021 10.984-12.399v-20c0-6.893-5.607-12.5-12.5-12.5h-46.5v-37.5c0-9.649-7.851-17.5-17.5-17.5h-75c-9.649 0-17.5 7.851-17.5 17.5v37.5h-52.5c-6.893 0-12.5 5.607-12.5 12.5v20c0 6.39 4.822 11.666 11.016 12.404v12.596c0 7.346 4.555 13.637 10.984 16.229v38.771c0 4.142 3.358 7.5 7.5 7.5s7.5-3.358 7.5-7.5v-37.5h160.032v252h-160.032v-179.436c0-4.142-3.358-7.5-7.5-7.5s-7.5 3.358-7.5 7.5v180.707c-6.429 2.591-10.984 8.883-10.984 16.229v12.596c-6.194.738-11.016 6.014-11.016 12.404v20c0 6.893 5.607 12.5 12.5 12.5h209c6.893 0 12.5-5.607 12.5-12.5v-20c0-6.378-4.805-11.647-10.984-12.399-.143-6.067.301-9.335-.2-15.101h53.162c4.142 0 7.5-3.358 7.5-7.5s-3.358-7.5-7.5-7.5h-63.947v-45h284.969v42.5c0 1.378-1.122 2.5-2.5 2.5h-183.415c-4.142 0-7.5 3.358-7.5 7.5s3.358 7.5 7.5 7.5h183.415c9.649 0 17.5-7.851 17.5-17.5v-50.205c0-15.223-8.995-29.042-22.915-35.204zm-82.053 27.909h-129.032v-132h129.032zm0-189.5v42.5h-195v-45h192.5c1.378 0 2.5 1.122 2.5 2.5zm-327.032-115c0-1.378 1.122-2.5 2.5-2.5h75c1.378 0 2.5 1.122 2.5 2.5v37.5h-80zm-65 52.5h204v15h-55.191c-4.142 0-7.5 3.358-7.5 7.5s3.358 7.5 7.5 7.5h44.208v12.5c0 1.378-1.122 2.5-2.5 2.5-1.863 0-175.514 0-177 0-1.378 0-2.5-1.122-2.5-2.5v-12.5h102.473c4.142 0 7.5-3.358 7.5-7.5s-3.358-7.5-7.5-7.5h-113.49zm204 372h-204v-15h204zm-10.984-42.5v12.5h-182v-12.5c0-1.378 1.122-2.5 2.5-2.5h177c1.379 0 2.5 1.122 2.5 2.5zm4.016-209.5h50.968v132h-50.968z" fill="#000000" data-original="#000000" style="" class=""/><path d="m235.032 187.5h14c4.142 0 7.5-3.358 7.5-7.5s-3.358-7.5-7.5-7.5h-14c-4.142 0-7.5 3.358-7.5 7.5s3.358 7.5 7.5 7.5z" fill="#000000" data-original="#000000" style="" class=""/><path d="m280.032 187.5h14c4.142 0 7.5-3.358 7.5-7.5s-3.358-7.5-7.5-7.5h-14c-4.142 0-7.5 3.358-7.5 7.5s3.358 7.5 7.5 7.5z" fill="#000000" data-original="#000000" style="" class=""/><path d="m325.032 187.5h14c4.142 0 7.5-3.358 7.5-7.5s-3.358-7.5-7.5-7.5h-14c-4.142 0-7.5 3.358-7.5 7.5s3.358 7.5 7.5 7.5z" fill="#000000" data-original="#000000" style="" class=""/><path d="m370.032 187.5h14c4.142 0 7.5-3.358 7.5-7.5s-3.358-7.5-7.5-7.5h-14c-4.142 0-7.5 3.358-7.5 7.5s3.358 7.5 7.5 7.5z" fill="#000000" data-original="#000000" style="" class=""/><path d="m235.032 379.5c-4.142 0-7.5 3.358-7.5 7.5s3.358 7.5 7.5 7.5h14c4.142 0 7.5-3.358 7.5-7.5s-3.358-7.5-7.5-7.5z" fill="#000000" data-original="#000000" style="" class=""/><path d="m294.032 379.5h-14c-4.142 0-7.5 3.358-7.5 7.5s3.358 7.5 7.5 7.5h14c4.142 0 7.5-3.358 7.5-7.5s-3.358-7.5-7.5-7.5z" fill="#000000" data-original="#000000" style="" class=""/><path d="m339.032 394.5c4.142 0 7.5-3.358 7.5-7.5s-3.358-7.5-7.5-7.5h-14c-4.142 0-7.5 3.358-7.5 7.5s3.358 7.5 7.5 7.5z" fill="#000000" data-original="#000000" style="" class=""/><path d="m384.032 394.5c4.142 0 7.5-3.358 7.5-7.5s-3.358-7.5-7.5-7.5h-14c-4.142 0-7.5 3.358-7.5 7.5s3.358 7.5 7.5 7.5z" fill="#000000" data-original="#000000" style="" class=""/><path d="m429.032 394.5c4.142 0 7.5-3.358 7.5-7.5s-3.358-7.5-7.5-7.5h-14c-4.142 0-7.5 3.358-7.5 7.5s3.358 7.5 7.5 7.5z" fill="#000000" data-original="#000000" style="" class=""/><path d="m474.032 394.5c4.142 0 7.5-3.358 7.5-7.5s-3.358-7.5-7.5-7.5h-14c-4.142 0-7.5 3.358-7.5 7.5s3.358 7.5 7.5 7.5z" fill="#000000" data-original="#000000" style="" class=""/></g></g></g></svg>
