<svg id="Capa_1" enable-background="new 0 0 512 512" height="512" viewBox="0 0 512 512" width="512" xmlns="http://www.w3.org/2000/svg"><g><g><path d="m164.066 72.083h-76.116c-7.844 0-14.203 6.359-14.203 14.203v22.535c0 7.844 6.359 14.203 14.203 14.203h76.117c7.844 0 14.203-6.359 14.203-14.203v-22.535c-.001-7.844-6.36-14.203-14.204-14.203z" fill="#eaa895"/><path d="m466.981 439.918h-421.962c-22.632 0-40.978-18.347-40.978-40.978v-254.883c0-22.632 18.347-40.978 40.978-40.978h421.962c22.632 0 40.978 18.347 40.978 40.978v254.883c0 22.631-18.346 40.978-40.978 40.978z" fill="#e9c278"/><circle cx="256" cy="297.179" fill="#eaa895" r="75.148"/><g fill="#f9fbfc"><circle cx="256" cy="297.179" r="25.681"/><path d="m452.029 209.279h-65.983c-8.287 0-15.004-6.718-15.004-15.004v-41.306c0-8.287 6.718-15.004 15.004-15.004h65.983c8.287 0 15.004 6.718 15.004 15.004v41.306c.001 8.287-6.717 15.004-15.004 15.004z"/></g></g><g fill="#f9fbfc"><path d="m497.373 134.74c-1.731 0-3.134 1.403-3.134 3.134s1.403 3.133 3.134 3.133 3.134-1.403 3.134-3.133-1.404-3.134-3.134-3.134z"/><path d="m497.373 154.942c-1.731 0-3.134 1.403-3.134 3.134s1.403 3.133 3.134 3.133 3.134-1.403 3.134-3.133-1.404-3.134-3.134-3.134z"/><path d="m497.373 175.143c-1.731 0-3.134 1.403-3.134 3.134s1.403 3.133 3.134 3.133 3.134-1.403 3.134-3.133-1.404-3.134-3.134-3.134z"/><path d="m497.373 195.345c-1.731 0-3.134 1.403-3.134 3.134s1.403 3.133 3.134 3.133 3.134-1.403 3.134-3.133c-.001-1.73-1.404-3.134-3.134-3.134z"/><path d="m497.373 215.547c-1.731 0-3.134 1.403-3.134 3.134s1.403 3.133 3.134 3.133 3.134-1.403 3.134-3.133-1.404-3.134-3.134-3.134z"/><path d="m497.373 235.749c-1.731 0-3.134 1.403-3.134 3.134s1.403 3.133 3.134 3.133 3.134-1.403 3.134-3.133-1.404-3.134-3.134-3.134z"/><path d="m497.373 255.951c-1.731 0-3.134 1.403-3.134 3.134s1.403 3.133 3.134 3.133 3.134-1.403 3.134-3.133c-.001-1.731-1.404-3.134-3.134-3.134z"/><path d="m497.373 276.153c-1.731 0-3.134 1.403-3.134 3.134s1.403 3.133 3.134 3.133 3.134-1.403 3.134-3.133c-.001-1.731-1.404-3.134-3.134-3.134z"/><path d="m497.373 296.355c-1.731 0-3.134 1.403-3.134 3.134s1.403 3.133 3.134 3.133 3.134-1.403 3.134-3.133c-.001-1.731-1.404-3.134-3.134-3.134z"/><path d="m497.373 316.557c-1.731 0-3.134 1.403-3.134 3.134s1.403 3.133 3.134 3.133 3.134-1.403 3.134-3.133c-.001-1.731-1.404-3.134-3.134-3.134z"/><path d="m497.373 336.759c-1.731 0-3.134 1.403-3.134 3.134s1.403 3.133 3.134 3.133 3.134-1.403 3.134-3.133c-.001-1.731-1.404-3.134-3.134-3.134z"/><path d="m497.373 356.961c-1.731 0-3.134 1.403-3.134 3.134s1.403 3.133 3.134 3.133 3.134-1.403 3.134-3.133c-.001-1.731-1.404-3.134-3.134-3.134z"/><path d="m497.373 377.163c-1.731 0-3.134 1.403-3.134 3.134s1.403 3.133 3.134 3.133 3.134-1.403 3.134-3.133c-.001-1.731-1.404-3.134-3.134-3.134z"/><path d="m497.373 397.365c-1.731 0-3.134 1.403-3.134 3.134s1.403 3.133 3.134 3.133 3.134-1.403 3.134-3.133c-.001-1.731-1.404-3.134-3.134-3.134z"/><path d="m497.373 417.566c-1.731 0-3.134 1.403-3.134 3.134s1.403 3.133 3.134 3.133 3.134-1.403 3.134-3.133c-.001-1.73-1.404-3.134-3.134-3.134z"/><path d="m477.171 114.538c-1.731 0-3.134 1.403-3.134 3.134s1.403 3.133 3.134 3.133 3.134-1.403 3.134-3.133-1.404-3.134-3.134-3.134z"/><path d="m487.652 124.258c-1.73 0-3.134 1.403-3.134 3.134s1.403 3.133 3.134 3.133 3.134-1.403 3.134-3.133-1.404-3.134-3.134-3.134z"/><path d="m477.171 134.74c-1.731 0-3.134 1.403-3.134 3.134s1.403 3.133 3.134 3.133 3.134-1.403 3.134-3.133-1.404-3.134-3.134-3.134z"/><path d="m487.652 144.46c-1.73 0-3.134 1.403-3.134 3.134s1.403 3.133 3.134 3.133 3.134-1.403 3.134-3.133-1.404-3.134-3.134-3.134z"/><path d="m477.171 154.942c-1.731 0-3.134 1.403-3.134 3.134s1.403 3.133 3.134 3.133 3.134-1.403 3.134-3.133-1.404-3.134-3.134-3.134z"/><path d="m487.652 164.662c-1.73 0-3.134 1.403-3.134 3.134s1.403 3.133 3.134 3.133 3.134-1.403 3.134-3.133-1.404-3.134-3.134-3.134z"/><path d="m477.171 175.143c-1.731 0-3.134 1.403-3.134 3.134s1.403 3.133 3.134 3.133 3.134-1.403 3.134-3.133-1.404-3.134-3.134-3.134z"/><path d="m487.652 184.864c-1.73 0-3.134 1.403-3.134 3.134s1.403 3.133 3.134 3.133 3.134-1.403 3.134-3.133c0-1.731-1.404-3.134-3.134-3.134z"/><path d="m477.171 195.345c-1.731 0-3.134 1.403-3.134 3.134s1.403 3.133 3.134 3.133 3.134-1.403 3.134-3.133c-.001-1.73-1.404-3.134-3.134-3.134z"/><path d="m487.652 205.066c-1.73 0-3.134 1.403-3.134 3.134s1.403 3.133 3.134 3.133 3.134-1.403 3.134-3.133-1.404-3.134-3.134-3.134z"/><path d="m477.171 215.547c-1.731 0-3.134 1.403-3.134 3.134s1.403 3.133 3.134 3.133 3.134-1.403 3.134-3.133-1.404-3.134-3.134-3.134z"/><path d="m487.652 225.268c-1.73 0-3.134 1.403-3.134 3.134s1.403 3.133 3.134 3.133 3.134-1.403 3.134-3.133-1.404-3.134-3.134-3.134z"/><path d="m477.171 235.749c-1.731 0-3.134 1.403-3.134 3.134s1.403 3.133 3.134 3.133 3.134-1.403 3.134-3.133-1.404-3.134-3.134-3.134z"/><path d="m487.652 245.47c-1.73 0-3.134 1.403-3.134 3.134s1.403 3.133 3.134 3.133 3.134-1.403 3.134-3.133c0-1.731-1.404-3.134-3.134-3.134z"/><path d="m477.171 255.951c-1.731 0-3.134 1.403-3.134 3.134s1.403 3.133 3.134 3.133 3.134-1.403 3.134-3.133c-.001-1.731-1.404-3.134-3.134-3.134z"/><path d="m487.652 265.672c-1.73 0-3.134 1.403-3.134 3.134s1.403 3.133 3.134 3.133 3.134-1.403 3.134-3.133c0-1.731-1.404-3.134-3.134-3.134z"/><path d="m477.171 276.153c-1.731 0-3.134 1.403-3.134 3.134s1.403 3.133 3.134 3.133 3.134-1.403 3.134-3.133c-.001-1.731-1.404-3.134-3.134-3.134z"/><path d="m487.652 285.874c-1.73 0-3.134 1.403-3.134 3.134s1.403 3.133 3.134 3.133 3.134-1.403 3.134-3.133c0-1.731-1.404-3.134-3.134-3.134z"/><path d="m477.171 296.355c-1.731 0-3.134 1.403-3.134 3.134s1.403 3.133 3.134 3.133 3.134-1.403 3.134-3.133c-.001-1.731-1.404-3.134-3.134-3.134z"/><path d="m487.652 306.076c-1.73 0-3.134 1.403-3.134 3.134s1.403 3.133 3.134 3.133 3.134-1.403 3.134-3.133c0-1.731-1.404-3.134-3.134-3.134z"/><path d="m477.171 316.557c-1.731 0-3.134 1.403-3.134 3.134s1.403 3.133 3.134 3.133 3.134-1.403 3.134-3.133c-.001-1.731-1.404-3.134-3.134-3.134z"/><path d="m487.652 326.278c-1.73 0-3.134 1.403-3.134 3.134s1.403 3.133 3.134 3.133 3.134-1.403 3.134-3.133c0-1.731-1.404-3.134-3.134-3.134z"/><path d="m477.171 336.759c-1.731 0-3.134 1.403-3.134 3.134s1.403 3.133 3.134 3.133 3.134-1.403 3.134-3.133c-.001-1.731-1.404-3.134-3.134-3.134z"/><path d="m487.652 346.479c-1.73 0-3.134 1.403-3.134 3.134s1.403 3.133 3.134 3.133 3.134-1.403 3.134-3.133-1.404-3.134-3.134-3.134z"/><path d="m477.171 356.961c-1.731 0-3.134 1.403-3.134 3.134s1.403 3.133 3.134 3.133 3.134-1.403 3.134-3.133c-.001-1.731-1.404-3.134-3.134-3.134z"/><path d="m487.652 366.681c-1.73 0-3.134 1.403-3.134 3.134s1.403 3.133 3.134 3.133 3.134-1.403 3.134-3.133-1.404-3.134-3.134-3.134z"/><path d="m477.171 377.163c-1.731 0-3.134 1.403-3.134 3.134s1.403 3.133 3.134 3.133 3.134-1.403 3.134-3.133c-.001-1.731-1.404-3.134-3.134-3.134z"/><path d="m487.652 386.883c-1.73 0-3.134 1.403-3.134 3.134s1.403 3.133 3.134 3.133 3.134-1.403 3.134-3.133c0-1.731-1.404-3.134-3.134-3.134z"/><path d="m477.171 397.365c-1.731 0-3.134 1.403-3.134 3.134s1.403 3.133 3.134 3.133 3.134-1.403 3.134-3.133c-.001-1.731-1.404-3.134-3.134-3.134z"/><path d="m487.652 407.085c-1.73 0-3.134 1.403-3.134 3.134s1.403 3.133 3.134 3.133 3.134-1.403 3.134-3.133c0-1.731-1.404-3.134-3.134-3.134z"/><path d="m477.171 417.566c-1.731 0-3.134 1.403-3.134 3.134s1.403 3.133 3.134 3.133 3.134-1.403 3.134-3.133c-.001-1.73-1.404-3.134-3.134-3.134z"/><path d="m487.652 427.287c-1.73 0-3.134 1.403-3.134 3.134s1.403 3.133 3.134 3.133 3.134-1.403 3.134-3.133c0-1.731-1.404-3.134-3.134-3.134z"/><path d="m464.316 107.19c0 1.731 1.403 3.133 3.134 3.133s3.134-1.403 3.134-3.133c0-1.731-1.403-3.134-3.134-3.134-1.731.001-3.134 1.404-3.134 3.134z"/><path d="m456.969 114.538c-1.731 0-3.134 1.403-3.134 3.134s1.403 3.133 3.134 3.133 3.134-1.403 3.134-3.133-1.404-3.134-3.134-3.134z"/><path d="m467.45 124.258c-1.731 0-3.134 1.403-3.134 3.134s1.403 3.133 3.134 3.133 3.134-1.403 3.134-3.133-1.403-3.134-3.134-3.134z"/><path d="m467.45 205.066c-1.731 0-3.134 1.403-3.134 3.134s1.403 3.133 3.134 3.133 3.134-1.403 3.134-3.133-1.403-3.134-3.134-3.134z"/><path d="m456.969 215.547c-1.731 0-3.134 1.403-3.134 3.134s1.403 3.133 3.134 3.133 3.134-1.403 3.134-3.133-1.404-3.134-3.134-3.134z"/><path d="m467.45 225.268c-1.731 0-3.134 1.403-3.134 3.134s1.403 3.133 3.134 3.133 3.134-1.403 3.134-3.133-1.403-3.134-3.134-3.134z"/><path d="m456.969 235.749c-1.731 0-3.134 1.403-3.134 3.134s1.403 3.133 3.134 3.133 3.134-1.403 3.134-3.133-1.404-3.134-3.134-3.134z"/><path d="m467.45 245.47c-1.731 0-3.134 1.403-3.134 3.134s1.403 3.133 3.134 3.133 3.134-1.403 3.134-3.133c0-1.731-1.403-3.134-3.134-3.134z"/><path d="m456.969 255.951c-1.731 0-3.134 1.403-3.134 3.134s1.403 3.133 3.134 3.133 3.134-1.403 3.134-3.133c-.001-1.731-1.404-3.134-3.134-3.134z"/><path d="m467.45 265.672c-1.731 0-3.134 1.403-3.134 3.134s1.403 3.133 3.134 3.133 3.134-1.403 3.134-3.133c0-1.731-1.403-3.134-3.134-3.134z"/><path d="m456.969 276.153c-1.731 0-3.134 1.403-3.134 3.134s1.403 3.133 3.134 3.133 3.134-1.403 3.134-3.133c-.001-1.731-1.404-3.134-3.134-3.134z"/><path d="m467.45 285.874c-1.731 0-3.134 1.403-3.134 3.134s1.403 3.133 3.134 3.133 3.134-1.403 3.134-3.133c0-1.731-1.403-3.134-3.134-3.134z"/><path d="m456.969 296.355c-1.731 0-3.134 1.403-3.134 3.134s1.403 3.133 3.134 3.133 3.134-1.403 3.134-3.133c-.001-1.731-1.404-3.134-3.134-3.134z"/><path d="m467.45 306.076c-1.731 0-3.134 1.403-3.134 3.134s1.403 3.133 3.134 3.133 3.134-1.403 3.134-3.133c0-1.731-1.403-3.134-3.134-3.134z"/><path d="m456.969 316.557c-1.731 0-3.134 1.403-3.134 3.134s1.403 3.133 3.134 3.133 3.134-1.403 3.134-3.133c-.001-1.731-1.404-3.134-3.134-3.134z"/><path d="m467.45 326.278c-1.731 0-3.134 1.403-3.134 3.134s1.403 3.133 3.134 3.133 3.134-1.403 3.134-3.133c0-1.731-1.403-3.134-3.134-3.134z"/><path d="m456.969 336.759c-1.731 0-3.134 1.403-3.134 3.134s1.403 3.133 3.134 3.133 3.134-1.403 3.134-3.133c-.001-1.731-1.404-3.134-3.134-3.134z"/><path d="m467.45 346.479c-1.731 0-3.134 1.403-3.134 3.134s1.403 3.133 3.134 3.133 3.134-1.403 3.134-3.133-1.403-3.134-3.134-3.134z"/><path d="m456.969 356.961c-1.731 0-3.134 1.403-3.134 3.134s1.403 3.133 3.134 3.133 3.134-1.403 3.134-3.133c-.001-1.731-1.404-3.134-3.134-3.134z"/><path d="m467.45 366.681c-1.731 0-3.134 1.403-3.134 3.134s1.403 3.133 3.134 3.133 3.134-1.403 3.134-3.133-1.403-3.134-3.134-3.134z"/><path d="m456.969 377.163c-1.731 0-3.134 1.403-3.134 3.134s1.403 3.133 3.134 3.133 3.134-1.403 3.134-3.133c-.001-1.731-1.404-3.134-3.134-3.134z"/><path d="m467.45 386.883c-1.731 0-3.134 1.403-3.134 3.134s1.403 3.133 3.134 3.133 3.134-1.403 3.134-3.133c0-1.731-1.403-3.134-3.134-3.134z"/><path d="m456.969 397.365c-1.731 0-3.134 1.403-3.134 3.134s1.403 3.133 3.134 3.133 3.134-1.403 3.134-3.133c-.001-1.731-1.404-3.134-3.134-3.134z"/><path d="m467.45 407.085c-1.731 0-3.134 1.403-3.134 3.134s1.403 3.133 3.134 3.133 3.134-1.403 3.134-3.133c0-1.731-1.403-3.134-3.134-3.134z"/><path d="m456.969 417.566c-1.731 0-3.134 1.403-3.134 3.134s1.403 3.133 3.134 3.133 3.134-1.403 3.134-3.133c-.001-1.73-1.404-3.134-3.134-3.134z"/><path d="m470.584 430.421c0-1.731-1.403-3.134-3.134-3.134s-3.134 1.403-3.134 3.134 1.403 3.133 3.134 3.133 3.134-1.402 3.134-3.133z"/><path d="m447.248 104.057c-1.731 0-3.134 1.403-3.134 3.134s1.403 3.133 3.134 3.133 3.134-1.403 3.134-3.133c0-1.731-1.403-3.134-3.134-3.134z"/><path d="m447.248 124.258c-1.731 0-3.134 1.403-3.134 3.134s1.403 3.133 3.134 3.133 3.134-1.403 3.134-3.133-1.403-3.134-3.134-3.134z"/><path d="m447.248 225.268c-1.731 0-3.134 1.403-3.134 3.134s1.403 3.133 3.134 3.133 3.134-1.403 3.134-3.133-1.403-3.134-3.134-3.134z"/><path d="m447.248 245.47c-1.731 0-3.134 1.403-3.134 3.134s1.403 3.133 3.134 3.133 3.134-1.403 3.134-3.133c0-1.731-1.403-3.134-3.134-3.134z"/><path d="m447.248 265.672c-1.731 0-3.134 1.403-3.134 3.134s1.403 3.133 3.134 3.133 3.134-1.403 3.134-3.133c0-1.731-1.403-3.134-3.134-3.134z"/><path d="m447.248 285.874c-1.731 0-3.134 1.403-3.134 3.134s1.403 3.133 3.134 3.133 3.134-1.403 3.134-3.133c0-1.731-1.403-3.134-3.134-3.134z"/><path d="m447.248 306.076c-1.731 0-3.134 1.403-3.134 3.134s1.403 3.133 3.134 3.133 3.134-1.403 3.134-3.133c0-1.731-1.403-3.134-3.134-3.134z"/><path d="m447.248 326.278c-1.731 0-3.134 1.403-3.134 3.134s1.403 3.133 3.134 3.133 3.134-1.403 3.134-3.133c0-1.731-1.403-3.134-3.134-3.134z"/><path d="m447.248 346.479c-1.731 0-3.134 1.403-3.134 3.134s1.403 3.133 3.134 3.133 3.134-1.403 3.134-3.133-1.403-3.134-3.134-3.134z"/><path d="m436.767 356.961c-1.731 0-3.134 1.403-3.134 3.134s1.403 3.133 3.134 3.133 3.134-1.403 3.134-3.133c-.001-1.731-1.404-3.134-3.134-3.134z"/><path d="m447.248 366.681c-1.731 0-3.134 1.403-3.134 3.134s1.403 3.133 3.134 3.133 3.134-1.403 3.134-3.133-1.403-3.134-3.134-3.134z"/><path d="m436.767 377.163c-1.731 0-3.134 1.403-3.134 3.134s1.403 3.133 3.134 3.133 3.134-1.403 3.134-3.133c-.001-1.731-1.404-3.134-3.134-3.134z"/><path d="m447.248 386.883c-1.731 0-3.134 1.403-3.134 3.134s1.403 3.133 3.134 3.133 3.134-1.403 3.134-3.133c0-1.731-1.403-3.134-3.134-3.134z"/><path d="m436.767 397.365c-1.731 0-3.134 1.403-3.134 3.134s1.403 3.133 3.134 3.133 3.134-1.403 3.134-3.133c-.001-1.731-1.404-3.134-3.134-3.134z"/><path d="m447.248 407.085c-1.731 0-3.134 1.403-3.134 3.134s1.403 3.133 3.134 3.133 3.134-1.403 3.134-3.133c0-1.731-1.403-3.134-3.134-3.134z"/><path d="m436.767 417.566c-1.731 0-3.134 1.403-3.134 3.134s1.403 3.133 3.134 3.133 3.134-1.403 3.134-3.133c-.001-1.73-1.404-3.134-3.134-3.134z"/><path d="m447.248 427.287c-1.731 0-3.134 1.403-3.134 3.134s1.403 3.133 3.134 3.133 3.134-1.403 3.134-3.133c0-1.731-1.403-3.134-3.134-3.134z"/><path d="m427.046 366.681c-1.731 0-3.134 1.403-3.134 3.134s1.403 3.133 3.134 3.133 3.134-1.403 3.134-3.133-1.403-3.134-3.134-3.134z"/><path d="m416.565 377.163c-1.731 0-3.134 1.403-3.134 3.134s1.403 3.133 3.134 3.133 3.133-1.403 3.133-3.133c0-1.731-1.402-3.134-3.133-3.134z"/><path d="m427.046 386.883c-1.731 0-3.134 1.403-3.134 3.134s1.403 3.133 3.134 3.133 3.134-1.403 3.134-3.133c0-1.731-1.403-3.134-3.134-3.134z"/><path d="m416.565 397.365c-1.731 0-3.134 1.403-3.134 3.134s1.403 3.133 3.134 3.133 3.133-1.403 3.133-3.133c0-1.731-1.402-3.134-3.133-3.134z"/><path d="m427.046 407.085c-1.731 0-3.134 1.403-3.134 3.134s1.403 3.133 3.134 3.133 3.134-1.403 3.134-3.133c0-1.731-1.403-3.134-3.134-3.134z"/><path d="m416.565 417.566c-1.731 0-3.134 1.403-3.134 3.134s1.403 3.133 3.134 3.133 3.133-1.403 3.133-3.133-1.402-3.134-3.133-3.134z"/><path d="m427.046 427.287c-1.731 0-3.134 1.403-3.134 3.134s1.403 3.133 3.134 3.133 3.134-1.403 3.134-3.133c0-1.731-1.403-3.134-3.134-3.134z"/><path d="m396.363 377.163c-1.731 0-3.134 1.403-3.134 3.134s1.403 3.133 3.134 3.133 3.133-1.403 3.133-3.133c.001-1.731-1.402-3.134-3.133-3.134z"/><path d="m406.844 386.883c-1.731 0-3.134 1.403-3.134 3.134s1.403 3.133 3.134 3.133 3.134-1.403 3.134-3.133c0-1.731-1.403-3.134-3.134-3.134z"/><path d="m396.363 397.365c-1.731 0-3.134 1.403-3.134 3.134s1.403 3.133 3.134 3.133 3.133-1.403 3.133-3.133c.001-1.731-1.402-3.134-3.133-3.134z"/><path d="m406.844 407.085c-1.731 0-3.134 1.403-3.134 3.134s1.403 3.133 3.134 3.133 3.134-1.403 3.134-3.133c0-1.731-1.403-3.134-3.134-3.134z"/><path d="m396.363 417.566c-1.731 0-3.134 1.403-3.134 3.134s1.403 3.133 3.134 3.133 3.133-1.403 3.133-3.133c.001-1.73-1.402-3.134-3.133-3.134z"/><path d="m406.844 427.287c-1.731 0-3.134 1.403-3.134 3.134s1.403 3.133 3.134 3.133 3.134-1.403 3.134-3.133c0-1.731-1.403-3.134-3.134-3.134z"/><path d="m376.161 377.163c-1.731 0-3.134 1.403-3.134 3.134s1.403 3.133 3.134 3.133 3.133-1.403 3.133-3.133c.001-1.731-1.402-3.134-3.133-3.134z"/><path d="m386.642 386.883c-1.731 0-3.134 1.403-3.134 3.134s1.403 3.133 3.134 3.133 3.134-1.403 3.134-3.133c0-1.731-1.403-3.134-3.134-3.134z"/><path d="m376.161 397.365c-1.731 0-3.134 1.403-3.134 3.134s1.403 3.133 3.134 3.133 3.133-1.403 3.133-3.133c.001-1.731-1.402-3.134-3.133-3.134z"/><path d="m386.642 407.085c-1.731 0-3.134 1.403-3.134 3.134s1.403 3.133 3.134 3.133 3.134-1.403 3.134-3.133c0-1.731-1.403-3.134-3.134-3.134z"/><path d="m376.161 417.566c-1.731 0-3.134 1.403-3.134 3.134s1.403 3.133 3.134 3.133 3.133-1.403 3.133-3.133c.001-1.73-1.402-3.134-3.133-3.134z"/><path d="m386.642 427.287c-1.731 0-3.134 1.403-3.134 3.134s1.403 3.133 3.134 3.133 3.134-1.403 3.134-3.133c0-1.731-1.403-3.134-3.134-3.134z"/><path d="m355.959 377.163c-1.731 0-3.134 1.403-3.134 3.134s1.403 3.133 3.134 3.133 3.134-1.403 3.134-3.133c0-1.731-1.403-3.134-3.134-3.134z"/><path d="m366.44 386.883c-1.731 0-3.134 1.403-3.134 3.134s1.403 3.133 3.134 3.133 3.134-1.403 3.134-3.133c0-1.731-1.403-3.134-3.134-3.134z"/><path d="m355.959 397.365c-1.731 0-3.134 1.403-3.134 3.134s1.403 3.133 3.134 3.133 3.134-1.403 3.134-3.133c0-1.731-1.403-3.134-3.134-3.134z"/><path d="m366.44 407.085c-1.731 0-3.134 1.403-3.134 3.134s1.403 3.133 3.134 3.133 3.134-1.403 3.134-3.133c0-1.731-1.403-3.134-3.134-3.134z"/><path d="m355.959 417.566c-1.731 0-3.134 1.403-3.134 3.134s1.403 3.133 3.134 3.133 3.134-1.403 3.134-3.133-1.403-3.134-3.134-3.134z"/><path d="m366.44 427.287c-1.731 0-3.134 1.403-3.134 3.134s1.403 3.133 3.134 3.133 3.134-1.403 3.134-3.133c0-1.731-1.403-3.134-3.134-3.134z"/><path d="m335.757 377.163c-1.731 0-3.134 1.403-3.134 3.134s1.403 3.133 3.134 3.133 3.134-1.403 3.134-3.133c0-1.731-1.403-3.134-3.134-3.134z"/><path d="m346.239 386.883c-1.731 0-3.134 1.403-3.134 3.134s1.403 3.133 3.134 3.133 3.134-1.403 3.134-3.133c-.001-1.731-1.404-3.134-3.134-3.134z"/><path d="m335.757 397.365c-1.731 0-3.134 1.403-3.134 3.134s1.403 3.133 3.134 3.133 3.134-1.403 3.134-3.133c0-1.731-1.403-3.134-3.134-3.134z"/><path d="m346.239 407.085c-1.731 0-3.134 1.403-3.134 3.134s1.403 3.133 3.134 3.133 3.134-1.403 3.134-3.133c-.001-1.731-1.404-3.134-3.134-3.134z"/><path d="m335.757 417.566c-1.731 0-3.134 1.403-3.134 3.134s1.403 3.133 3.134 3.133 3.134-1.403 3.134-3.133-1.403-3.134-3.134-3.134z"/><path d="m346.239 427.287c-1.731 0-3.134 1.403-3.134 3.134s1.403 3.133 3.134 3.133 3.134-1.403 3.134-3.133c-.001-1.731-1.404-3.134-3.134-3.134z"/><path d="m315.555 377.163c-1.731 0-3.134 1.403-3.134 3.134s1.403 3.133 3.134 3.133 3.134-1.403 3.134-3.133c0-1.731-1.403-3.134-3.134-3.134z"/><path d="m326.037 386.883c-1.731 0-3.134 1.403-3.134 3.134s1.403 3.133 3.134 3.133 3.134-1.403 3.134-3.133c-.001-1.731-1.404-3.134-3.134-3.134z"/><path d="m315.555 397.365c-1.731 0-3.134 1.403-3.134 3.134s1.403 3.133 3.134 3.133 3.134-1.403 3.134-3.133c0-1.731-1.403-3.134-3.134-3.134z"/><path d="m326.037 407.085c-1.731 0-3.134 1.403-3.134 3.134s1.403 3.133 3.134 3.133 3.134-1.403 3.134-3.133c-.001-1.731-1.404-3.134-3.134-3.134z"/><path d="m315.555 417.566c-1.731 0-3.134 1.403-3.134 3.134s1.403 3.133 3.134 3.133 3.134-1.403 3.134-3.133-1.403-3.134-3.134-3.134z"/><path d="m326.037 427.287c-1.731 0-3.134 1.403-3.134 3.134s1.403 3.133 3.134 3.133 3.134-1.403 3.134-3.133c-.001-1.731-1.404-3.134-3.134-3.134z"/><path d="m295.353 377.163c-1.731 0-3.134 1.403-3.134 3.134s1.403 3.133 3.134 3.133 3.134-1.403 3.134-3.133c0-1.731-1.403-3.134-3.134-3.134z"/><path d="m305.835 386.883c-1.73 0-3.134 1.403-3.134 3.134s1.403 3.133 3.134 3.133 3.134-1.403 3.134-3.133c-.001-1.731-1.404-3.134-3.134-3.134z"/><path d="m295.353 397.365c-1.731 0-3.134 1.403-3.134 3.134s1.403 3.133 3.134 3.133 3.134-1.403 3.134-3.133c0-1.731-1.403-3.134-3.134-3.134z"/><path d="m305.835 407.085c-1.73 0-3.134 1.403-3.134 3.134s1.403 3.133 3.134 3.133 3.134-1.403 3.134-3.133c-.001-1.731-1.404-3.134-3.134-3.134z"/><path d="m295.353 417.566c-1.731 0-3.134 1.403-3.134 3.134s1.403 3.133 3.134 3.133 3.134-1.403 3.134-3.133-1.403-3.134-3.134-3.134z"/><path d="m305.835 427.287c-1.73 0-3.134 1.403-3.134 3.134s1.403 3.133 3.134 3.133 3.134-1.403 3.134-3.133c-.001-1.731-1.404-3.134-3.134-3.134z"/><path d="m275.152 377.163c-1.731 0-3.134 1.403-3.134 3.134s1.403 3.133 3.134 3.133 3.134-1.403 3.134-3.133c-.001-1.731-1.404-3.134-3.134-3.134z"/><path d="m285.633 386.883c-1.73 0-3.134 1.403-3.134 3.134s1.403 3.133 3.134 3.133 3.134-1.403 3.134-3.133c-.001-1.731-1.404-3.134-3.134-3.134z"/><path d="m275.152 397.365c-1.731 0-3.134 1.403-3.134 3.134s1.403 3.133 3.134 3.133 3.134-1.403 3.134-3.133c-.001-1.731-1.404-3.134-3.134-3.134z"/><path d="m285.633 407.085c-1.73 0-3.134 1.403-3.134 3.134s1.403 3.133 3.134 3.133 3.134-1.403 3.134-3.133c-.001-1.731-1.404-3.134-3.134-3.134z"/><path d="m275.152 417.566c-1.731 0-3.134 1.403-3.134 3.134s1.403 3.133 3.134 3.133 3.134-1.403 3.134-3.133c-.001-1.73-1.404-3.134-3.134-3.134z"/><path d="m285.633 427.287c-1.73 0-3.134 1.403-3.134 3.134s1.403 3.133 3.134 3.133 3.134-1.403 3.134-3.133c-.001-1.731-1.404-3.134-3.134-3.134z"/><path d="m254.95 377.163c-1.731 0-3.134 1.403-3.134 3.134s1.403 3.133 3.134 3.133 3.134-1.403 3.134-3.133c-.001-1.731-1.404-3.134-3.134-3.134z"/><path d="m265.431 386.883c-1.73 0-3.134 1.403-3.134 3.134s1.403 3.133 3.134 3.133 3.134-1.403 3.134-3.133c0-1.731-1.404-3.134-3.134-3.134z"/><path d="m254.95 397.365c-1.731 0-3.134 1.403-3.134 3.134s1.403 3.133 3.134 3.133 3.134-1.403 3.134-3.133c-.001-1.731-1.404-3.134-3.134-3.134z"/><path d="m265.431 407.085c-1.73 0-3.134 1.403-3.134 3.134s1.403 3.133 3.134 3.133 3.134-1.403 3.134-3.133c0-1.731-1.404-3.134-3.134-3.134z"/><path d="m254.95 417.566c-1.731 0-3.134 1.403-3.134 3.134s1.403 3.133 3.134 3.133 3.134-1.403 3.134-3.133c-.001-1.73-1.404-3.134-3.134-3.134z"/><path d="m265.431 427.287c-1.73 0-3.134 1.403-3.134 3.134s1.403 3.133 3.134 3.133 3.134-1.403 3.134-3.133c0-1.731-1.404-3.134-3.134-3.134z"/><path d="m234.748 377.163c-1.731 0-3.134 1.403-3.134 3.134s1.403 3.133 3.134 3.133 3.134-1.403 3.134-3.133c-.001-1.731-1.404-3.134-3.134-3.134z"/><path d="m245.229 386.883c-1.731 0-3.134 1.403-3.134 3.134s1.403 3.133 3.134 3.133 3.134-1.403 3.134-3.133c0-1.731-1.403-3.134-3.134-3.134z"/><path d="m234.748 397.365c-1.731 0-3.134 1.403-3.134 3.134s1.403 3.133 3.134 3.133 3.134-1.403 3.134-3.133c-.001-1.731-1.404-3.134-3.134-3.134z"/><path d="m245.229 407.085c-1.731 0-3.134 1.403-3.134 3.134s1.403 3.133 3.134 3.133 3.134-1.403 3.134-3.133c0-1.731-1.403-3.134-3.134-3.134z"/><path d="m234.748 417.566c-1.731 0-3.134 1.403-3.134 3.134s1.403 3.133 3.134 3.133 3.134-1.403 3.134-3.133c-.001-1.73-1.404-3.134-3.134-3.134z"/><path d="m245.229 427.287c-1.731 0-3.134 1.403-3.134 3.134s1.403 3.133 3.134 3.133 3.134-1.403 3.134-3.133c0-1.731-1.403-3.134-3.134-3.134z"/><path d="m214.546 377.163c-1.731 0-3.134 1.403-3.134 3.134s1.403 3.133 3.134 3.133 3.133-1.403 3.133-3.133c0-1.731-1.403-3.134-3.133-3.134z"/><path d="m225.027 386.883c-1.73 0-3.134 1.403-3.134 3.134s1.403 3.133 3.134 3.133 3.134-1.403 3.134-3.133c0-1.731-1.403-3.134-3.134-3.134z"/><path d="m214.546 397.365c-1.731 0-3.134 1.403-3.134 3.134s1.403 3.133 3.134 3.133 3.133-1.403 3.133-3.133c0-1.731-1.403-3.134-3.133-3.134z"/><path d="m225.027 407.085c-1.73 0-3.134 1.403-3.134 3.134s1.403 3.133 3.134 3.133 3.134-1.403 3.134-3.133c0-1.731-1.403-3.134-3.134-3.134z"/><path d="m214.546 417.566c-1.731 0-3.134 1.403-3.134 3.134s1.403 3.133 3.134 3.133 3.133-1.403 3.133-3.133-1.403-3.134-3.133-3.134z"/><path d="m225.027 427.287c-1.73 0-3.134 1.403-3.134 3.134s1.403 3.133 3.134 3.133 3.134-1.403 3.134-3.133c0-1.731-1.403-3.134-3.134-3.134z"/><path d="m194.344 377.163c-1.731 0-3.134 1.403-3.134 3.134s1.403 3.133 3.134 3.133 3.133-1.403 3.133-3.133c0-1.731-1.402-3.134-3.133-3.134z"/><path d="m204.825 386.883c-1.73 0-3.134 1.403-3.134 3.134s1.403 3.133 3.134 3.133 3.134-1.403 3.134-3.133c0-1.731-1.403-3.134-3.134-3.134z"/><path d="m194.344 397.365c-1.731 0-3.134 1.403-3.134 3.134s1.403 3.133 3.134 3.133 3.133-1.403 3.133-3.133c0-1.731-1.402-3.134-3.133-3.134z"/><path d="m204.825 407.085c-1.73 0-3.134 1.403-3.134 3.134s1.403 3.133 3.134 3.133 3.134-1.403 3.134-3.133c0-1.731-1.403-3.134-3.134-3.134z"/><path d="m194.344 417.566c-1.731 0-3.134 1.403-3.134 3.134s1.403 3.133 3.134 3.133 3.133-1.403 3.133-3.133-1.402-3.134-3.133-3.134z"/><path d="m204.825 427.287c-1.73 0-3.134 1.403-3.134 3.134s1.403 3.133 3.134 3.133 3.134-1.403 3.134-3.133c0-1.731-1.403-3.134-3.134-3.134z"/><path d="m174.142 377.163c-1.731 0-3.134 1.403-3.134 3.134s1.403 3.133 3.134 3.133 3.133-1.403 3.133-3.133c.001-1.731-1.402-3.134-3.133-3.134z"/><path d="m184.623 386.883c-1.731 0-3.134 1.403-3.134 3.134s1.403 3.133 3.134 3.133 3.134-1.403 3.134-3.133c0-1.731-1.403-3.134-3.134-3.134z"/><path d="m174.142 397.365c-1.731 0-3.134 1.403-3.134 3.134s1.403 3.133 3.134 3.133 3.133-1.403 3.133-3.133c.001-1.731-1.402-3.134-3.133-3.134z"/><path d="m184.623 407.085c-1.731 0-3.134 1.403-3.134 3.134s1.403 3.133 3.134 3.133 3.134-1.403 3.134-3.133c0-1.731-1.403-3.134-3.134-3.134z"/><path d="m174.142 417.566c-1.731 0-3.134 1.403-3.134 3.134s1.403 3.133 3.134 3.133 3.133-1.403 3.133-3.133c.001-1.73-1.402-3.134-3.133-3.134z"/><path d="m184.623 427.287c-1.731 0-3.134 1.403-3.134 3.134s1.403 3.133 3.134 3.133 3.134-1.403 3.134-3.133c0-1.731-1.403-3.134-3.134-3.134z"/><path d="m153.94 377.163c-1.731 0-3.134 1.403-3.134 3.134s1.403 3.133 3.134 3.133 3.134-1.403 3.134-3.133c0-1.731-1.403-3.134-3.134-3.134z"/><path d="m164.421 386.883c-1.731 0-3.134 1.403-3.134 3.134s1.403 3.133 3.134 3.133 3.134-1.403 3.134-3.133c0-1.731-1.403-3.134-3.134-3.134z"/><path d="m153.94 397.365c-1.731 0-3.134 1.403-3.134 3.134s1.403 3.133 3.134 3.133 3.134-1.403 3.134-3.133c0-1.731-1.403-3.134-3.134-3.134z"/><path d="m164.421 407.085c-1.731 0-3.134 1.403-3.134 3.134s1.403 3.133 3.134 3.133 3.134-1.403 3.134-3.133c0-1.731-1.403-3.134-3.134-3.134z"/><path d="m153.94 417.566c-1.731 0-3.134 1.403-3.134 3.134s1.403 3.133 3.134 3.133 3.134-1.403 3.134-3.133-1.403-3.134-3.134-3.134z"/><path d="m164.421 427.287c-1.731 0-3.134 1.403-3.134 3.134s1.403 3.133 3.134 3.133 3.134-1.403 3.134-3.133c0-1.731-1.403-3.134-3.134-3.134z"/><path d="m133.738 377.163c-1.731 0-3.134 1.403-3.134 3.134s1.403 3.133 3.134 3.133 3.133-1.403 3.133-3.133c.001-1.731-1.402-3.134-3.133-3.134z"/><path d="m144.219 386.883c-1.731 0-3.134 1.403-3.134 3.134s1.403 3.133 3.134 3.133 3.134-1.403 3.134-3.133c0-1.731-1.403-3.134-3.134-3.134z"/><path d="m133.738 397.365c-1.731 0-3.134 1.403-3.134 3.134s1.403 3.133 3.134 3.133 3.133-1.403 3.133-3.133c.001-1.731-1.402-3.134-3.133-3.134z"/><path d="m144.219 407.085c-1.731 0-3.134 1.403-3.134 3.134s1.403 3.133 3.134 3.133 3.134-1.403 3.134-3.133c0-1.731-1.403-3.134-3.134-3.134z"/><path d="m133.738 417.566c-1.731 0-3.134 1.403-3.134 3.134s1.403 3.133 3.134 3.133 3.133-1.403 3.133-3.133c.001-1.73-1.402-3.134-3.133-3.134z"/><path d="m144.219 427.287c-1.731 0-3.134 1.403-3.134 3.134s1.403 3.133 3.134 3.133 3.134-1.403 3.134-3.133c0-1.731-1.403-3.134-3.134-3.134z"/><path d="m124.018 386.883c-1.731 0-3.134 1.403-3.134 3.134s1.403 3.133 3.134 3.133 3.134-1.403 3.134-3.133c-.001-1.731-1.404-3.134-3.134-3.134z"/></g><g fill="#31373d"><path d="m466.981 99.038h-284.672v-12.753c0-10.06-8.184-18.243-18.243-18.243h-76.116c-10.059 0-18.243 8.183-18.243 18.243v12.752h-24.688c-24.824.001-45.019 20.197-45.019 45.02v254.882c0 24.823 20.195 45.018 45.019 45.018h421.962c24.823 0 45.019-20.195 45.019-45.018v-254.882c0-24.823-20.196-45.019-45.019-45.019zm-389.194-12.753c0-5.604 4.559-10.162 10.162-10.162h76.116c5.604 0 10.163 4.558 10.163 10.162v12.752h-96.441zm426.132 312.654c0 20.368-16.57 36.938-36.938 36.938h-327.184l-20.895-48.303c-17.448-40.334-14.362-86.908 8.256-124.586 15.706-26.165 22.672-56.069 20.143-86.48l-5.768-69.389h325.449c20.368 0 36.938 16.571 36.938 36.939v254.881z"/><path d="m256 217.99c-43.665 0-79.189 35.524-79.189 79.189s35.524 79.189 79.189 79.189 79.189-35.524 79.189-79.189-35.524-79.189-79.189-79.189zm0 150.297c-39.209 0-71.108-31.899-71.108-71.108s31.899-71.108 71.108-71.108 71.108 31.899 71.108 71.108-31.899 71.108-71.108 71.108z"/><path d="m452.029 133.924h-65.983c-10.501 0-19.045 8.543-19.045 19.045v41.305c0 10.501 8.543 19.045 19.045 19.045h65.983c10.502 0 19.045-8.543 19.045-19.045v-41.305c0-10.501-8.543-19.045-19.045-19.045zm-65.982 8.081h65.983c6.046 0 10.964 4.918 10.964 10.964v16.612h-87.911v-16.612c0-6.046 4.918-10.964 10.964-10.964zm65.982 63.234h-65.983c-6.046 0-10.964-4.918-10.964-10.964v-16.612h87.911v16.612c.001 6.045-4.918 10.964-10.964 10.964z"/><path d="m241.037 186.003h29.926c9.67 0 17.537-7.867 17.537-17.537v-29.926c0-9.67-7.867-17.537-17.537-17.537h-29.926c-9.67 0-17.537 7.867-17.537 17.537v29.927c0 9.67 7.867 17.536 17.537 17.536z"/></g></g></svg>